<svg width="21" height="21" viewBox="0 0 21 21" fill="none" xmlns="http://www.w3.org/2000/svg">
<path d="M14.57 20.9982C14.8356 20.9997 15.0988 20.9483 15.3444 20.847C15.5899 20.7457 15.8128 20.5966 16 20.4082L18.71 17.6982C18.8963 17.5108 19.0008 17.2574 19.0008 16.9932C19.0008 16.729 18.8963 16.4756 18.71 16.2882L14.71 12.2882C14.5226 12.1019 14.2692 11.9974 14.005 11.9974C13.7408 11.9974 13.4874 12.1019 13.3 12.2882L11.7 13.8782C10.5923 13.5828 9.56631 13.0391 8.7 12.2882C7.95112 11.4205 7.40763 10.395 7.11 9.28819L8.7 7.68819C8.88625 7.50083 8.9908 7.24737 8.9908 6.98319C8.9908 6.719 8.88625 6.46555 8.7 6.27819L4.7 2.27819C4.51264 2.09194 4.25919 1.9874 3.995 1.9874C3.73082 1.9874 3.47737 2.09194 3.29 2.27819L0.590003 4.99819C0.401635 5.18543 0.252448 5.40832 0.151149 5.65384C0.0498504 5.89936 -0.00153127 6.1626 2.84913e-06 6.42819C0.0907258 10.2705 1.62608 13.9375 4.3 16.6982C7.06072 19.3721 10.7277 20.9075 14.57 20.9982ZM4 4.40819L6.59 6.99819L5.3 8.28819C5.17782 8.40264 5.08633 8.54593 5.03392 8.70492C4.9815 8.86391 4.96984 9.03352 5 9.19819C5.37377 10.8686 6.16511 12.4168 7.3 13.6982C8.58036 14.8345 10.129 15.6261 11.8 15.9982C11.9622 16.0321 12.1302 16.0252 12.2891 15.978C12.4479 15.9309 12.5926 15.8451 12.71 15.7282L14 14.4082L16.59 16.9982L14.59 18.9982C11.2737 18.9128 8.10951 17.5893 5.72 15.2882C3.41291 12.8977 2.08561 9.7293 2 6.40819L4 4.40819ZM18 9.99819H20C20.0259 8.80919 19.8109 7.62725 19.3677 6.52359C18.9246 5.41994 18.2627 4.41743 17.4217 3.57648C16.5808 2.73553 15.5782 2.07355 14.4746 1.63044C13.3709 1.18733 12.189 0.972257 11 0.998188V2.99819C11.9279 2.96609 12.8525 3.1252 13.7163 3.46562C14.5801 3.80605 15.3646 4.32051 16.0212 4.97703C16.6777 5.63355 17.1921 6.41809 17.5326 7.28189C17.873 8.14569 18.0321 9.07028 18 9.99819Z" fill="#0184D3"/>
</svg>
