<svg width="29" height="30" viewBox="0 0 29 30" fill="none" xmlns="http://www.w3.org/2000/svg">
<path d="M26 0H11C9.34552 0 8.00002 1.3455 8.00002 3V11.379L0.939516 18.4395C0.729802 18.6493 0.586992 18.9165 0.529141 19.2075C0.47129 19.4984 0.500994 19.7999 0.614499 20.074C0.728004 20.348 0.920214 20.5823 1.16683 20.7471C1.41344 20.9119 1.70339 20.9999 2.00002 21V28.5C2.00002 28.8978 2.15805 29.2794 2.43936 29.5607C2.72066 29.842 3.10219 30 3.50002 30H27.5C27.8978 30 28.2794 29.842 28.5607 29.5607C28.842 29.2794 29 28.8978 29 28.5V3C29 1.3455 27.6545 0 26 0ZM14 27H5.00002V18.621L9.50002 14.121L14 18.621V27ZM26 27H17V21C17.297 21.0007 17.5874 20.9131 17.8345 20.7484C18.0816 20.5837 18.2742 20.3493 18.3878 20.0749C18.5014 19.8006 18.531 19.4986 18.4727 19.2075C18.4144 18.9163 18.271 18.649 18.0605 18.4395L11 11.379V3H26V27Z" fill="#395319"/>
<path d="M14 6H17V9H14V6ZM20 6H23V9H20V6ZM20 12.0465H23V15H20V12.0465ZM20 18H23V21H20V18ZM8 19.5H11V22.5H8V19.5Z" fill="#395319"/>
</svg>
