<svg width="20" height="22" viewBox="0 0 20 22" fill="none" xmlns="http://www.w3.org/2000/svg">
<path d="M17.375 10.6821C17.7852 10.9624 18.1509 11.2803 18.4722 11.6357C18.7935 11.9912 19.0703 12.3809 19.3027 12.8047C19.5352 13.2285 19.7061 13.6763 19.8154 14.1479C19.9248 14.6196 19.9863 15.1016 20 15.5938C20 16.4072 19.8462 17.1729 19.5386 17.8906C19.231 18.6084 18.8071 19.2339 18.2671 19.7671C17.7271 20.3003 17.1016 20.7207 16.3906 21.0283C15.6797 21.3359 14.9141 21.4932 14.0938 21.5C13.4717 21.5 12.8701 21.4077 12.2891 21.2231C11.708 21.0386 11.1748 20.772 10.6895 20.4233C10.2041 20.0747 9.77344 19.6577 9.39746 19.1724C9.02148 18.687 8.73096 18.1504 8.52588 17.5625H0.3125V1.8125H2.9375V0.5H4.25V1.8125H13.4375V0.5H14.75V1.8125H17.375V10.6821ZM1.625 3.125V5.75H16.0625V3.125H14.75V4.4375H13.4375V3.125H4.25V4.4375H2.9375V3.125H1.625ZM8.21826 16.25C8.19775 16.0381 8.1875 15.8193 8.1875 15.5938C8.1875 15.0059 8.26953 14.4351 8.43359 13.8813C8.59766 13.3276 8.84717 12.8047 9.18213 12.3125H8.1875V11H9.5V11.8818C9.78027 11.5332 10.0913 11.2256 10.4331 10.959C10.7749 10.6924 11.144 10.4634 11.5405 10.272C11.937 10.0806 12.3506 9.93701 12.7812 9.84131C13.2119 9.74561 13.6494 9.69434 14.0938 9.6875C14.7773 9.6875 15.4336 9.80029 16.0625 10.0259V7.0625H1.625V16.25H8.21826ZM14.0938 20.1875C14.7295 20.1875 15.3242 20.0679 15.8779 19.8286C16.4316 19.5894 16.917 19.2612 17.334 18.8442C17.751 18.4272 18.0791 17.9419 18.3184 17.3882C18.5576 16.8345 18.6807 16.2363 18.6875 15.5938C18.6875 14.958 18.5679 14.3633 18.3286 13.8096C18.0894 13.2559 17.7612 12.7705 17.3442 12.3535C16.9272 11.9365 16.4419 11.6084 15.8882 11.3691C15.3345 11.1299 14.7363 11.0068 14.0938 11C13.458 11 12.8633 11.1196 12.3096 11.3589C11.7559 11.5981 11.2705 11.9263 10.8535 12.3433C10.4365 12.7603 10.1084 13.2456 9.86914 13.7993C9.62988 14.353 9.50684 14.9512 9.5 15.5938C9.5 16.2295 9.61963 16.8242 9.85889 17.3779C10.0981 17.9316 10.4263 18.417 10.8433 18.834C11.2603 19.251 11.7456 19.5791 12.2993 19.8184C12.853 20.0576 13.4512 20.1807 14.0938 20.1875ZM14.75 14.9375H16.7188V16.25H13.4375V12.3125H14.75V14.9375ZM2.9375 11H4.25V12.3125H2.9375V11ZM5.5625 11H6.875V12.3125H5.5625V11ZM5.5625 8.375H6.875V9.6875H5.5625V8.375ZM2.9375 13.625H4.25V14.9375H2.9375V13.625ZM5.5625 13.625H6.875V14.9375H5.5625V13.625ZM9.5 9.6875H8.1875V8.375H9.5V9.6875ZM12.125 9.6875H10.8125V8.375H12.125V9.6875ZM14.75 9.6875H13.4375V8.375H14.75V9.6875Z" fill="#0FA958"/>
</svg>
