<svg width="61" height="10" viewBox="0 0 61 10" fill="none" xmlns="http://www.w3.org/2000/svg">
<g clip-path="url(#clip0_1038_2182)">
<path d="M2.69663 9.95085V9.28899C2.69663 9.03522 2.54216 8.86979 2.27738 8.86979C2.14502 8.86979 2.0016 8.91391 1.90231 9.05733C1.82512 8.93597 1.71482 8.86979 1.54934 8.86979C1.43899 8.86979 1.32874 8.90286 1.24045 9.02421V8.89185H1.00879V9.95085H1.24045V9.36617C1.24045 9.17869 1.33974 9.09039 1.49422 9.09039C1.64859 9.09039 1.72587 9.18969 1.72587 9.36617V9.95085H1.95753V9.36617C1.95753 9.17869 2.06778 9.09039 2.2112 9.09039C2.36567 9.09039 2.44286 9.18969 2.44286 9.36617V9.95085H2.69663ZM6.12733 8.89185H5.75231V8.57195H5.52065V8.89185H5.31105V9.1014H5.5206V9.58683C5.5206 9.82954 5.61989 9.97291 5.88467 9.97291C5.98397 9.97291 6.09422 9.93984 6.1715 9.89572L6.10527 9.69713C6.03909 9.74125 5.9619 9.7523 5.90673 9.7523C5.79643 9.7523 5.75231 9.68612 5.75231 9.57577V9.1014H6.12733V8.89185ZM8.09095 8.86974C7.95859 8.86974 7.87035 8.93597 7.81517 9.02421V8.89185H7.58351V9.95085H7.81517V9.35517C7.81517 9.17869 7.89236 9.07939 8.03577 9.07939C8.0799 9.07939 8.13507 9.09045 8.17919 9.10145L8.24537 8.88085C8.20125 8.86979 8.13507 8.86979 8.09095 8.86979V8.86974ZM5.12351 8.98009C5.01316 8.90286 4.85874 8.86979 4.69326 8.86979C4.42854 8.86979 4.25206 9.00215 4.25206 9.21175C4.25206 9.38828 4.38442 9.48753 4.61608 9.52065L4.72638 9.5317C4.84773 9.55371 4.91392 9.58683 4.91392 9.642C4.91392 9.71919 4.82567 9.77436 4.6712 9.77436C4.51678 9.77436 4.39542 9.71919 4.31819 9.66406L4.20788 9.84055C4.32924 9.92879 4.49472 9.97291 4.66015 9.97291C4.96904 9.97291 5.14557 9.82954 5.14557 9.63095C5.14557 9.44341 5.00216 9.34411 4.7815 9.31105L4.6712 9.29999C4.57191 9.28894 4.49472 9.26693 4.49472 9.20075C4.49472 9.12351 4.5719 9.07939 4.69326 9.07939C4.82567 9.07939 4.95804 9.13452 5.02422 9.16763L5.12351 8.98009ZM11.279 8.86979C11.1466 8.86979 11.0584 8.93597 11.0032 9.02421V8.89185H10.7716V9.95085H11.0032V9.35517C11.0032 9.17869 11.0804 9.07939 11.2238 9.07939C11.268 9.07939 11.3232 9.09045 11.3673 9.10145L11.4335 8.88085C11.3893 8.86979 11.3232 8.86979 11.279 8.86979ZM8.32261 9.42135C8.32261 9.74125 8.54321 9.97291 8.88522 9.97291C9.03964 9.97291 9.14995 9.93984 9.26025 9.8516L9.14995 9.66406C9.0617 9.73024 8.97346 9.76331 8.87417 9.76331C8.68663 9.76331 8.55427 9.63095 8.55427 9.42135C8.55427 9.22281 8.68663 9.0904 8.87417 9.07939C8.97346 9.07939 9.0617 9.11246 9.14995 9.17869L9.26025 8.99115C9.14995 8.90286 9.03964 8.86979 8.88522 8.86979C8.54321 8.86979 8.32261 9.10145 8.32261 9.42135ZM10.4627 9.42135V8.89185H10.2311V9.02421C10.1538 8.92497 10.0435 8.86979 9.9001 8.86979C9.60226 8.86979 9.3706 9.10145 9.3706 9.42135C9.3706 9.74125 9.60226 9.97291 9.9001 9.97291C10.0545 9.97291 10.1649 9.91778 10.2311 9.81849V9.95085H10.4627V9.42135ZM9.61326 9.42135C9.61326 9.23381 9.73462 9.07939 9.93316 9.07939C10.1207 9.07939 10.2531 9.22281 10.2531 9.42135C10.2531 9.60889 10.1207 9.76331 9.93316 9.76331C9.73462 9.75225 9.61326 9.60889 9.61326 9.42135ZM6.84442 8.86979C6.53552 8.86979 6.31487 9.09039 6.31487 9.42135C6.31487 9.7523 6.53547 9.97291 6.85542 9.97291C7.00985 9.97291 7.16432 9.92879 7.28567 9.82954L7.17532 9.66406C7.08708 9.73024 6.97678 9.77436 6.86648 9.77436C6.72306 9.77436 6.57964 9.70818 6.54653 9.5206H7.32979V9.4324C7.34085 9.09039 7.14231 8.86979 6.84442 8.86979ZM6.84442 9.06833C6.98778 9.06833 7.08713 9.15663 7.10914 9.3221H6.55758C6.57964 9.17869 6.67894 9.06833 6.84442 9.06833ZM12.5918 9.42135V8.47266H12.3601V9.02421C12.2829 8.92497 12.1726 8.86979 12.0291 8.86979C11.7313 8.86979 11.4996 9.10145 11.4996 9.42135C11.4996 9.74125 11.7313 9.97291 12.0291 9.97291C12.1836 9.97291 12.2939 9.91778 12.3601 9.81849V9.95085H12.5918V9.42135ZM11.7424 9.42135C11.7424 9.23381 11.8637 9.07939 12.0623 9.07939C12.2498 9.07939 12.3822 9.22281 12.3822 9.42135C12.3822 9.60889 12.2498 9.76331 12.0623 9.76331C11.8637 9.75225 11.7424 9.60889 11.7424 9.42135ZM3.99829 9.42135V8.89185H3.76663V9.02421C3.68939 8.92497 3.57909 8.86979 3.43567 8.86979C3.13783 8.86979 2.90618 9.10145 2.90618 9.42135C2.90618 9.74125 3.13783 9.97291 3.43567 9.97291C3.59015 9.97291 3.70045 9.91778 3.76663 9.81849V9.95085H3.99829V9.42135ZM3.13783 9.42135C3.13783 9.23381 3.25919 9.07939 3.45773 9.07939C3.64527 9.07939 3.77768 9.22281 3.77768 9.42135C3.77768 9.60889 3.64527 9.76331 3.45773 9.76331C3.25919 9.75225 3.13783 9.60889 3.13783 9.42135Z" fill="black"/>
<path d="M5.04614 0.849609H8.52102V7.09338H5.04614V0.849609Z" fill="#FF5F00"/>
<path d="M5.26715 3.97131C5.26715 2.70271 5.86283 1.57749 6.77841 0.849397C6.10554 0.3199 5.25614 0 4.32951 0C2.13418 0 0.358154 1.77603 0.358154 3.97131C0.358154 6.16653 2.13418 7.94261 4.32946 7.94261C5.25609 7.94261 6.10549 7.62271 6.77841 7.09317C5.86283 6.37613 5.26715 5.2399 5.26715 3.97131Z" fill="#EB001B"/>
<path d="M13.2093 3.97131C13.2093 6.16653 11.4333 7.94261 9.23801 7.94261C8.31137 7.94261 7.46198 7.62271 6.78906 7.09317C7.7157 6.36513 8.30037 5.2399 8.30037 3.97131C8.30037 2.70271 7.70464 1.57749 6.78906 0.849397C7.46193 0.3199 8.31137 0 9.23801 0C11.4333 0 13.2093 1.78709 13.2093 3.97131Z" fill="#F79E1B"/>
</g>
<g clip-path="url(#clip1_1038_2182)">
<path d="M28.1532 7.9504C28.1532 9.05682 27.2522 9.95778 26.1458 9.95778H15.2239V2.00737C15.2239 0.900959 16.1248 0 17.2313 0H28.1532V7.9504Z" fill="white"/>
<path d="M24.5969 5.91103H25.4267C25.4505 5.91103 25.5058 5.90315 25.5295 5.90315C25.6876 5.87154 25.8219 5.72926 25.8219 5.53169C25.8219 5.34204 25.6876 5.19977 25.5295 5.16027C25.5058 5.15234 25.4584 5.15234 25.4268 5.15234H24.597V5.91103H24.5969Z" fill="url(#paint0_linear_1038_2182)"/>
<path d="M25.332 0.671875C24.5417 0.671875 23.8936 1.31208 23.8936 2.11026V3.60395H25.9247C25.9722 3.60395 26.0275 3.60395 26.067 3.61182C26.5253 3.63556 26.8652 3.87263 26.8652 4.28354C26.8652 4.60758 26.636 4.8842 26.2092 4.93955V4.95531C26.6755 4.98693 27.0311 5.24773 27.0311 5.65076C27.0311 6.08546 26.636 6.36996 26.1144 6.36996H23.8857V9.2941H25.9958C26.7861 9.2941 27.4342 8.65395 27.4342 7.85571V0.671875H25.332Z" fill="url(#paint1_linear_1038_2182)"/>
<path d="M25.7191 4.37903C25.7191 4.18933 25.5848 4.06287 25.4267 4.03913C25.411 4.03913 25.3714 4.03125 25.3477 4.03125H24.5969V4.7267H25.3477C25.3715 4.7267 25.4188 4.7267 25.4268 4.71883C25.5849 4.69509 25.7192 4.56867 25.7192 4.37898L25.7191 4.37903Z" fill="url(#paint2_linear_1038_2182)"/>
<path d="M17.3816 0.671875C16.5913 0.671875 15.9432 1.31208 15.9432 2.11026V5.65874C16.3463 5.85627 16.7651 5.98273 17.184 5.98273C17.6819 5.98273 17.9506 5.68243 17.9506 5.27147V3.59602H19.1834V5.26354C19.1834 5.91157 18.7804 6.44112 17.4132 6.44112C16.5834 6.44112 15.9353 6.2593 15.9353 6.2593V9.28617H18.0454C18.8357 9.28617 19.4838 8.64602 19.4838 7.84778V0.671976H17.3815L17.3816 0.671875Z" fill="url(#paint3_linear_1038_2182)"/>
<path d="M21.3566 0.671875C20.5663 0.671875 19.9182 1.31208 19.9182 2.11026V3.99117C20.2818 3.68294 20.914 3.48536 21.9335 3.53278C22.4788 3.55652 23.0636 3.70667 23.0636 3.70667V4.31521C22.7712 4.16506 22.4235 4.03066 21.973 3.99905C21.1985 3.94374 20.7323 4.32309 20.7323 4.98693C20.7323 5.65869 21.1985 6.03804 21.973 5.9748C22.4235 5.94319 22.7712 5.80097 23.0636 5.65869V6.26723C23.0636 6.26723 22.4867 6.41738 21.9335 6.44112C20.914 6.48849 20.2818 6.29092 19.9183 5.98273V9.30198H22.0284C22.8187 9.30198 23.4667 8.66182 23.4667 7.86359V0.671976H21.3566V0.671875Z" fill="url(#paint4_linear_1038_2182)"/>
</g>
<g clip-path="url(#clip2_1038_2182)">
<path d="M46.107 3.18503C46.0894 4.5725 47.3435 5.34672 48.2882 5.80708C49.2588 6.27937 49.5848 6.58226 49.5809 7.00467C49.5737 7.65106 48.8067 7.93636 48.089 7.94744C46.8368 7.96684 46.1088 7.60937 45.53 7.33901L45.0789 9.44973C45.6596 9.71732 46.7349 9.9507 47.85 9.96094C50.4674 9.96094 52.1799 8.66889 52.1891 6.66564C52.1994 4.12323 48.6725 3.9825 48.6966 2.84612C48.7049 2.50154 49.0337 2.13383 49.7542 2.04034C50.1108 1.99311 51.0953 1.95696 52.2114 2.47094L52.6495 0.428769C52.0492 0.210215 51.2778 0.000937462 50.3173 0.000937462C47.8537 0.000937462 46.1209 1.31058 46.107 3.18503ZM56.8589 0.176841C56.3809 0.176841 55.9782 0.455636 55.7984 0.883467L52.0595 9.81094H54.675L55.1955 8.3725H58.3917L58.6936 9.81094H60.9989L58.9872 0.176841H56.8589ZM57.2248 2.77937L57.9796 6.39708H55.9124L57.2248 2.77937ZM42.9358 0.176961L40.8741 9.81082H43.3665L45.4272 0.176721H42.9358M39.2486 0.176721L36.6544 6.73419L35.605 1.15865C35.4819 0.536239 34.9956 0.176841 34.4556 0.176841H30.2149L30.1555 0.4566C31.0261 0.645515 32.0153 0.950214 32.6146 1.27624C32.9813 1.4754 33.0859 1.64949 33.2064 2.12274L35.194 9.81094H37.8278L41.8659 0.176841L39.2486 0.176721Z" fill="url(#paint5_linear_1038_2182)"/>
</g>
<defs>
<linearGradient id="paint0_linear_1038_2182" x1="-45.8737" y1="43.1808" x2="309.276" y2="43.1808" gradientUnits="userSpaceOnUse">
<stop stop-color="#007940"/>
<stop offset="0.2285" stop-color="#00873F"/>
<stop offset="0.7433" stop-color="#40A737"/>
<stop offset="1" stop-color="#5CB531"/>
</linearGradient>
<linearGradient id="paint1_linear_1038_2182" x1="24.5351" y1="431.438" x2="379.703" y2="431.438" gradientUnits="userSpaceOnUse">
<stop stop-color="#007940"/>
<stop offset="0.2285" stop-color="#00873F"/>
<stop offset="0.7433" stop-color="#40A737"/>
<stop offset="1" stop-color="#5CB531"/>
</linearGradient>
<linearGradient id="paint2_linear_1038_2182" x1="-45.884" y1="38.7052" x2="309.285" y2="38.7052" gradientUnits="userSpaceOnUse">
<stop stop-color="#007940"/>
<stop offset="0.2285" stop-color="#00873F"/>
<stop offset="0.7433" stop-color="#40A737"/>
<stop offset="1" stop-color="#5CB531"/>
</linearGradient>
<linearGradient id="paint3_linear_1038_2182" x1="16.5598" y1="431.438" x2="377.199" y2="431.438" gradientUnits="userSpaceOnUse">
<stop stop-color="#1F286F"/>
<stop offset="0.4751" stop-color="#004E94"/>
<stop offset="0.8261" stop-color="#0066B1"/>
<stop offset="1" stop-color="#006FBC"/>
</linearGradient>
<linearGradient id="paint4_linear_1038_2182" x1="17.8743" y1="431.435" x2="368.142" y2="431.435" gradientUnits="userSpaceOnUse">
<stop stop-color="#6C2C2F"/>
<stop offset="0.1735" stop-color="#882730"/>
<stop offset="0.5731" stop-color="#BE1833"/>
<stop offset="0.8585" stop-color="#DC0436"/>
<stop offset="1" stop-color="#E60039"/>
</linearGradient>
<linearGradient id="paint5_linear_1038_2182" x1="1448.15" y1="29.9407" x2="1476.98" y2="-992.966" gradientUnits="userSpaceOnUse">
<stop stop-color="#222357"/>
<stop offset="1" stop-color="#254AA5"/>
</linearGradient>
<clipPath id="clip0_1038_2182">
<rect width="12.8657" height="10" fill="white" transform="translate(0.357178)"/>
</clipPath>
<clipPath id="clip1_1038_2182">
<rect width="12.9314" height="10" fill="white" transform="translate(15.2229)"/>
</clipPath>
<clipPath id="clip2_1038_2182">
<rect width="30.8457" height="10" fill="white" transform="translate(30.1543)"/>
</clipPath>
</defs>
</svg>
