<svg width="38" height="31" viewBox="0 0 38 31" fill="none" xmlns="http://www.w3.org/2000/svg">
<path d="M34.0001 6.83268V3.49935H10.6667V6.83268H34.0001ZM34.0001 20.166V11.8327H10.6667V20.166H34.0001ZM34.0001 0.166016C34.8841 0.166016 35.732 0.517205 36.3571 1.14233C36.9822 1.76745 37.3334 2.61529 37.3334 3.49935V20.166C37.3334 21.0501 36.9822 21.8979 36.3571 22.523C35.732 23.1482 34.8841 23.4993 34.0001 23.4993H10.6667C9.78269 23.4993 8.93485 23.1482 8.30973 22.523C7.6846 21.8979 7.33342 21.0501 7.33342 20.166V3.49935C7.33342 1.64935 8.81675 0.166016 10.6667 0.166016H34.0001ZM4.00008 26.8327H29.0001V30.166H4.00008C3.11603 30.166 2.26818 29.8148 1.64306 29.1897C1.01794 28.5646 0.666748 27.7167 0.666748 26.8327V8.49935H4.00008V26.8327Z" fill="#0184D3"/>
</svg>
