<svg width="30" height="30" viewBox="0 0 30 30" fill="none" xmlns="http://www.w3.org/2000/svg">
<path d="M27.759 14.9994L29.369 12.2169C29.5625 11.8821 29.6151 11.4842 29.5153 11.1106C29.4154 10.7371 29.1714 10.4184 28.8367 10.2248L26.0512 8.6148V5.40647C26.0512 5.0197 25.8976 4.64876 25.6241 4.37527C25.3506 4.10178 24.9797 3.94814 24.5929 3.94814H21.386L19.7775 1.16418C19.5832 0.830099 19.2652 0.585957 18.8923 0.484595C18.7073 0.434452 18.5142 0.421522 18.3242 0.446556C18.1342 0.471589 17.9511 0.534088 17.7854 0.630429L15 2.24043L12.2146 0.62897C11.8796 0.435592 11.4816 0.383187 11.108 0.483284C10.7344 0.583381 10.4159 0.827781 10.2225 1.16272L8.61249 3.94814H5.40562C5.01884 3.94814 4.64791 4.10178 4.37442 4.37527C4.10093 4.64876 3.94728 5.0197 3.94728 5.40647V8.61335L1.16187 10.2233C0.995662 10.3189 0.849987 10.4464 0.733209 10.5985C0.616432 10.7506 0.530853 10.9242 0.481391 11.1095C0.431928 11.2947 0.419557 11.4879 0.444987 11.678C0.470416 11.868 0.533147 12.0512 0.629573 12.2169L2.23957 14.9994L0.629573 17.7819C0.437057 18.117 0.384824 18.5146 0.484263 18.888C0.583701 19.2615 0.826746 19.5805 1.16041 19.7754L3.94582 21.3854V24.5923C3.94582 24.9791 4.09947 25.35 4.37296 25.6235C4.64645 25.897 5.01738 26.0506 5.40416 26.0506H8.61249L10.2225 28.8361C10.3516 29.0568 10.5359 29.2401 10.7574 29.3679C10.9788 29.4958 11.2297 29.5638 11.4854 29.5652C11.7392 29.5652 11.9914 29.4981 12.216 29.3683L14.9985 27.7583L17.7839 29.3683C18.1188 29.5615 18.5166 29.6139 18.89 29.5141C19.2635 29.4143 19.5821 29.1705 19.776 28.8361L21.3846 26.0506H24.5914C24.9782 26.0506 25.3492 25.897 25.6226 25.6235C25.8961 25.35 26.0498 24.9791 26.0498 24.5923V21.3854L28.8352 19.7754C29.0011 19.6795 29.1465 19.5519 29.2631 19.3998C29.3796 19.2477 29.4651 19.0741 29.5145 18.889C29.5639 18.7038 29.5764 18.5108 29.5512 18.3208C29.5259 18.1308 29.4635 17.9477 29.3675 17.7819L27.759 14.9994ZM11.3527 7.69314C11.9331 7.69333 12.4896 7.92406 12.8998 8.33457C13.31 8.74508 13.5404 9.30174 13.5402 9.8821C13.54 10.4625 13.3093 11.019 12.8988 11.4292C12.4883 11.8394 11.9316 12.0698 11.3512 12.0696C10.7709 12.0694 10.2144 11.8387 9.80414 11.4282C9.39391 11.0177 9.16355 10.461 9.16374 9.88064C9.16393 9.30028 9.39466 8.74378 9.80517 8.33354C10.2157 7.9233 10.7723 7.69294 11.3527 7.69314ZM11.7902 21.6931L9.45687 19.9446L18.2069 8.27793L20.5402 10.0265L11.7902 21.6931ZM18.6444 22.2765C18.357 22.2764 18.0725 22.2197 17.807 22.1096C17.5416 21.9996 17.3004 21.8383 17.0973 21.635C16.8941 21.4318 16.733 21.1905 16.6232 20.925C16.5133 20.6594 16.4568 20.3749 16.4569 20.0875C16.457 19.8001 16.5137 19.5156 16.6237 19.2502C16.7338 18.9847 16.895 18.7435 17.0983 18.5404C17.3016 18.3373 17.5428 18.1762 17.8084 18.0663C18.0739 17.9564 18.3585 17.8999 18.6458 17.9C19.2262 17.9002 19.7827 18.1309 20.1929 18.5414C20.6032 18.952 20.8335 19.5086 20.8333 20.089C20.8331 20.6693 20.6024 21.2258 20.1919 21.6361C19.7814 22.0463 19.2247 22.2767 18.6444 22.2765Z" fill="#0FA958"/>
</svg>
