<svg width="21" height="17" viewBox="0 0 21 17" fill="none" xmlns="http://www.w3.org/2000/svg">
<path d="M6.75 12L17.8125 0.937499C18.1562 0.593749 18.5938 0.421875 19.125 0.421875C19.6563 0.421875 20.0938 0.593749 20.4375 0.937499C20.7812 1.28125 20.9531 1.71875 20.9531 2.25C20.9531 2.78125 20.7812 3.21875 20.4375 3.5625L8.0625 15.9375C7.6875 16.3125 7.25 16.5 6.75 16.5C6.25 16.5 5.8125 16.3125 5.4375 15.9375L0.562499 11.0625C0.218749 10.7188 0.046875 10.2812 0.046875 9.75C0.046875 9.21875 0.218749 8.78125 0.562499 8.4375C0.906249 8.09375 1.34375 7.92188 1.875 7.92188C2.40625 7.92188 2.84375 8.09375 3.1875 8.4375L6.75 12Z" fill="#0FA958"/>
</svg>
