<svg width="33" height="32" viewBox="0 0 33 32" fill="none" xmlns="http://www.w3.org/2000/svg">
<g clip-path="url(#clip0_194_6047)">
<path d="M29.453 18.1932H22.802C22.5908 18.1876 22.3849 18.2598 22.2234 18.396C22.0619 18.5323 21.9561 18.7231 21.926 18.9322C21.7383 20.2362 21.088 21.4293 20.0937 22.2936C19.0994 23.1579 17.8275 23.6359 16.51 23.6402L18.311 31.8692C21.4733 31.4567 24.3961 29.9645 26.5848 27.645C28.7734 25.3255 30.0936 22.3211 30.322 19.1402C30.3335 19.0196 30.3195 18.8979 30.281 18.783C30.2424 18.6681 30.1802 18.5626 30.0982 18.4733C30.0163 18.3841 29.9165 18.313 29.8054 18.2647C29.6942 18.2165 29.5742 18.1921 29.453 18.1932ZM17.943 17.9792L27.542 9.75021C27.6375 9.66967 27.7143 9.56924 27.767 9.45593C27.8197 9.34262 27.847 9.21917 27.847 9.09421C27.847 8.96925 27.8197 8.84581 27.767 8.7325C27.7143 8.61919 27.6375 8.51875 27.542 8.43821L17.943 0.214211C17.8181 0.105816 17.6648 0.0354852 17.5012 0.0115509C17.3376 -0.0123834 17.1705 0.0110817 17.0198 0.0791663C16.8691 0.147251 16.7411 0.257102 16.6509 0.395706C16.5608 0.534309 16.5122 0.695857 16.511 0.861211V17.3132C16.5092 17.4799 16.5555 17.6436 16.6443 17.7847C16.7331 17.9257 16.8608 18.0382 17.0119 18.1086C17.163 18.1789 17.3312 18.2043 17.4963 18.1815C17.6615 18.1588 17.8166 18.0879 17.943 17.9792ZM2.803 19.9842C3.24599 23.3081 4.88026 26.3583 7.4023 28.5682C9.92434 30.7781 13.1627 31.9976 16.516 32.0002V23.6402C15.0686 23.6426 13.6795 23.0702 12.654 22.0488C11.6285 21.0274 11.0504 19.6406 11.047 18.1932L2.803 19.9842ZM2.677 18.0572V18.1932H11.046C11.0487 16.7459 11.6255 15.3588 12.65 14.3364C13.6744 13.314 15.0627 12.7399 16.51 12.7402L14.713 4.51621C7.89 5.40121 2.76 11.1772 2.677 18.0572Z" fill="#395319"/>
</g>
<defs>
<clipPath id="clip0_194_6047">
<rect width="32" height="32" fill="white" transform="translate(0.5)"/>
</clipPath>
</defs>
</svg>
