<svg width="22" height="18" viewBox="0 0 22 18" fill="none" xmlns="http://www.w3.org/2000/svg">
<path d="M18.1094 7.375C18.1094 7.53662 18.0452 7.69161 17.9309 7.80589C17.8166 7.92017 17.6616 7.98438 17.5 7.98438H13.4375C13.2759 7.98438 13.1209 7.92017 13.0066 7.80589C12.8923 7.69161 12.8281 7.53662 12.8281 7.375C12.8281 7.21338 12.8923 7.05839 13.0066 6.94411C13.1209 6.82983 13.2759 6.76562 13.4375 6.76562H17.5C17.6616 6.76562 17.8166 6.82983 17.9309 6.94411C18.0452 7.05839 18.1094 7.21338 18.1094 7.375ZM17.5 10.0156H13.4375C13.2759 10.0156 13.1209 10.0798 13.0066 10.1941C12.8923 10.3084 12.8281 10.4634 12.8281 10.625C12.8281 10.7866 12.8923 10.9416 13.0066 11.0559C13.1209 11.1702 13.2759 11.2344 13.4375 11.2344H17.5C17.6616 11.2344 17.8166 11.1702 17.9309 11.0559C18.0452 10.9416 18.1094 10.7866 18.1094 10.625C18.1094 10.4634 18.0452 10.3084 17.9309 10.1941C17.8166 10.0798 17.6616 10.0156 17.5 10.0156ZM21.3594 1.6875V16.3125C21.3594 16.6896 21.2096 17.0513 20.9429 17.3179C20.6763 17.5846 20.3146 17.7344 19.9375 17.7344H2.0625C1.6854 17.7344 1.32374 17.5846 1.05708 17.3179C0.790429 17.0513 0.640625 16.6896 0.640625 16.3125V1.6875C0.640625 1.3104 0.790429 0.948736 1.05708 0.682083C1.32374 0.415429 1.6854 0.265625 2.0625 0.265625H19.9375C20.3146 0.265625 20.6763 0.415429 20.9429 0.682083C21.2096 0.948736 21.3594 1.3104 21.3594 1.6875ZM20.1406 1.6875C20.1406 1.63363 20.1192 1.58196 20.0811 1.54387C20.043 1.50578 19.9914 1.48438 19.9375 1.48438H2.0625C2.00863 1.48438 1.95696 1.50578 1.91887 1.54387C1.88078 1.58196 1.85938 1.63363 1.85938 1.6875V16.3125C1.85938 16.3664 1.88078 16.418 1.91887 16.4561C1.95696 16.4942 2.00863 16.5156 2.0625 16.5156H19.9375C19.9914 16.5156 20.043 16.4942 20.0811 16.4561C20.1192 16.418 20.1406 16.3664 20.1406 16.3125V1.6875ZM11.5901 12.9112C11.6305 13.0677 11.6071 13.2338 11.525 13.373C11.4429 13.5123 11.3088 13.6132 11.1523 13.6536C10.9958 13.694 10.8297 13.6706 10.6905 13.5885C10.5512 13.5064 10.4503 13.3724 10.4099 13.2159C10.1205 12.0855 8.97688 11.2344 7.75 11.2344C6.52313 11.2344 5.38055 12.0855 5.09008 13.2148C5.04967 13.3713 4.94876 13.5054 4.80953 13.5875C4.67029 13.6696 4.50415 13.693 4.34766 13.6526C4.19116 13.6122 4.05712 13.5113 3.97503 13.372C3.89294 13.2328 3.86952 13.0667 3.90992 12.9102C4.04644 12.4051 4.2842 11.9331 4.60877 11.5228C4.93333 11.1126 5.33793 10.7725 5.79797 10.5234C5.31745 10.1223 4.97213 9.58293 4.80897 8.97863C4.6458 8.37432 4.67272 7.73443 4.88606 7.14597C5.09939 6.5575 5.48879 6.04902 6.0013 5.68967C6.51381 5.33032 7.12457 5.13754 7.75051 5.13754C8.37645 5.13754 8.9872 5.33032 9.49971 5.68967C10.0122 6.04902 10.4016 6.5575 10.615 7.14597C10.8283 7.73443 10.8552 8.37432 10.692 8.97863C10.5289 9.58293 10.1836 10.1223 9.70305 10.5234C10.163 10.7727 10.5675 11.113 10.8919 11.5234C11.2163 11.9339 11.4538 12.4061 11.5901 12.9112ZM7.75 10.0156C8.11157 10.0156 8.46502 9.90841 8.76565 9.70753C9.06629 9.50665 9.3006 9.22114 9.43897 8.88709C9.57733 8.55305 9.61354 8.18547 9.543 7.83085C9.47246 7.47623 9.29835 7.15049 9.04268 6.89482C8.78701 6.63915 8.46127 6.46504 8.10665 6.3945C7.75203 6.32396 7.38445 6.36017 7.05041 6.49853C6.71636 6.6369 6.43085 6.87121 6.22997 7.17185C6.02909 7.47248 5.92188 7.82593 5.92188 8.1875C5.92188 8.67235 6.11448 9.13734 6.45732 9.48018C6.80016 9.82302 7.26515 10.0156 7.75 10.0156Z" fill="#3DAD91"/>
</svg>
