<svg width="18" height="16" viewBox="0 0 18 16" fill="none" xmlns="http://www.w3.org/2000/svg">
<path d="M6 15H16V13H6V15ZM6 9H12V7H6V9ZM6 1V3H18V1H6ZM2 0.5C1.80295 0.500066 1.60785 0.538942 1.42582 0.61441C1.2438 0.689878 1.07842 0.800459 0.939133 0.93984C0.799845 1.07922 0.689374 1.24467 0.614028 1.42675C0.538681 1.60882 0.499934 1.80395 0.5 2.001C0.500066 2.19805 0.538942 2.39315 0.61441 2.57518C0.689878 2.7572 0.800459 2.92258 0.93984 3.06187C1.07922 3.20116 1.24467 3.31163 1.42675 3.38697C1.60882 3.46232 1.80395 3.50107 2.001 3.501C2.39896 3.50087 2.78056 3.34265 3.06187 3.06116C3.34317 2.77967 3.50113 2.39796 3.501 2C3.50087 1.60204 3.34265 1.22044 3.06116 0.939133C2.77967 0.657828 2.39796 0.499867 2 0.5ZM2 6.5C1.80295 6.50007 1.60785 6.53894 1.42582 6.61441C1.2438 6.68988 1.07842 6.80046 0.939133 6.93984C0.799845 7.07922 0.689374 7.24467 0.614027 7.42675C0.538681 7.60882 0.499934 7.80395 0.5 8.001C0.500066 8.19805 0.538942 8.39315 0.61441 8.57518C0.689878 8.7572 0.800459 8.92258 0.93984 9.06187C1.07922 9.20116 1.24467 9.31163 1.42675 9.38697C1.60882 9.46232 1.80395 9.50107 2.001 9.501C2.39896 9.50087 2.78056 9.34265 3.06187 9.06116C3.34317 8.77967 3.50113 8.39796 3.501 8C3.50087 7.60204 3.34265 7.22044 3.06116 6.93913C2.77967 6.65783 2.39796 6.49987 2 6.5ZM2 12.5C1.80295 12.5001 1.60785 12.5389 1.42582 12.6144C1.2438 12.6899 1.07842 12.8005 0.939133 12.9398C0.799845 13.0792 0.689374 13.2447 0.614027 13.4267C0.538681 13.6088 0.499934 13.804 0.5 14.001C0.500066 14.198 0.538942 14.3932 0.61441 14.5752C0.689878 14.7572 0.800459 14.9226 0.93984 15.0619C1.07922 15.2012 1.24467 15.3116 1.42675 15.387C1.60882 15.4623 1.80395 15.5011 2.001 15.501C2.39896 15.5009 2.78056 15.3427 3.06187 15.0612C3.34317 14.7797 3.50113 14.398 3.501 14C3.50087 13.602 3.34265 13.2204 3.06116 12.9391C2.77967 12.6578 2.39796 12.4999 2 12.5Z" fill="#395319"/>
</svg>
