<svg width="30" height="21" viewBox="0 0 30 21" fill="none" xmlns="http://www.w3.org/2000/svg">
<path d="M28.125 7.62496C28.5118 7.62496 28.8827 7.77861 29.1562 8.0521C29.4297 8.32559 29.5833 8.69652 29.5833 9.08329C29.5833 9.47007 29.4297 9.841 29.1562 10.1145C28.8827 10.388 28.5118 10.5416 28.125 10.5416H21.6062L21.4167 12.3062L18.2083 19.5104C17.9167 20.2395 17.1437 20.75 16.2542 20.75H9.89582C8.72916 20.75 7.70832 19.6854 7.70832 18.5625V9.08329C7.70832 8.51454 7.94166 8.00413 8.33541 7.62496L14.4604 0.479126L15.5833 1.55829C15.875 1.83538 16.05 2.21454 16.05 2.63746L16.0062 2.95829L13.5417 7.62496H28.125ZM0.416656 20.75V9.08329H4.79166V20.75H0.416656Z" fill="#0FA958"/>
</svg>
