<svg width="17" height="18" viewBox="0 0 17 18" fill="none" xmlns="http://www.w3.org/2000/svg">
<path d="M8.49999 8.99983C8.88958 8.99983 9.2232 8.861 9.50087 8.58333C9.77806 8.30614 9.91666 7.97275 9.91666 7.58317C9.91666 7.19358 9.77806 6.85996 9.50087 6.58229C9.2232 6.3051 8.88958 6.1665 8.49999 6.1665C8.11041 6.1665 7.77702 6.3051 7.49983 6.58229C7.22216 6.85996 7.08333 7.19358 7.08333 7.58317C7.08333 7.97275 7.22216 8.30614 7.49983 8.58333C7.77702 8.861 8.11041 8.99983 8.49999 8.99983ZM8.49999 15.8175C8.40555 15.8175 8.31111 15.7998 8.21666 15.7644C8.12222 15.729 8.03958 15.6818 7.96874 15.6227C6.24513 14.0998 4.95833 12.6862 4.10833 11.382C3.25833 10.0772 2.83333 8.85816 2.83333 7.72483C2.83333 5.954 3.40306 4.54324 4.54254 3.49254C5.68154 2.44185 7.00069 1.9165 8.49999 1.9165C9.9993 1.9165 11.3185 2.44185 12.4575 3.49254C13.5969 4.54324 14.1667 5.954 14.1667 7.72483C14.1667 8.85816 13.7417 10.0772 12.8917 11.382C12.0417 12.6862 10.7549 14.0998 9.03124 15.6227C8.96041 15.6818 8.87777 15.729 8.78333 15.7644C8.68888 15.7998 8.59444 15.8175 8.49999 15.8175Z" fill="#DE3618"/>
</svg>
