<svg width="40" height="28" viewBox="0 0 40 28" fill="none" xmlns="http://www.w3.org/2000/svg">
<path d="M40 3V28H2.5V23H0V0.5H35V3H40ZM30 3C30 3.35156 30.0651 3.67708 30.1953 3.97656C30.3255 4.27604 30.5013 4.53646 30.7227 4.75781C30.944 4.97917 31.2109 5.16146 31.5234 5.30469C31.8359 5.44792 32.1615 5.51302 32.5 5.5V3H30ZM2.5 5.5C2.85156 5.5 3.17708 5.4349 3.47656 5.30469C3.77604 5.17448 4.03646 4.9987 4.25781 4.77734C4.47917 4.55599 4.66146 4.28906 4.80469 3.97656C4.94792 3.66406 5.01302 3.33854 5 3H2.5V5.5ZM2.5 15.5C3.1901 15.5 3.83464 15.6302 4.43359 15.8906C5.03255 16.151 5.56641 16.5091 6.03516 16.9648C6.50391 17.4206 6.86198 17.9479 7.10938 18.5469C7.35677 19.1458 7.48698 19.7969 7.5 20.5H27.5C27.5 19.8099 27.6302 19.1654 27.8906 18.5664C28.151 17.9674 28.5091 17.4336 28.9648 16.9648C29.4206 16.4961 29.9479 16.138 30.5469 15.8906C31.1458 15.6432 31.7969 15.513 32.5 15.5V8C31.8099 8 31.1654 7.86979 30.5664 7.60938C29.9674 7.34896 29.4336 6.99089 28.9648 6.53516C28.4961 6.07943 28.138 5.55208 27.8906 4.95312C27.6432 4.35417 27.513 3.70312 27.5 3H7.5C7.5 3.6901 7.36979 4.33464 7.10938 4.93359C6.84896 5.53255 6.49089 6.06641 6.03516 6.53516C5.57943 7.00391 5.05208 7.36198 4.45312 7.60938C3.85417 7.85677 3.20312 7.98698 2.5 8V15.5ZM32.5 18C32.1484 18 31.8229 18.0651 31.5234 18.1953C31.224 18.3255 30.9635 18.5013 30.7422 18.7227C30.5208 18.944 30.3385 19.2109 30.1953 19.5234C30.0521 19.8359 29.987 20.1615 30 20.5H32.5V18ZM2.5 20.5H5C5 20.1484 4.9349 19.8229 4.80469 19.5234C4.67448 19.224 4.4987 18.9635 4.27734 18.7422C4.05599 18.5208 3.78906 18.3385 3.47656 18.1953C3.16406 18.0521 2.83854 17.987 2.5 18V20.5ZM37.5 5.5H35V23H5V25.5H37.5V5.5ZM8.75 13C8.41146 13 8.11849 12.8763 7.87109 12.6289C7.6237 12.3815 7.5 12.0885 7.5 11.75C7.5 11.4115 7.6237 11.1185 7.87109 10.8711C8.11849 10.6237 8.41146 10.5 8.75 10.5C9.08854 10.5 9.38151 10.6237 9.62891 10.8711C9.8763 11.1185 10 11.4115 10 11.75C10 12.0885 9.8763 12.3815 9.62891 12.6289C9.38151 12.8763 9.08854 13 8.75 13ZM26.25 13C25.9115 13 25.6185 12.8763 25.3711 12.6289C25.1237 12.3815 25 12.0885 25 11.75C25 11.4115 25.1237 11.1185 25.3711 10.8711C25.6185 10.6237 25.9115 10.5 26.25 10.5C26.5885 10.5 26.8815 10.6237 27.1289 10.8711C27.3763 11.1185 27.5 11.4115 27.5 11.75C27.5 12.0885 27.3763 12.3815 27.1289 12.6289C26.8815 12.8763 26.5885 13 26.25 13ZM17.5 18C16.8099 18 16.1654 17.8698 15.5664 17.6094C14.9674 17.349 14.4336 16.9909 13.9648 16.5352C13.4961 16.0794 13.138 15.5521 12.8906 14.9531C12.6432 14.3542 12.513 13.7031 12.5 13V10.5C12.5 9.8099 12.6302 9.16536 12.8906 8.56641C13.151 7.96745 13.5091 7.43359 13.9648 6.96484C14.4206 6.49609 14.9479 6.13802 15.5469 5.89062C16.1458 5.64323 16.7969 5.51302 17.5 5.5C18.1901 5.5 18.8346 5.63021 19.4336 5.89062C20.0326 6.15104 20.5664 6.50911 21.0352 6.96484C21.5039 7.42057 21.862 7.94792 22.1094 8.54688C22.3568 9.14583 22.487 9.79688 22.5 10.5V13C22.5 13.6901 22.3698 14.3346 22.1094 14.9336C21.849 15.5326 21.4909 16.0664 21.0352 16.5352C20.5794 17.0039 20.0521 17.362 19.4531 17.6094C18.8542 17.8568 18.2031 17.987 17.5 18ZM15 13C15 13.3516 15.0651 13.6771 15.1953 13.9766C15.3255 14.276 15.5013 14.5365 15.7227 14.7578C15.944 14.9792 16.2109 15.1615 16.5234 15.3047C16.8359 15.4479 17.1615 15.513 17.5 15.5C17.8516 15.5 18.1771 15.4349 18.4766 15.3047C18.776 15.1745 19.0365 14.9987 19.2578 14.7773C19.4792 14.556 19.6615 14.2891 19.8047 13.9766C19.9479 13.6641 20.013 13.3385 20 13V10.5C20 10.1484 19.9349 9.82292 19.8047 9.52344C19.6745 9.22396 19.4987 8.96354 19.2773 8.74219C19.056 8.52083 18.7891 8.33854 18.4766 8.19531C18.1641 8.05208 17.8385 7.98698 17.5 8C17.1484 8 16.8229 8.0651 16.5234 8.19531C16.224 8.32552 15.9635 8.5013 15.7422 8.72266C15.5208 8.94401 15.3385 9.21094 15.1953 9.52344C15.0521 9.83594 14.987 10.1615 15 10.5V13Z" fill="#0184D3"/>
</svg>
