<svg width="25" height="25" viewBox="0 0 25 25" fill="none" xmlns="http://www.w3.org/2000/svg">
<path d="M7.93369 3.74262L21.7177 14.5434L22.2088 14.1037L8.29244 3.42105L7.93369 3.74262ZM12.4257 9.49191L6.78416 4.77129C6.78416 4.77129 4.82087 6.02473 2.44306 8.77387L7.44806 13.9484L12.4257 9.49191ZM0.0657959 11.3453L10.7124 24.3943L12.6784 22.635L1.32744 9.65707C1.32744 9.65707 0.33814 10.1925 0.0657959 11.3453ZM11.9953 12.0934L18.1799 17.7098L20.1449 15.9505L13.7054 10.5627L11.9953 12.0934ZM8.57517 15.1554L14.2501 21.2279L16.2145 19.4691L10.2852 13.6246L8.57517 15.1554ZM12.2343 1.88215L11.4003 4.22387L11.9231 4.60449L14.5782 2.22723L14.0587 1.90019L12.2294 3.53809L13.0382 1.25543L12.4957 0.913086L9.96533 3.17824L10.4187 3.50801L12.2343 1.88215ZM14.5066 6.48848L15.013 6.03402L13.4681 4.9359L14.1686 4.30918L15.5407 5.24871L16.028 4.81176L14.6406 3.88535L15.2192 3.36801L16.7553 4.36168L17.2541 3.91598L15.13 2.57504L12.4405 4.98293L14.5066 6.48848ZM16.1521 7.68723L18.2516 6.41574L18.939 5.98043L18.4829 6.56996L17.1321 8.40254L17.7845 8.87777L21.8249 6.8002L21.0581 6.31621L18.8428 7.58387L18.2773 7.92621L18.6568 7.42691L19.9699 5.62934L19.2327 5.16449L17.1846 6.43379L16.6405 6.77777L17.0151 6.30145L18.2554 4.54762L17.5642 4.11121L15.562 7.25738L16.1521 7.68723ZM23.746 7.86988C23.2489 7.55762 22.7846 7.40832 22.3504 7.41707C21.9195 7.42637 21.5662 7.55598 21.2878 7.80535C20.9821 8.07879 20.8793 8.36262 20.9799 8.65684C21.039 8.83348 21.2271 9.08887 21.5481 9.42684L21.8801 9.77574C22.0781 9.98137 22.2055 10.1498 22.2613 10.2789C22.316 10.4096 22.2892 10.5239 22.1814 10.6201C21.9971 10.7847 21.757 10.8159 21.4623 10.7153C21.279 10.6458 21.1063 10.551 20.9493 10.4336C20.6376 10.2116 20.4861 9.99777 20.4899 9.7916C20.4921 9.67895 20.5539 9.54988 20.6748 9.40441L19.9578 8.90457C19.6346 9.19387 19.5121 9.51652 19.5931 9.87473C19.6745 10.2362 19.9518 10.5928 20.4331 10.9439C20.9127 11.2955 21.3901 11.4836 21.8593 11.5044C22.3335 11.5246 22.7239 11.4 23.0247 11.1293C23.32 10.8657 23.425 10.5824 23.3408 10.2811C23.2872 10.088 23.1368 9.86324 22.894 9.6073L22.3499 9.03309C22.1426 8.81652 22.019 8.66613 21.9769 8.58027C21.9113 8.44957 21.9348 8.33418 22.048 8.23355C22.171 8.12309 22.3285 8.07824 22.521 8.09738C22.7163 8.11652 22.9197 8.19473 23.1324 8.33145C23.3255 8.45613 23.4617 8.5852 23.5377 8.71863C23.6553 8.91988 23.6224 9.11402 23.442 9.29832L24.2497 9.83043C24.5855 9.50668 24.6905 9.16379 24.5652 8.8034C24.4427 8.44629 24.1688 8.13457 23.746 7.86988Z" fill="#0FA958"/>
</svg>
