<svg width="35" height="35" viewBox="0 0 35 35" fill="none" xmlns="http://www.w3.org/2000/svg">
<path d="M31.307 13.2464C31.8391 11.8092 31.9928 10.4388 31.6105 9.20883C31.4344 9.22469 31.2518 9.23289 31.0647 9.23289C25.4636 9.23289 15.5641 2.19078 14.8149 1.09375C11.7278 5.5907 5.25714 9.04805 2.33245 12.9254C1.14902 14.4944 0.557298 15.662 1.73472 17.4568L14.0662 33.3014C14.6224 34.0545 15.7123 34.1157 16.4883 33.4212C16.4883 33.4212 26.6011 20.4444 33.9068 16.4292C33.3578 15.3568 32.4439 14.2866 31.307 13.2464ZM13.8513 29.9436L13.7999 29.9791L13.7534 30.0196C13.5649 30.1887 13.3974 30.3798 13.2546 30.5889L2.5698 16.8607C1.80034 15.6702 2.01855 15.0434 3.15113 13.5428C4.43574 11.8404 6.48871 10.1877 8.66253 8.43828C10.9222 6.61938 13.2497 4.74687 14.9593 2.61625C17.7811 4.93828 25.6742 10.0652 30.7814 10.2528C31.3939 16.2668 18.9241 26.4053 13.8513 29.9436Z" fill="#207CEA"/>
<path d="M10.9337 7.74359L24.7177 18.5444L25.2088 18.1047L11.2924 7.42203L10.9337 7.74359ZM15.4257 13.4929L9.78416 8.77227C9.78416 8.77227 7.82087 10.0257 5.44306 12.7748L10.4481 17.9494L15.4257 13.4929ZM3.0658 15.3463L13.7124 28.3952L15.6784 26.6359L4.32744 13.658C4.32744 13.658 3.33814 14.1934 3.0658 15.3463ZM14.9953 16.0944L21.1799 21.7108L23.1449 19.9515L16.7054 14.5637L14.9953 16.0944ZM11.5752 19.1563L17.2501 25.2288L19.2145 23.4701L13.2852 17.6256L11.5752 19.1563ZM15.2343 5.88312L14.4003 8.22484L14.9231 8.60547L17.5782 6.2282L17.0587 5.90117L15.2294 7.53906L16.0382 5.25641L15.4957 4.91406L12.9653 7.17922L13.4187 7.50898L15.2343 5.88312ZM17.5066 10.4895L18.013 10.035L16.4681 8.93687L17.1686 8.31016L18.5407 9.24969L19.028 8.81273L17.6406 7.88633L18.2192 7.36898L19.7553 8.36266L20.2541 7.91695L18.13 6.57602L15.4405 8.98391L17.5066 10.4895ZM19.1521 11.6882L21.2516 10.4167L21.939 9.98141L21.4829 10.5709L20.1321 12.4035L20.7845 12.8787L24.8249 10.8012L24.0581 10.3172L21.8428 11.5848L21.2773 11.9272L21.6568 11.4279L22.9699 9.63031L22.2327 9.16547L20.1846 10.4348L19.6405 10.7787L20.0151 10.3024L21.2554 8.54859L20.5642 8.11219L18.562 11.2584L19.1521 11.6882ZM26.746 11.8709C26.2489 11.5586 25.7846 11.4093 25.3504 11.418C24.9195 11.4273 24.5662 11.557 24.2878 11.8063C23.9821 12.0798 23.8793 12.3636 23.9799 12.6578C24.039 12.8345 24.2271 13.0898 24.5481 13.4278L24.8801 13.7767C25.0781 13.9823 25.2055 14.1508 25.2613 14.2798C25.316 14.4105 25.2892 14.5248 25.1814 14.6211C24.9971 14.7857 24.757 14.8169 24.4623 14.7162C24.279 14.6467 24.1063 14.5519 23.9493 14.4346C23.6376 14.2126 23.4861 13.9988 23.4899 13.7926C23.4921 13.6799 23.5539 13.5509 23.6748 13.4054L22.9578 12.9055C22.6346 13.1948 22.5121 13.5175 22.5931 13.8757C22.6745 14.2372 22.9518 14.5937 23.4331 14.9448C23.9127 15.2965 24.3901 15.4846 24.8593 15.5054C25.3335 15.5256 25.7239 15.4009 26.0247 15.1302C26.32 14.8666 26.425 14.5834 26.3408 14.282C26.2872 14.089 26.1368 13.8642 25.894 13.6083L25.3499 13.0341C25.1426 12.8175 25.019 12.6671 24.9769 12.5812C24.9113 12.4505 24.9348 12.3352 25.048 12.2345C25.171 12.1241 25.3285 12.0792 25.521 12.0984C25.7163 12.1175 25.9197 12.1957 26.1324 12.3324C26.3255 12.4571 26.4617 12.5862 26.5377 12.7196C26.6553 12.9209 26.6224 13.115 26.442 13.2993L27.2497 13.8314C27.5855 13.5077 27.6905 13.1648 27.5652 12.8044C27.4427 12.4473 27.1688 12.1355 26.746 11.8709Z" fill="#207CEA"/>
</svg>
