<svg width="35" height="35" viewBox="0 0 35 35" fill="none" xmlns="http://www.w3.org/2000/svg">
<path opacity="0.2" d="M7.65625 6.5625L18.5938 17.5L7.65625 28.4375V6.5625Z" fill="#0FA958"/>
<path d="M19.3731 16.7207L8.43555 5.78322C8.27741 5.63484 8.08049 5.53427 7.86758 5.49314C7.65466 5.45201 7.43445 5.472 7.23243 5.5508C7.03336 5.63447 6.86352 5.7752 6.7443 5.95524C6.62509 6.13528 6.56183 6.34658 6.56251 6.56252V28.4375C6.56183 28.6535 6.62509 28.8648 6.7443 29.0448C6.86352 29.2248 7.03336 29.3656 7.23243 29.4492C7.36734 29.5028 7.5111 29.5306 7.65626 29.5313C7.94669 29.53 8.2256 29.4175 8.43555 29.2168L19.3731 18.2793C19.5784 18.0719 19.6937 17.7919 19.6937 17.5C19.6937 17.2082 19.5784 16.9281 19.3731 16.7207ZM8.75001 25.7988V9.20119L17.0488 17.5L8.75001 25.7988Z" fill="#0FA958"/>
<path d="M30.3106 16.7208L19.3731 5.78325C19.1606 5.60884 18.8908 5.51971 18.6162 5.53319C18.3416 5.54668 18.0819 5.66182 17.8875 5.85622C17.6931 6.05061 17.5779 6.31037 17.5644 6.58496C17.551 6.85955 17.6401 7.12934 17.8145 7.34185L27.9864 17.5L17.8145 27.6583C17.6091 27.8656 17.4939 28.1457 17.4939 28.4375C17.4939 28.7294 17.6091 29.0095 17.8145 29.2168C18.0236 29.419 18.303 29.532 18.5938 29.532C18.8846 29.532 19.164 29.419 19.3731 29.2168L30.3106 18.2793C30.516 18.072 30.6312 17.7919 30.6312 17.5C30.6312 17.2082 30.516 16.9281 30.3106 16.7208Z" fill="#0FA958"/>
</svg>
