<svg width="35" height="35" viewBox="0 0 35 35" fill="none" xmlns="http://www.w3.org/2000/svg">
<path opacity="0.2" d="M7.65625 6.5625L18.5938 17.5L7.65625 28.4375V6.5625Z" fill="#207CEA"/>
<path d="M19.3731 16.7211L8.43555 5.78359C8.27741 5.63521 8.08049 5.53464 7.86758 5.4935C7.65466 5.45237 7.43445 5.47236 7.23243 5.55116C7.03336 5.63484 6.86352 5.77556 6.7443 5.9556C6.62509 6.13565 6.56183 6.34695 6.56251 6.56288V28.4379C6.56183 28.6538 6.62509 28.8651 6.7443 29.0452C6.86352 29.2252 7.03336 29.3659 7.23243 29.4496C7.36734 29.5032 7.5111 29.531 7.65626 29.5316C7.94669 29.5304 8.2256 29.4179 8.43555 29.2172L19.3731 18.2797C19.5784 18.0723 19.6937 17.7922 19.6937 17.5004C19.6937 17.2085 19.5784 16.9285 19.3731 16.7211ZM8.75001 25.7992V9.20155L17.0488 17.5004L8.75001 25.7992Z" fill="#207CEA"/>
<path d="M30.3106 16.7201L19.3731 5.78264C19.1606 5.60823 18.8908 5.5191 18.6162 5.53258C18.3416 5.54607 18.0819 5.66121 17.8875 5.85561C17.6931 6.05 17.5779 6.30976 17.5644 6.58435C17.551 6.85894 17.6401 7.12873 17.8145 7.34124L27.9864 17.4994L17.8145 27.6576C17.6091 27.865 17.4939 28.1451 17.4939 28.4369C17.4939 28.7288 17.6091 29.0089 17.8145 29.2162C18.0236 29.4184 18.303 29.5314 18.5938 29.5314C18.8846 29.5314 19.164 29.4184 19.3731 29.2162L30.3106 18.2787C30.516 18.0714 30.6312 17.7913 30.6312 17.4994C30.6312 17.2076 30.516 16.9275 30.3106 16.7201Z" fill="#207CEA"/>
</svg>
