<svg width="29" height="28" viewBox="0 0 29 28" fill="none" xmlns="http://www.w3.org/2000/svg">
<path d="M16.0416 7.8333C19.2837 7.8333 20.6666 9.21617 20.6666 12.4583H23.7499C23.7499 7.48642 21.0135 4.74996 16.0416 4.74996V7.8333ZM21.3172 16.2246C21.021 15.9553 20.6317 15.8117 20.2316 15.8241C19.8314 15.8365 19.4518 16.0038 19.1727 16.2909L15.4835 20.0849C14.5955 19.9153 12.8103 19.3588 10.9726 17.5258C9.13495 15.6865 8.5784 13.8967 8.41345 13.0148L12.2044 9.32409C12.4918 9.04524 12.6594 8.66552 12.6718 8.26528C12.6842 7.86504 12.5403 7.47569 12.2707 7.17963L6.57424 0.915837C6.30451 0.618845 5.92964 0.438697 5.52922 0.413654C5.12881 0.38861 4.73441 0.520643 4.42978 0.781712L1.08436 3.65075C0.817826 3.91826 0.658739 4.27428 0.63728 4.65129C0.614155 5.03671 0.173238 14.1665 7.25257 21.2489C13.4285 27.4233 21.1646 27.875 23.2952 27.875C23.6066 27.875 23.7977 27.8657 23.8486 27.8626C24.2256 27.8415 24.5814 27.6817 24.8476 27.414L27.7151 24.067C27.9764 23.7626 28.1087 23.3683 28.0839 22.9679C28.0592 22.5675 27.8793 22.1925 27.5825 21.9226L21.3172 16.2246Z" fill="#395319"/>
</svg>
