<svg width="16" height="17" viewBox="0 0 16 17" fill="none" xmlns="http://www.w3.org/2000/svg">
<path d="M4.57133 2.13014C5.33333 2.68548 5.92666 3.44348 6.43333 4.16881L6.72799 4.59814L7.00599 5.00814C7.14505 5.2113 7.20451 5.45851 7.17303 5.70267C7.14156 5.94684 7.02136 6.17089 6.83533 6.33214L5.53466 7.29814C5.47182 7.34352 5.42759 7.41016 5.41018 7.48569C5.39277 7.56122 5.40336 7.6405 5.43999 7.70881C5.73466 8.24414 6.25866 9.04148 6.85866 9.64148C7.45933 10.2415 8.294 10.8001 8.86666 11.1281C8.93846 11.1685 9.02298 11.1797 9.10283 11.1596C9.18269 11.1395 9.25181 11.0896 9.296 11.0201L10.1427 9.73148C10.2983 9.52471 10.5279 9.38619 10.7834 9.34493C11.0389 9.30367 11.3005 9.36288 11.5133 9.51014L11.9553 9.81614C12.7813 10.3895 13.6687 11.0408 14.3473 11.9095C14.455 12.048 14.5234 12.2129 14.5456 12.3869C14.5678 12.5609 14.5428 12.7377 14.4733 12.8988C13.9153 14.2008 12.5033 15.3095 11.0347 15.2555L10.8347 15.2441L10.6793 15.2308L10.5073 15.2108L10.32 15.1855L10.1167 15.1521C10.0811 15.1457 10.0455 15.1391 10.01 15.1321L9.786 15.0841C9.74682 15.0755 9.70771 15.0667 9.66866 15.0575L9.42466 14.9948L9.16799 14.9215L8.9 14.8348C7.66933 14.4175 6.10733 13.5975 4.50466 11.9948C2.90266 10.3928 2.08266 8.83081 1.66533 7.60014L1.57866 7.33214L1.50533 7.07548L1.44266 6.83148L1.39066 6.60081C1.37564 6.52857 1.36164 6.45612 1.34866 6.38348L1.31533 6.18014L1.28866 5.99281L1.26933 5.82081L1.25599 5.66548L1.24533 5.46548C1.19133 4.00148 2.31199 2.57948 3.608 2.02414C3.76398 1.95679 3.9348 1.93114 4.10368 1.94973C4.27257 1.96831 4.43372 2.03048 4.57133 2.13014ZM9.99466 4.52681L10.072 4.53548C10.5573 4.62107 11.003 4.85811 11.3453 5.2126C11.6875 5.56709 11.9088 6.02084 11.9773 6.50881C12.0018 6.6776 11.9606 6.84933 11.8623 6.98868C11.7639 7.12803 11.6159 7.2244 11.4487 7.25796C11.2815 7.29152 11.1078 7.25972 10.9633 7.16911C10.8188 7.07849 10.7146 6.93595 10.672 6.77081L10.6567 6.69414C10.6298 6.50288 10.5482 6.32347 10.4216 6.1776C10.295 6.03173 10.1289 5.92564 9.94333 5.87214L9.84 5.84881C9.67259 5.81914 9.52285 5.72663 9.4214 5.59021C9.31994 5.45379 9.27444 5.28377 9.29419 5.11491C9.31395 4.94605 9.39747 4.79112 9.52768 4.6818C9.65788 4.57248 9.82493 4.51704 9.99466 4.52681ZM10 2.50014C11.0609 2.50014 12.0783 2.92157 12.8284 3.67172C13.5786 4.42186 14 5.43928 14 6.50014C13.9998 6.67006 13.9347 6.8335 13.8181 6.95706C13.7015 7.08061 13.542 7.15497 13.3724 7.16493C13.2028 7.17488 13.0357 7.11969 12.9054 7.01063C12.7751 6.90157 12.6914 6.74687 12.6713 6.57814L12.6667 6.50014C12.6669 5.82309 12.4095 5.17132 11.9467 4.67716C11.4838 4.18301 10.8503 3.88351 10.1747 3.83948L10 3.83348C9.82318 3.83348 9.65361 3.76324 9.52859 3.63821C9.40357 3.51319 9.33333 3.34362 9.33333 3.16681C9.33333 2.99 9.40357 2.82043 9.52859 2.69541C9.65361 2.57038 9.82318 2.50014 10 2.50014Z" fill="white"/>
</svg>
