<svg width="21" height="21" viewBox="0 0 21 21" fill="none" xmlns="http://www.w3.org/2000/svg">
<path d="M5.35705 0.445002C6.50005 1.278 7.39004 2.415 8.15004 3.503L8.59205 4.147L9.00905 4.762C9.21763 5.06673 9.30681 5.43755 9.2596 5.8038C9.21239 6.17005 9.03209 6.50613 8.75305 6.748L6.80205 8.197C6.70779 8.26507 6.64144 8.36503 6.61532 8.47832C6.58921 8.59162 6.6051 8.71054 6.66005 8.813C7.10205 9.616 7.88805 10.812 8.78805 11.712C9.68905 12.612 10.941 13.45 11.8 13.942C11.9077 14.0025 12.0345 14.0194 12.1543 13.9892C12.2741 13.9591 12.3778 13.8842 12.444 13.78L13.714 11.847C13.9475 11.5368 14.292 11.3291 14.6752 11.2672C15.0585 11.2053 15.4508 11.2941 15.77 11.515L16.433 11.974C17.672 12.834 19.003 13.811 20.021 15.114C20.1825 15.3218 20.2852 15.5691 20.3184 15.8302C20.3517 16.0912 20.3143 16.3564 20.21 16.598C19.373 18.551 17.255 20.214 15.052 20.133L14.752 20.116L14.519 20.096L14.261 20.066L13.98 20.028L13.675 19.978C13.6216 19.9684 13.5683 19.9584 13.515 19.948L13.179 19.876C13.1203 19.8631 13.0616 19.8498 13.003 19.836L12.637 19.742L12.252 19.632L11.85 19.502C10.004 18.876 7.66105 17.646 5.25705 15.242C2.85405 12.839 1.62405 10.496 0.998045 8.65L0.868046 8.248L0.758045 7.863L0.664046 7.497L0.586045 7.151C0.563516 7.04264 0.542514 6.93396 0.523046 6.825L0.473046 6.52L0.433045 6.239L0.404046 5.981L0.384045 5.748L0.368046 5.448C0.287046 3.252 1.96805 1.119 3.91205 0.286002C4.14602 0.184969 4.40225 0.146502 4.65558 0.174377C4.90891 0.202252 5.15063 0.295511 5.35705 0.445002ZM13.492 4.04L13.608 4.053C14.336 4.1814 15.0045 4.53694 15.5179 5.06868C16.0314 5.60042 16.3632 6.28104 16.466 7.013C16.5027 7.26618 16.4409 7.52378 16.2934 7.73281C16.146 7.94183 15.924 8.08638 15.6732 8.13673C15.4223 8.18707 15.1618 8.13937 14.945 8.00345C14.7283 7.86753 14.5719 7.65372 14.508 7.406L14.485 7.291C14.4448 7.0041 14.3224 6.73499 14.1325 6.51619C13.9426 6.29738 13.6934 6.13824 13.415 6.058L13.26 6.023C13.0089 5.9785 12.7843 5.83974 12.6321 5.63511C12.48 5.43048 12.4117 5.17544 12.4413 4.92215C12.471 4.66886 12.5963 4.43646 12.7916 4.27248C12.9869 4.10851 13.2375 4.02534 13.492 4.04ZM13.5 1C15.0913 1 16.6175 1.63214 17.7427 2.75736C18.8679 3.88258 19.5 5.4087 19.5 7C19.4998 7.25488 19.4022 7.50003 19.2272 7.68537C19.0522 7.87071 18.8131 7.98224 18.5587 7.99717C18.3042 8.01211 18.0537 7.92933 17.8582 7.76574C17.6628 7.60215 17.5371 7.3701 17.507 7.117L17.5 7C17.5004 5.98442 17.1143 5.00676 16.42 4.26553C15.7258 3.52429 14.7755 3.07505 13.762 3.009L13.5 3C13.2348 3 12.9805 2.89464 12.7929 2.70711C12.6054 2.51957 12.5 2.26522 12.5 2C12.5 1.73479 12.6054 1.48043 12.7929 1.2929C12.9805 1.10536 13.2348 1 13.5 1Z" fill="white"/>
</svg>
