<svg width="24" height="24" viewBox="0 0 24 24" fill="none" xmlns="http://www.w3.org/2000/svg">
<path d="M17.5 4.842C15.976 4.337 14.146 4 12 4C9.855 4 8.024 4.337 6.5 4.842M17.5 4.842C20.521 5.842 22.335 7.502 23 8.5L20.5 11L17.5 9V4.842ZM6.5 4.842C3.479 5.842 1.665 7.502 1 8.5L3.5 11L6.5 9V4.842ZM10 7V10M10 10L4.586 15.414C4.2109 15.789 4.00011 16.2976 4 16.828V18C4 18.5304 4.21071 19.0391 4.58579 19.4142C4.96086 19.7893 5.46957 20 6 20H18C18.5304 20 19.0391 19.7893 19.4142 19.4142C19.7893 19.0391 20 18.5304 20 18V16.828C19.9999 16.2976 19.7891 15.789 19.414 15.414L14 10M10 10H14M14 10V7" stroke="#395319" stroke-width="2" stroke-linecap="round" stroke-linejoin="round"/>
<path d="M12 17C13.1046 17 14 16.1046 14 15C14 13.8954 13.1046 13 12 13C10.8954 13 10 13.8954 10 15C10 16.1046 10.8954 17 12 17Z" stroke="#395319" stroke-width="2" stroke-linecap="round" stroke-linejoin="round"/>
</svg>
