<svg width="21" height="20" viewBox="0 0 21 20" fill="none" xmlns="http://www.w3.org/2000/svg">
<path fill-rule="evenodd" clip-rule="evenodd" d="M8.636 6.40004C8.32582 6.71207 8.32582 7.21601 8.636 7.52804L11.468 10.4L8.636 13.232C8.32582 13.5441 8.32582 14.048 8.636 14.36C8.78621 14.5115 8.99069 14.5967 9.204 14.5967C9.41731 14.5967 9.62179 14.5115 9.772 14.36L13.164 10.968C13.3155 10.8178 13.4006 10.6134 13.4006 10.4C13.4006 10.1867 13.3155 9.98225 13.164 9.83204L9.772 6.40004C9.62179 6.24859 9.41731 6.1634 9.204 6.1634C8.99069 6.1634 8.78621 6.24859 8.636 6.40004Z" fill="#959EAD"/>
</svg>
