<svg width="6" height="9" viewBox="0 0 6 9" fill="none" xmlns="http://www.w3.org/2000/svg">
<path fill-rule="evenodd" clip-rule="evenodd" d="M1.13595 0.400041C0.825776 0.712071 0.825776 1.21601 1.13595 1.52804L3.96795 4.40004L1.13595 7.23204C0.825776 7.54407 0.825776 8.04801 1.13595 8.36004C1.28617 8.51149 1.49064 8.59668 1.70395 8.59668C1.91726 8.59668 2.12174 8.51149 2.27195 8.36004L5.66395 4.96804C5.8154 4.81783 5.90059 4.61335 5.90059 4.40004C5.90059 4.18673 5.8154 3.98225 5.66395 3.83204L2.27195 0.400041C2.12174 0.248591 1.91726 0.163403 1.70395 0.163403C1.49064 0.163403 1.28617 0.248591 1.13595 0.400041Z" fill="white"/>
</svg>
