<svg width="29" height="26" viewBox="0 0 29 26" fill="none" xmlns="http://www.w3.org/2000/svg">
<path d="M27.0313 0.150942C27.2909 0.083792 27.5641 0.0895454 27.8207 0.167571C28.0773 0.245596 28.3074 0.39287 28.4857 0.593199C28.664 0.793527 28.7836 1.03915 28.8314 1.30306C28.8792 1.56697 28.8533 1.83894 28.7565 2.08907L20.0065 24.6932C19.9199 24.9171 19.7795 25.1162 19.5975 25.2727C19.4156 25.4293 19.1978 25.5385 18.9635 25.5908C18.7293 25.643 18.4857 25.6366 18.2545 25.5721C18.0233 25.5076 17.8116 25.3871 17.6381 25.2211L12.7061 20.5034L10.9517 22.2564C10.0242 23.1839 8.43752 22.5276 8.43752 21.2151V16.4201L0.867309 9.17948C0.67948 8.99979 0.543097 8.77315 0.472278 8.52304C0.40146 8.27293 0.39878 8.00843 0.464516 7.75694C0.530253 7.50544 0.662017 7.27609 0.846166 7.09262C1.03031 6.90916 1.26016 6.77824 1.51189 6.71344L27.0313 0.150942ZM23.9484 6.42907L12.2846 16.0643L18.0742 21.603L23.9484 6.42907ZM21.6471 4.54782L4.77856 8.88344L10.1627 14.0314L21.6471 4.5449V4.54782Z" fill="white"/>
</svg>
