<svg width="25" height="24" viewBox="0 0 25 24" fill="none" xmlns="http://www.w3.org/2000/svg">
<path d="M15.5 21H6.5C5.70435 21 4.94129 20.6839 4.37868 20.1213C3.81607 19.5587 3.5 18.7957 3.5 18V17H13.5V19C13.5 19.5304 13.7107 20.0391 14.0858 20.4142C14.4609 20.7893 14.9696 21 15.5 21ZM15.5 21C16.0304 21 16.5391 20.7893 16.9142 20.4142C17.2893 20.0391 17.5 19.5304 17.5 19V5C17.5 4.60444 17.6173 4.21776 17.8371 3.88886C18.0568 3.55996 18.3692 3.30362 18.7346 3.15224C19.1001 3.00087 19.5022 2.96126 19.8902 3.03843C20.2781 3.1156 20.6345 3.30608 20.9142 3.58579C21.1939 3.86549 21.3844 4.22186 21.4616 4.60982C21.5387 4.99778 21.4991 5.39992 21.3478 5.76537C21.1964 6.13082 20.94 6.44318 20.6111 6.66294C20.2822 6.8827 19.8956 7 19.5 7H17.5M19.5 3H8.5C7.70435 3 6.94129 3.31607 6.37868 3.87868C5.81607 4.44129 5.5 5.20435 5.5 6V17M9.5 7H13.5M9.5 11H13.5" stroke="#727272" stroke-width="2" stroke-linecap="round" stroke-linejoin="round"/>
</svg>
