<svg width="30" height="34" viewBox="0 0 30 34" fill="none" xmlns="http://www.w3.org/2000/svg">
<path d="M18.8 0.333252C19.4996 0.333433 20.1814 0.553728 20.7488 0.962931C21.3163 1.37213 21.7406 1.9495 21.9617 2.61325L22.8667 5.33325H28.3333C28.7754 5.33325 29.1993 5.50885 29.5118 5.82141C29.8244 6.13397 30 6.55789 30 6.99992C30 7.44195 29.8244 7.86587 29.5118 8.17843C29.1993 8.49099 28.7754 8.66658 28.3333 8.66658L28.3283 8.78492L26.8833 29.0233C26.7931 30.2843 26.2286 31.4643 25.3034 32.3258C24.3782 33.1874 23.1609 33.6664 21.8967 33.6666H8.10333C6.83909 33.6664 5.62185 33.1874 4.69661 32.3258C3.77138 31.4643 3.20685 30.2843 3.11667 29.0233L1.67167 8.78325C1.66865 8.74443 1.66698 8.70552 1.66667 8.66658C1.22464 8.66658 0.800716 8.49099 0.488155 8.17843C0.175595 7.86587 0 7.44195 0 6.99992C0 6.55789 0.175595 6.13397 0.488155 5.82141C0.800716 5.50885 1.22464 5.33325 1.66667 5.33325H7.13333L8.03833 2.61325C8.2595 1.94923 8.68406 1.37167 9.25183 0.962444C9.8196 0.553216 10.5018 0.333084 11.2017 0.333252H18.8ZM24.995 8.66658H5.005L6.44167 28.7849C6.47159 29.2053 6.65962 29.5987 6.96793 29.8859C7.27624 30.1732 7.68193 30.333 8.10333 30.3333H21.8967C22.3181 30.333 22.7238 30.1732 23.0321 29.8859C23.3404 29.5987 23.5284 29.2053 23.5583 28.7849L24.995 8.66658ZM11.6667 13.6666C12.0749 13.6666 12.4689 13.8165 12.774 14.0878C13.079 14.359 13.2739 14.7328 13.3217 15.1383L13.3333 15.3333V23.6666C13.3329 24.0914 13.1702 24.5 12.8786 24.8089C12.587 25.1178 12.1884 25.3036 11.7643 25.3285C11.3403 25.3534 10.9227 25.2155 10.5969 24.9428C10.2712 24.6702 10.0618 24.2834 10.0117 23.8616L10 23.6666V15.3333C10 14.8912 10.1756 14.4673 10.4882 14.1547C10.8007 13.8422 11.2246 13.6666 11.6667 13.6666ZM18.3333 13.6666C18.7754 13.6666 19.1993 13.8422 19.5118 14.1547C19.8244 14.4673 20 14.8912 20 15.3333V23.6666C20 24.1086 19.8244 24.5325 19.5118 24.8451C19.1993 25.1577 18.7754 25.3333 18.3333 25.3333C17.8913 25.3333 17.4674 25.1577 17.1548 24.8451C16.8423 24.5325 16.6667 24.1086 16.6667 23.6666V15.3333C16.6667 14.8912 16.8423 14.4673 17.1548 14.1547C17.4674 13.8422 17.8913 13.6666 18.3333 13.6666ZM18.8 3.66659H11.2L10.645 5.33325H19.355L18.8 3.66659Z" fill="#727272"/>
</svg>
