<svg width="17" height="17" viewBox="0 0 17 17" fill="none" xmlns="http://www.w3.org/2000/svg">
<path d="M14.65 3.34984C13.436 2.13207 11.8618 1.3379 10.161 1.08503C8.4601 0.832161 6.72302 1.13406 5.20721 1.94598C3.6914 2.75789 2.47754 4.03661 1.74556 5.59259C1.01357 7.14857 0.802415 8.899 1.14339 10.5844C1.48437 12.2698 2.35934 13.8005 3.63859 14.9496C4.91785 16.0987 6.53331 16.805 8.24551 16.9638C9.95772 17.1227 11.6755 16.7256 13.1444 15.8315C14.6132 14.9374 15.7548 13.5938 16.4 11.9998H14.18C13.5619 13.0915 12.6172 13.9621 11.4787 14.4889C10.3401 15.0158 9.06509 15.1726 7.83285 14.9372C6.6006 14.7018 5.47314 14.086 4.60902 13.1765C3.74491 12.2671 3.1876 11.1096 3.01549 9.86692C2.84337 8.62425 3.0651 7.35889 3.6495 6.24878C4.2339 5.13868 5.15156 4.23968 6.27344 3.67821C7.39531 3.11674 8.66496 2.92105 9.90383 3.11865C11.1427 3.31626 12.2885 3.89722 13.18 4.77984L10 7.99984H17V0.999839L14.65 3.34984Z" fill="#395319"/>
</svg>
