<svg width="20" height="20" viewBox="0 0 20 20" fill="none" xmlns="http://www.w3.org/2000/svg">
<path fill-rule="evenodd" clip-rule="evenodd" d="M6.40001 11.864C6.71204 12.1742 7.21598 12.1742 7.52801 11.864L10.4 9.03205L13.232 11.864C13.544 12.1742 14.048 12.1742 14.36 11.864C14.5115 11.7138 14.5966 11.5094 14.5966 11.296C14.5966 11.0827 14.5115 10.8783 14.36 10.728L10.968 7.33605C10.8178 7.1846 10.6133 7.09941 10.4 7.09941C10.1867 7.09941 9.98222 7.1846 9.83201 7.33605L6.40001 10.728C6.24856 10.8783 6.16337 11.0827 6.16337 11.296C6.16337 11.5094 6.24856 11.7138 6.40001 11.864Z" fill="#959EAD"/>
</svg>
