<svg width="42" height="42" viewBox="0 0 42 42" fill="none" xmlns="http://www.w3.org/2000/svg">
<path d="M9.04167 19.2917C8.10208 19.2917 7.29746 18.9568 6.62779 18.2872C5.95926 17.6186 5.625 16.8146 5.625 15.875V9.04167C5.625 8.10208 5.95926 7.29746 6.62779 6.62779C7.29746 5.95926 8.10208 5.625 9.04167 5.625H15.875C16.8146 5.625 17.6192 5.95926 18.2889 6.62779C18.9574 7.29746 19.2917 8.10208 19.2917 9.04167V15.875C19.2917 16.8146 18.9574 17.6186 18.2889 18.2872C17.6192 18.9568 16.8146 19.2917 15.875 19.2917H9.04167ZM9.04167 36.375C8.10208 36.375 7.29746 36.0407 6.62779 35.3722C5.95926 34.7025 5.625 33.8979 5.625 32.9583V26.125C5.625 25.1854 5.95926 24.3808 6.62779 23.7111C7.29746 23.0426 8.10208 22.7083 9.04167 22.7083H15.875C16.8146 22.7083 17.6192 23.0426 18.2889 23.7111C18.9574 24.3808 19.2917 25.1854 19.2917 26.125V32.9583C19.2917 33.8979 18.9574 34.7025 18.2889 35.3722C17.6192 36.0407 16.8146 36.375 15.875 36.375H9.04167ZM26.125 19.2917C25.1854 19.2917 24.3814 18.9568 23.7128 18.2872C23.0432 17.6186 22.7083 16.8146 22.7083 15.875V9.04167C22.7083 8.10208 23.0432 7.29746 23.7128 6.62779C24.3814 5.95926 25.1854 5.625 26.125 5.625H32.9583C33.8979 5.625 34.7025 5.95926 35.3722 6.62779C36.0407 7.29746 36.375 8.10208 36.375 9.04167V15.875C36.375 16.8146 36.0407 17.6186 35.3722 18.2872C34.7025 18.9568 33.8979 19.2917 32.9583 19.2917H26.125ZM26.125 36.375C25.1854 36.375 24.3814 36.0407 23.7128 35.3722C23.0432 34.7025 22.7083 33.8979 22.7083 32.9583V26.125C22.7083 25.1854 23.0432 24.3808 23.7128 23.7111C24.3814 23.0426 25.1854 22.7083 26.125 22.7083H32.9583C33.8979 22.7083 34.7025 23.0426 35.3722 23.7111C36.0407 24.3808 36.375 25.1854 36.375 26.125V32.9583C36.375 33.8979 36.0407 34.7025 35.3722 35.3722C34.7025 36.0407 33.8979 36.375 32.9583 36.375H26.125Z" fill="#395319"/>
</svg>
