<svg width="40" height="41" viewBox="0 0 40 41" fill="none" xmlns="http://www.w3.org/2000/svg">
<path fill-rule="evenodd" clip-rule="evenodd" d="M25.9993 28.4847C26.2425 28.7921 26.3142 28.8999 26.3417 29.1732C26.3605 29.3634 26.3468 29.4722 26.2801 29.6498L24.0167 35.6959C23.9108 35.9443 23.6916 36.2189 23.3731 36.4856H25.8431C25.66 36.3356 25.5424 36.1575 25.4997 35.9452C25.461 35.7512 25.4626 35.6781 25.5084 35.4915L26.0105 34.0556H28.885L29.3327 35.1621C29.3795 35.2778 29.4065 35.3856 29.4182 35.5098C29.4579 35.9232 29.3139 36.2634 28.9577 36.5034H32.8299C32.4499 36.1917 32.1014 35.8655 31.9045 35.4695L29.0773 28.4847H25.9993ZM34.2621 32.7654L31.2192 28.7462L30.9099 28.4847H33.909L35.942 31.523L36.1053 31.4002L37.334 29.7177C37.6362 29.3044 37.5955 28.8245 37.1651 28.4847H39.9994L36.723 32.7644L36.7214 35.8693L37.2989 36.502H33.7777L34.2743 35.8787C34.2743 34.8439 34.2331 33.7969 34.2621 32.7654ZM18.1695 28.4917L20.115 28.4847H22.4777C23.7775 28.4847 24.8409 29.4642 24.8409 30.6611V30.9292C24.8409 32.1261 23.777 33.0391 22.4777 33.0756L21.4001 33.1056C22.2665 32.7387 22.6293 31.8117 22.5209 30.9765C22.4344 30.3064 22.0595 29.662 21.4352 29.6498L21.0414 29.6423V35.6078C21.0414 35.724 21.0633 35.7723 21.1294 35.8744C21.2353 36.0366 21.3762 36.1987 21.5217 36.3609C21.5593 36.4031 21.5975 36.4452 21.6352 36.4874H18.284C18.3343 36.4307 18.3837 36.3731 18.4305 36.314C18.5322 36.1866 18.6223 36.0511 18.6899 35.9002C18.7332 35.8037 18.7546 35.732 18.7546 35.6284V29.22C18.7413 28.8859 18.3811 28.6961 18.1695 28.4917ZM28.4632 33.0142H26.4073L27.404 30.3973L28.4632 33.0142ZM21.8387 8.45447L19.3188 10.7757L19.1931 10.8901L18.3923 11.6287L16.5216 13.3524L16.3975 13.4681H16.3959L15.2151 14.554V14.5559L15.0915 14.6697C14.7374 14.9959 14.3461 15.2635 13.93 15.4749C13.7194 15.5817 13.5041 15.6736 13.2839 15.7514C12.7934 15.9257 12.278 16.0279 11.7591 16.0579C11.4411 16.0776 11.1181 16.0701 10.8016 16.034C10.1168 15.959 9.44475 15.7575 8.83169 15.4299C8.56917 15.2902 8.29953 15.1445 8.07618 14.9402C8.07466 14.9402 8.07466 14.9402 8.07313 14.9388C8.02429 14.8952 7.97545 14.8502 7.92661 14.8033L3.24042 10.487C3.16054 10.4059 3.0888 10.3174 3.02877 10.2227C2.87513 9.98368 2.78711 9.70765 2.78711 9.41005C2.78711 9.36365 2.78864 9.31679 2.79372 9.2718C2.80034 9.20244 2.81153 9.13636 2.82628 9.07168C2.8329 9.04638 2.83951 9.02107 2.84613 8.9967C2.84918 8.98639 2.85223 8.97561 2.85579 8.9653C2.92091 8.76706 3.02724 8.57913 3.17377 8.41088C3.21294 8.3673 3.25364 8.32512 3.29791 8.28294L3.37931 8.20936L8.26697 3.70514H8.269L11.231 0.977105C11.8914 0.368793 12.9435 0.341611 13.6364 0.89884L21.8387 8.45447Z" fill="#0D5BA9"/>
<path fill-rule="evenodd" clip-rule="evenodd" d="M10.8015 31.2577V35.543C10.8015 35.7169 10.8452 35.7478 10.9612 35.8875L11.4944 36.5272H8.94808C9.09104 36.3257 9.23451 36.1242 9.37798 35.9226C9.48889 35.7563 9.5362 35.6996 9.5362 35.5065V29.5194L8.82089 28.4471H11.4593L15.7319 33.5166V29.4768C15.7319 29.2837 15.6907 29.2214 15.5798 29.055C15.4363 28.8535 15.2867 28.6576 15.1438 28.456H17.6876L17.1569 29.0958C17.0409 29.2354 16.9972 29.2664 16.9972 29.4402V36.732C16.0336 36.6153 15.1361 36.3983 14.3384 35.4587L10.8015 31.2577ZM0 28.4471H2.70559L4.97568 34.4445L6.90184 29.4768C6.93644 29.2837 6.90642 29.2214 6.82654 29.055C6.71971 28.8535 6.60574 28.6576 6.49941 28.456H8.5197C8.40014 28.8614 8.22309 29.3067 8.07046 29.7153L5.46154 36.6997C4.74928 36.5689 3.9551 36.3093 3.34103 35.7731C2.87908 35.3696 2.71475 34.9108 2.48682 34.3644L0.304748 29.0419C0.218767 28.8319 0.112945 28.6435 0 28.4471ZM36.2894 12.8049L36.1652 12.9207L30.6655 18.0632L24.8906 23.4644C24.7064 23.6341 24.5136 23.7873 24.3096 23.9256C24.3035 23.9317 24.2953 23.9378 24.2867 23.9439C24.2592 23.9617 24.2312 23.9813 24.2022 23.9992C24.1987 24.002 24.1956 24.0038 24.1926 24.0067C23.3216 24.5808 22.2532 24.9172 21.1019 24.9172C19.6794 24.9172 18.3876 24.4031 17.4322 23.5666C17.4301 23.5652 17.4301 23.5652 17.4286 23.5638C17.3848 23.5291 17.3421 23.4944 17.2999 23.4583L16.3068 22.5435L13.5162 19.9715L12.4545 18.993C12.6061 19.016 12.7592 19.0263 12.9123 19.0263L13.0416 19.0249C13.2191 19.0188 13.3972 18.9996 13.5717 18.9663C13.8571 18.9119 14.1456 18.8219 14.4295 18.6987C15.0395 18.433 15.4943 18.0646 15.7115 17.8696C15.796 17.7928 15.8596 17.7281 15.886 17.6995L18.0325 15.757L18.0401 15.7659L25.4207 9.07724L25.4594 9.03412L29.0446 5.78448C29.5274 5.35004 30.2809 5.29286 30.8288 5.64013L31.6785 6.42279C31.68 6.42279 31.68 6.42419 31.68 6.42419L36.2894 10.6702C36.3301 10.7077 36.3692 10.7466 36.4054 10.7874C36.9268 11.3807 36.8877 12.2552 36.2894 12.8049ZM8.01399 14.8829C8.03383 14.9012 8.05367 14.919 8.07352 14.9368C8.29686 15.1411 8.56803 15.2883 8.83208 15.4284C9.44514 15.7555 10.1172 15.9571 10.8025 16.0321C11.1184 16.0681 11.4415 16.0756 11.7595 16.056C12.2779 16.026 12.7938 15.9238 13.2847 15.7495C13.505 15.6717 13.7197 15.5798 13.9304 15.4729C14.346 15.2616 14.7378 14.994 15.0919 14.6678L15.2155 14.5539V14.552L16.3963 13.4657H16.3979L16.522 13.3504L16.871 13.0289L17.7959 12.1769L18.3927 11.6272L19.1935 10.8881L19.3192 10.7738L24.3961 6.0966L26.4906 4.00688C26.4952 4.00219 26.4983 3.99938 26.5034 3.99469L26.6163 3.89299C27.2553 3.3039 28.2927 3.3039 28.9317 3.89299L30.0784 4.94887H30.0799L30.1176 4.98355C29.6104 4.96106 29.098 5.1293 28.7149 5.4747L24.8351 8.99007L24.796 9.03412L18.0437 15.1547L18.0335 15.1472L15.5467 17.3977L15.5304 17.416C15.5238 17.4235 15.4699 17.4788 15.3803 17.5599C15.1845 17.7356 14.7749 18.0679 14.2275 18.3069C13.9792 18.4147 13.7264 18.493 13.4771 18.5412C13.3285 18.5679 13.1769 18.5862 13.0283 18.5923H12.9159C12.5211 18.5923 12.1329 18.5112 11.761 18.3547L10.8218 17.491L10.5919 17.2805L10.5527 17.2431L10.1157 16.8405L8.01399 14.8829C7.98499 14.8567 7.95599 14.8295 7.92649 14.8018L8.01399 14.8829Z" fill="#EC1F27"/>
<path d="M20.3252 39.0193C20.3252 39.3398 20.1197 39.5001 19.705 39.5001C19.5438 39.5001 19.4379 39.5081 19.3871 39.5221C19.3398 39.5357 19.3148 39.5629 19.3148 39.6046C19.3148 39.644 19.3398 39.6688 19.3901 39.6819C19.441 39.6932 19.5468 39.6988 19.705 39.6988C19.9538 39.6988 20.1243 39.7265 20.2179 39.7846C20.3145 39.8394 20.3624 39.9364 20.3624 40.0775C20.3624 40.235 20.3145 40.3423 20.2148 40.4065C20.1197 40.4698 19.9477 40.5002 19.705 40.5002C19.4563 40.5002 19.2828 40.4698 19.1861 40.4065C19.094 40.3451 19.0447 40.2486 19.0447 40.1164C19.0447 39.9833 19.1017 39.8835 19.2136 39.8207C19.1322 39.7846 19.091 39.7237 19.091 39.6379C19.091 39.5165 19.1708 39.4443 19.3331 39.4223C19.1642 39.3586 19.0813 39.2236 19.0813 39.0193V38.986C19.0813 38.6847 19.3118 38.508 19.705 38.508C19.8215 38.508 19.9248 38.5272 20.0133 38.5628L20.1858 38.4222C20.2362 38.381 20.2591 38.381 20.3084 38.4222L20.3283 38.4414C20.3776 38.4831 20.3776 38.5052 20.3283 38.5497L20.1934 38.6762C20.281 38.7512 20.3252 38.8529 20.3252 38.986V39.0193ZM28.2548 39.0193C28.2548 39.3398 28.0492 39.5001 27.6346 39.5001C27.4733 39.5001 27.367 39.5081 27.3166 39.5221C27.2693 39.5357 27.2444 39.5629 27.2444 39.6046C27.2444 39.644 27.2693 39.6688 27.3197 39.6819C27.3705 39.6932 27.4764 39.6988 27.6346 39.6988C27.8834 39.6988 28.0538 39.7265 28.1474 39.7846C28.2441 39.8394 28.2919 39.9364 28.2919 40.0775C28.2919 40.235 28.2441 40.3423 28.1444 40.4065C28.0492 40.4698 27.8773 40.5002 27.6346 40.5002C27.3858 40.5002 27.2123 40.4698 27.1156 40.4065C27.0231 40.3451 26.9742 40.2486 26.9742 40.1164C26.9742 39.9833 27.0312 39.8835 27.1431 39.8207C27.0617 39.7846 27.02 39.7237 27.02 39.6379C27.02 39.5165 27.0999 39.4443 27.2632 39.4223C27.0943 39.3586 27.0113 39.2236 27.0113 39.0193V38.986C27.0113 38.6847 27.2413 38.508 27.6346 38.508C27.7511 38.508 27.8539 38.5272 27.9434 38.5628L28.1154 38.4222C28.1657 38.381 28.1891 38.381 28.238 38.4222L28.2578 38.4414C28.3072 38.4831 28.3072 38.5052 28.2578 38.5497L28.1225 38.6762C28.2105 38.7512 28.2548 38.8529 28.2548 38.986V39.0193ZM11.5252 40.1314C11.5633 40.1319 11.6015 40.145 11.6295 40.1712C11.6865 40.2237 11.6865 40.3118 11.6295 40.3643C11.6015 40.3906 11.5633 40.4037 11.5252 40.4037H11.5242C11.486 40.4037 11.4479 40.3906 11.4194 40.3643C11.3624 40.3118 11.3624 40.2237 11.4194 40.1712C11.4479 40.145 11.486 40.1314 11.5242 40.1314H11.5252ZM19.4115 39.8671C19.3179 39.9088 19.2706 39.9861 19.2706 40.0934C19.2706 40.2734 19.381 40.3207 19.705 40.3207C20.0169 40.3207 20.1365 40.2734 20.1365 40.0859C20.1365 39.9116 20.0261 39.8811 19.705 39.8811C19.5763 39.8811 19.4776 39.876 19.4115 39.8671ZM27.341 39.8671C27.2474 39.9088 27.2001 39.9861 27.2001 40.0934C27.2001 40.2734 27.3105 40.3207 27.6346 40.3207C27.9459 40.3207 28.066 40.2734 28.066 40.0859C28.066 39.9116 27.9556 39.8811 27.6346 39.8811C27.5054 39.8811 27.4072 39.876 27.341 39.8671ZM30.3341 39.4889C30.3341 39.7954 30.1392 39.9252 29.7057 39.9252C29.3618 39.9252 29.1425 39.7977 29.1425 39.5109C29.1425 39.2236 29.3466 39.1074 29.7551 39.1074H30.1082V38.9415C30.1082 38.754 29.9703 38.6903 29.7154 38.6903C29.5831 38.6903 29.4722 38.7015 29.3852 38.7207C29.3145 38.7343 29.2901 38.7179 29.2901 38.6514V38.6294C29.2901 38.5661 29.3084 38.5497 29.3806 38.5356C29.4788 38.5164 29.5862 38.508 29.7042 38.508C30.1234 38.508 30.3341 38.6514 30.3341 38.9415V39.4889ZM15.8863 39.3455V39.0877C15.8863 38.7015 16.104 38.508 16.5446 38.508C17.0101 38.508 17.1989 38.7095 17.1989 39.0877V39.3455C17.1989 39.7321 16.9811 39.9252 16.5446 39.9252C16.0781 39.9252 15.8863 39.7237 15.8863 39.3455ZM14.5101 39.7485C14.5101 39.6791 14.5335 39.6627 14.6052 39.6773C14.7467 39.7124 14.8942 39.7321 15.0463 39.7321C15.2778 39.7321 15.3735 39.6932 15.3735 39.5746C15.3735 39.4861 15.3226 39.4392 15.1786 39.3759L14.8128 39.2152C14.621 39.1294 14.5335 39.0469 14.5335 38.8557C14.5335 38.6162 14.7024 38.508 15.0646 38.508C15.2061 38.508 15.3287 38.5248 15.4391 38.56C15.5113 38.583 15.5296 38.5989 15.5296 38.6631V38.6875C15.5296 38.7568 15.5022 38.7732 15.433 38.754C15.3165 38.7179 15.1903 38.7015 15.0585 38.7015C14.8403 38.7015 14.7558 38.7456 14.7558 38.8557C14.7558 38.9335 14.8097 38.9944 14.914 39.0385L15.2966 39.1988C15.4991 39.2873 15.5958 39.3731 15.5958 39.5685C15.5958 39.815 15.4162 39.9252 15.029 39.9252C14.8881 39.9252 14.7467 39.9092 14.6052 39.8727C14.5304 39.8539 14.5101 39.8282 14.5101 39.7701V39.7485ZM9.53492 39.4087C9.53492 39.6266 9.63362 39.7293 9.93735 39.7293C10.2401 39.7293 10.3352 39.6295 10.3352 39.4087V38.6237C10.3352 38.5553 10.3566 38.5356 10.4319 38.5356H10.4639C10.5458 38.5356 10.5606 38.5553 10.5606 38.6237V39.4087C10.5606 39.7429 10.3784 39.9252 9.93735 39.9252C9.51966 39.9252 9.31107 39.7541 9.31107 39.4087V38.6237C9.31107 38.5553 9.33091 38.5356 9.40621 38.5356H9.43826C9.51966 38.5356 9.53492 38.5553 9.53492 38.6237V39.4087ZM5.64545 39.3455V39.0877C5.64545 38.702 5.86371 38.508 6.30429 38.508C6.76981 38.508 6.95856 38.7095 6.95856 39.0877V39.3455C6.95856 39.7321 6.74081 39.9252 6.30429 39.9252C5.83776 39.9252 5.64545 39.7237 5.64545 39.3455ZM12.4649 39.0802C12.4649 38.7179 12.677 38.508 13.1329 38.508C13.2326 38.508 13.3186 38.5192 13.3969 38.5441C13.4692 38.5661 13.4875 38.5858 13.4875 38.6486V38.6762C13.4875 38.7456 13.4692 38.7648 13.3969 38.7428C13.3216 38.7179 13.2356 38.7039 13.139 38.7039C12.8027 38.7039 12.6892 38.8252 12.6892 39.083V39.3511C12.6892 39.6299 12.8246 39.7293 13.1573 39.7293C13.259 39.7293 13.3496 39.718 13.428 39.6932C13.4966 39.6716 13.517 39.6932 13.517 39.7626V39.7902C13.517 39.8483 13.4966 39.8699 13.4219 39.8891C13.3374 39.9139 13.2448 39.9252 13.142 39.9252C12.6831 39.9252 12.4649 39.7429 12.4649 39.3534V39.0802ZM2.70685 39.2372C2.70685 39.5582 2.85236 39.7237 3.23342 39.7237C3.39012 39.7237 3.53409 39.6988 3.66637 39.6515C3.73556 39.6266 3.7554 39.644 3.7554 39.7124V39.7457C3.7554 39.8038 3.73862 39.8254 3.66637 39.8558C3.55444 39.9036 3.41148 39.9252 3.23952 39.9252C2.71601 39.9252 2.46875 39.7096 2.46875 39.2372V38.7953C2.46875 38.3177 2.71601 38.0773 3.23342 38.0773C3.38401 38.0773 3.52188 38.1021 3.65111 38.1485C3.72335 38.1734 3.73862 38.1991 3.73862 38.254V38.29C3.73862 38.3589 3.70809 38.3786 3.645 38.3528C3.51934 38.3036 3.3779 38.2788 3.22578 38.2788C2.86202 38.2788 2.70685 38.4414 2.70685 38.7953V39.2372ZM8.04883 39.0802C8.04883 38.7179 8.26048 38.508 8.71684 38.508C8.81655 38.508 8.90253 38.5192 8.98088 38.5441C9.05313 38.5661 9.07144 38.5858 9.07144 38.6486V38.6762C9.07144 38.7456 9.05313 38.7648 8.98088 38.7428C8.90559 38.7179 8.81961 38.7039 8.72294 38.7039C8.38665 38.7039 8.2732 38.8252 8.2732 39.083V39.3511C8.2732 39.6299 8.40802 39.7293 8.74126 39.7293C8.8425 39.7293 8.93306 39.718 9.01141 39.6932C9.0806 39.6716 9.10095 39.6932 9.10095 39.7626V39.7902C9.10095 39.8483 9.0806 39.8699 9.0053 39.8891C8.92085 39.9139 8.82876 39.9252 8.72599 39.9252C8.26709 39.9252 8.04883 39.7429 8.04883 39.3534V39.0802ZM23.014 39.3455V39.0877C23.014 38.702 23.2323 38.508 23.6729 38.508C24.0061 38.508 24.1948 38.6106 24.2793 38.8093C24.3271 38.7901 24.3699 38.7371 24.3699 38.5881C24.3699 38.5469 24.3867 38.5356 24.4375 38.5356H24.4899C24.5403 38.5356 24.5525 38.5469 24.5525 38.5881C24.5525 38.8121 24.4558 38.9194 24.318 38.9583C24.3236 38.9996 24.3271 39.0413 24.3271 39.0877V39.3455C24.3271 39.7321 24.1089 39.9252 23.6729 39.9252C23.2058 39.9252 23.014 39.7237 23.014 39.3455ZM34.6534 39.3455V39.0877C34.6534 38.702 34.8712 38.508 35.3123 38.508C35.6455 38.508 35.8343 38.6106 35.9187 38.8093C35.966 38.7901 36.0093 38.7371 36.0093 38.5881C36.0093 38.5469 36.0261 38.5356 36.0769 38.5356H36.1288C36.1797 38.5356 36.1919 38.5469 36.1919 38.5881C36.1919 38.8121 36.0953 38.9194 35.9574 38.9583C35.963 38.9996 35.966 39.0413 35.966 39.0877V39.3455C35.966 39.7321 35.7483 39.9252 35.3123 39.9252C34.8452 39.9252 34.6534 39.7237 34.6534 39.3455ZM11.5237 38.508C11.9866 38.5089 12.1749 38.7104 12.1749 39.0877V39.3455C12.1749 39.7316 11.9576 39.9242 11.5232 39.9252H11.5206C11.0536 39.9252 10.8618 39.7237 10.8618 39.3455V39.0877C10.8618 38.7015 11.08 38.508 11.5206 38.508H11.5237ZM22.9759 38.3036C22.9759 38.3618 22.954 38.3805 22.8914 38.3805H22.7113V39.3483C22.7113 39.7321 22.4936 39.9252 22.0545 39.9252C21.6027 39.9252 21.3987 39.7321 21.3987 39.3483V39.0905C21.3987 38.7015 21.6042 38.508 22.0189 38.508C22.2493 38.508 22.406 38.5745 22.4875 38.7095V38.3805H22.0789C22.0097 38.3805 21.9945 38.3618 21.9945 38.3036V38.2816C21.9945 38.2235 22.0097 38.2038 22.0789 38.2038H22.4875V38.0524C22.4875 37.9775 22.5012 37.9639 22.5826 37.9639H22.6162C22.6899 37.9639 22.7113 37.9775 22.7113 38.0524V38.2038H22.8914C22.954 38.2038 22.9759 38.2235 22.9759 38.2816V38.3036ZM24.8705 39.8094C24.8705 39.8835 24.8552 39.8975 24.7738 39.8975H24.7413C24.6665 39.8975 24.6446 39.8835 24.6446 39.8094V39.0249C24.6446 38.679 24.8552 38.508 25.2714 38.508C25.7135 38.508 25.8961 38.6903 25.8961 39.0249V39.8094C25.8961 39.8835 25.8809 39.8975 25.7995 39.8975H25.7644C25.683 39.8975 25.6672 39.8835 25.6672 39.8094V39.0249C25.6672 38.8037 25.5756 38.7039 25.2714 38.7039C24.9687 38.7039 24.8705 38.8065 24.8705 39.0249V39.8094ZM30.8774 39.8094C30.8774 39.8835 30.8622 39.8975 30.7808 39.8975H30.7487C30.6734 39.8975 30.652 39.8835 30.652 39.8094V39.0249C30.652 38.679 30.8622 38.508 31.2783 38.508C31.7204 38.508 31.9031 38.6903 31.9031 39.0249V39.8094C31.9031 39.8835 31.8878 39.8975 31.8064 39.8975H31.7713C31.6899 39.8975 31.6746 39.8835 31.6746 39.8094V39.0249C31.6746 38.8037 31.5826 38.7039 31.2783 38.7039C30.9756 38.7039 30.8774 38.8065 30.8774 39.0249V39.8094ZM36.5099 39.8094C36.5099 39.8835 36.4946 39.8975 36.4132 39.8975H36.3807C36.3059 39.8975 36.284 39.8835 36.284 39.8094V39.0249C36.284 38.679 36.4946 38.508 36.9103 38.508C37.3529 38.508 37.5356 38.6903 37.5356 39.0249V39.8094C37.5356 39.8835 37.5203 39.8975 37.4389 39.8975H37.4038C37.3219 39.8975 37.3066 39.8835 37.3066 39.8094V39.0249C37.3066 38.8037 37.2145 38.7039 36.9103 38.7039C36.6081 38.7039 36.5099 38.8065 36.5099 39.0249V39.8094ZM17.7428 39.8094C17.7428 39.8835 17.727 39.8975 17.6461 39.8975H17.6135C17.5382 39.8975 17.5169 39.8835 17.5169 39.8094V39.0249C17.5169 38.679 17.727 38.508 18.1431 38.508C18.5858 38.508 18.7684 38.6903 18.7684 39.0249V39.8094C18.7684 39.8835 18.7531 39.8975 18.6717 39.8975H18.6361C18.5552 39.8975 18.5395 39.8835 18.5395 39.8094V39.0249C18.5395 38.8037 18.4474 38.7039 18.1431 38.7039C17.8409 38.7039 17.7428 38.8065 17.7428 39.0249V39.8094ZM33.0839 38.0524C33.0839 37.9775 33.1038 37.9643 33.179 37.9643H33.2131C33.293 37.9643 33.3083 37.9775 33.3083 38.0524V38.6959C33.3988 38.5717 33.554 38.508 33.7794 38.508C34.1482 38.508 34.3339 38.6683 34.3339 38.9916V39.8094C34.3339 39.8835 34.3187 39.8975 34.2388 39.8975H34.2017C34.1223 39.8975 34.1065 39.8835 34.1065 39.8094V39.0165C34.1065 38.7981 34.0007 38.7039 33.7229 38.7039C33.4339 38.7039 33.3083 38.8093 33.3083 39.0629V39.8094C33.3083 39.8835 33.293 39.8975 33.2131 39.8975H33.179C33.1038 39.8975 33.0839 39.8835 33.0839 39.8094V38.0524ZM4.07491 38.0524C4.07491 37.9775 4.09475 37.9643 4.17004 37.9643H4.20362C4.2835 37.9643 4.29927 37.9775 4.29927 38.0524V38.6959C4.38983 38.5717 4.545 38.508 4.77038 38.508C5.13923 38.508 5.32442 38.6683 5.32442 38.9916V39.8094C5.32442 39.8835 5.30916 39.8975 5.22928 39.8975H5.19265C5.11278 39.8975 5.09751 39.8835 5.09751 39.8094V39.0165C5.09751 38.7981 4.99169 38.7039 4.7134 38.7039C4.42493 38.7039 4.29927 38.8093 4.29927 39.0629V39.8094C4.29927 39.8835 4.2835 39.8975 4.20362 39.8975H4.17004C4.09475 39.8975 4.07491 39.8835 4.07491 39.8094V38.0524ZM28.5956 38.6237C28.5956 38.5553 28.6094 38.5356 28.6908 38.5356H28.7248C28.7981 38.5356 28.82 38.5553 28.82 38.6237V39.8094C28.82 39.8835 28.7981 39.8975 28.7248 39.8975H28.6908C28.6094 39.8975 28.5956 39.8835 28.5956 39.8094V38.6237ZM30.1082 39.2705H29.7581C29.491 39.2705 29.3679 39.3366 29.3679 39.5109C29.3679 39.6684 29.4788 39.7457 29.7042 39.7457C29.9789 39.7457 30.1082 39.6876 30.1082 39.4804V39.2705ZM21.6231 39.3455C21.6231 39.6107 21.7228 39.7293 22.0545 39.7293C22.3816 39.7293 22.4875 39.6107 22.4875 39.3455V39.0877C22.4875 38.8229 22.3816 38.7039 22.0545 38.7039C21.7289 38.7039 21.6231 38.8229 21.6231 39.0877V39.3455ZM16.975 39.0877C16.975 38.8229 16.8718 38.7039 16.5446 38.7039C16.2134 38.7039 16.1101 38.8229 16.1101 39.0877V39.3455C16.1101 39.6102 16.2195 39.7293 16.5446 39.7293C16.8718 39.7293 16.975 39.6102 16.975 39.3455V39.0877ZM6.7342 39.0877C6.7342 38.8224 6.63143 38.7039 6.30429 38.7039C5.97258 38.7039 5.86981 38.8224 5.86981 39.0877V39.3455C5.86981 39.6102 5.97716 39.7293 6.30429 39.7293C6.63143 39.7293 6.7342 39.6102 6.7342 39.3455V39.0877ZM24.1028 39.0877C24.1028 38.8224 24 38.7039 23.6729 38.7039C23.3411 38.7039 23.2384 38.8224 23.2384 39.0877V39.3455C23.2384 39.6102 23.3473 39.7293 23.6729 39.7293C24 39.7293 24.1028 39.6102 24.1028 39.3455V39.0877ZM35.7422 39.0877C35.7422 38.8224 35.6389 38.7039 35.3123 38.7039C34.9806 38.7039 34.8778 38.8224 34.8778 39.0877V39.3455C34.8778 39.6102 34.9867 39.7293 35.3123 39.7293C35.6389 39.7293 35.7422 39.6102 35.7422 39.3455V39.0877ZM11.5206 38.7039C11.1889 38.7039 11.0861 38.8224 11.0861 39.0877V39.3455C11.0861 39.6107 11.195 39.7293 11.5206 39.7293H11.5247C11.8483 39.7283 11.9505 39.6093 11.9505 39.3455V39.0877C11.9505 38.8238 11.8483 38.7048 11.5247 38.7039H11.5206ZM28.0273 38.986C28.0273 38.7901 27.8956 38.6931 27.6346 38.6931C27.367 38.6931 27.2352 38.7901 27.2352 38.986V39.0193C27.2352 39.218 27.3319 39.3178 27.6346 39.3178C27.9368 39.3178 28.0273 39.218 28.0273 39.0193V38.986ZM20.0983 38.986C20.0983 38.7901 19.966 38.6931 19.705 38.6931C19.4379 38.6931 19.3057 38.7901 19.3057 38.986V39.0193C19.3057 39.218 19.4023 39.3178 19.705 39.3178C20.0072 39.3178 20.0983 39.218 20.0983 39.0193V38.986ZM29.7581 38.3805C29.7012 38.3805 29.6951 38.3618 29.6859 38.328C29.6767 38.2511 29.7307 38.2179 29.8212 38.1298C29.8441 38.1077 29.8594 38.0881 29.8594 38.066C29.8594 38.0192 29.835 37.9967 29.8055 37.9943C29.7749 37.9915 29.7154 37.9995 29.6737 38.0192C29.6401 38.0299 29.6137 38.0299 29.5923 37.9887L29.5801 37.9667C29.5633 37.925 29.5923 37.9109 29.6228 37.8978C29.6951 37.8701 29.7429 37.864 29.7994 37.864C29.9164 37.864 30.013 37.925 30.01 38.066C30.01 38.1874 29.835 38.2371 29.8273 38.328C29.8273 38.35 29.8024 38.3758 29.7719 38.3805H29.7581ZM16.333 38.1457C16.4052 38.044 16.4464 38.0107 16.5446 38.0107C16.6443 38.0107 16.6861 38.0384 16.7583 38.1457L16.8718 38.3093C16.9089 38.3589 16.8962 38.373 16.8336 38.373H16.8092C16.7461 38.373 16.7196 38.3618 16.6861 38.3093L16.6169 38.2019C16.5696 38.1237 16.5217 38.1237 16.4744 38.2019L16.4083 38.3093C16.3742 38.3618 16.3467 38.373 16.2841 38.373H16.2577C16.1946 38.373 16.1854 38.3557 16.2195 38.3093L16.333 38.1457ZM11.5232 38.0107C11.6208 38.0112 11.6626 38.0393 11.7338 38.1457L11.8477 38.3093C11.8844 38.3585 11.8722 38.3725 11.8111 38.373H11.7847C11.7216 38.373 11.6956 38.3618 11.662 38.3093L11.5929 38.2015C11.5689 38.163 11.5455 38.1438 11.5221 38.1434H11.5211C11.4977 38.1434 11.4738 38.1626 11.4499 38.2015L11.3838 38.3093C11.3507 38.3613 11.3232 38.3725 11.2611 38.373H11.2337C11.1706 38.373 11.1614 38.3557 11.195 38.3093L11.309 38.1457C11.3807 38.044 11.4224 38.0107 11.5206 38.0107H11.5232ZM28.8536 38.1106C28.8536 38.1846 28.7905 38.2427 28.7096 38.2427C28.6246 38.2427 28.559 38.1846 28.559 38.1106C28.559 38.0356 28.6246 37.9746 28.7096 37.9746C28.7905 37.9746 28.8536 38.0356 28.8536 38.1106ZM17.0976 37.9803C17.0666 38.0248 17.0254 38.0468 16.9684 38.0468H16.9379C16.8687 38.0468 16.8595 38.0328 16.8931 37.9775L17.0193 37.7539C17.058 37.6874 17.0885 37.6714 17.1699 37.6714H17.1989C17.2803 37.6714 17.2925 37.6874 17.2467 37.7511L17.0976 37.9803ZM18.4779 7.17616C18.3477 7.29473 18.134 7.29192 18.0037 7.17148C15.8278 5.15252 12.2756 5.14033 10.0834 7.14289C7.89315 9.14732 7.8784 12.4195 10.0544 14.4389L11.7572 16.0206C11.7684 16.0314 11.7796 16.0431 11.7862 16.0553C11.778 16.0553 11.7699 16.0567 11.7618 16.0567C11.4519 16.0764 11.1385 16.0689 10.8307 16.0356L9.57969 14.8729C7.14477 12.6135 7.15901 8.94908 9.61225 6.70611C12.067 4.46313 16.043 4.47766 18.4779 6.7375L18.483 6.74172C18.6132 6.86217 18.6102 7.05572 18.4779 7.17616ZM13.9474 15.4662C13.9423 15.4694 13.9377 15.4709 13.9326 15.4741C13.7271 15.5777 13.5185 15.6677 13.3033 15.7441L10.9839 13.5902C9.53238 12.2423 9.32531 10.1315 10.4899 8.569C10.5942 8.42934 10.8028 8.39326 10.9544 8.48933C11.108 8.5854 11.1451 8.77755 11.0409 8.91909C10.0574 10.2365 10.2335 12.0183 11.4585 13.1557L13.9474 15.4662ZM18.2825 11.7315L17.8094 12.1669L15.1949 9.73923C14.5574 9.14591 13.5134 9.1431 12.8709 9.73032C12.2283 10.3194 12.2232 11.2792 12.8627 11.8711L14.5472 13.4364C14.678 13.5569 14.678 13.7523 14.5457 13.8723C14.4155 13.9923 14.2033 13.9908 14.0731 13.8709L12.3865 12.3056C11.4896 11.4714 11.4942 10.1207 12.3992 9.29307C13.3048 8.46543 14.7726 8.47105 15.6696 9.30525L18.2825 11.7315ZM16.8845 13.0189L16.4118 13.4547L13.7907 11.0224C13.6605 10.9024 13.662 10.707 13.7922 10.5866C13.9245 10.4666 14.1367 10.468 14.2654 10.588L16.8845 13.0189ZM19.6816 10.4422L19.3214 10.7745L19.209 10.8766L16.5991 8.45465C15.6304 7.55624 14.2165 7.24084 12.9065 7.63123C12.732 7.68372 12.5427 7.59514 12.4857 7.43486C12.4288 7.27224 12.5249 7.0979 12.7014 7.04541C14.2506 6.58285 15.9275 6.95683 17.0742 8.02068L19.6816 10.4422ZM21.0812 9.15341L20.6081 9.58879L19.7778 8.81973C19.6475 8.69788 19.6491 8.50292 19.7793 8.38388C19.9116 8.26391 20.1222 8.26391 20.2525 8.38576L21.0812 9.15341Z" fill="#00A0DD" stroke="#00A0DD" stroke-width="0.0677419" stroke-miterlimit="10"/>
</svg>
