<svg width="35" height="36" viewBox="0 0 35 36" fill="none" xmlns="http://www.w3.org/2000/svg">
<path d="M5.68734 8.86103L7.52603 22.1082C7.66328 23.0971 8.50871 23.8333 9.50704 23.8333L26.8051 23.8333C27.8035 23.8333 28.6489 23.0971 28.7861 22.1082L30.388 10.5673C30.5132 9.66547 29.8127 8.86103 28.9023 8.86103L5.68734 8.86103ZM5.68734 8.86103L5.21698 5.16415C5.08988 4.16523 4.23994 3.41658 3.23297 3.41658H2.9165" stroke="#FFFFFE" stroke-width="1.5"/>
<path d="M13.125 30.3958C13.125 29.1876 12.1456 28.2083 10.9375 28.2083C9.72938 28.2083 8.75 29.1876 8.75 30.3958C8.75 31.6039 9.72938 32.5833 10.9375 32.5833C12.1456 32.5833 13.125 31.6039 13.125 30.3958Z" stroke="#FFFFFE" stroke-width="1.5"/>
<path d="M27.708 30.3958C27.708 29.1876 26.7286 28.2083 25.5205 28.2083C24.3124 28.2083 23.333 29.1876 23.333 30.3958C23.333 31.6039 24.3124 32.5833 25.5205 32.5833C26.7286 32.5833 27.708 31.6039 27.708 30.3958Z" stroke="#FFFFFE" stroke-width="1.5"/>
</svg>
