<svg width="60" height="60" viewBox="0 0 60 60" fill="none" xmlns="http://www.w3.org/2000/svg">
<path d="M30 47.5L20.075 53.45C19.2973 53.9172 18.4072 54.164 17.5 54.164C16.5928 54.164 15.7027 53.9172 14.925 53.45L7.425 48.95C6.68689 48.5065 6.07582 47.88 5.65097 47.131C5.22612 46.3821 5.00189 45.5361 5 44.675V36.575C5.00189 35.7139 5.22612 34.8679 5.65097 34.119C6.07582 33.37 6.68689 32.7435 7.425 32.3L17.5 26.25L30 33.75M30 47.5V33.75M30 47.5L39.925 53.45C40.7027 53.9172 41.5928 54.164 42.5 54.164C43.4072 54.164 44.2973 53.9172 45.075 53.45L52.575 48.95C53.3131 48.5065 53.9242 47.88 54.349 47.131C54.7739 46.3821 54.9981 45.5361 55 44.675V36.575C54.9981 35.7139 54.7739 34.8679 54.349 34.119C53.9242 33.37 53.3131 32.7435 52.575 32.3L42.5 26.25L30 33.75M30 33.75L17.5 41.25M30 33.75L42.5 41.25M17.5 41.25L5.65 34.125M17.5 41.25V54.175M42.5 41.25L54.35 34.125M42.5 41.25V54.175" stroke="#3DAD91" stroke-width="2.91667" stroke-linecap="round" stroke-linejoin="round"/>
<path d="M30 33.75L17.5 26.25V15.325C17.5019 14.4639 17.7261 13.6179 18.151 12.869C18.5758 12.12 19.1869 11.4934 19.925 11.05L27.425 6.54999C28.2027 6.08277 29.0928 5.83594 30 5.83594C30.9072 5.83594 31.7973 6.08277 32.575 6.54999L40.075 11.05C40.8131 11.4934 41.4242 12.12 41.849 12.869C42.2739 13.6179 42.4981 14.4639 42.5 15.325V26.25L30 33.75ZM30 33.75V20M30 20L18.15 12.875M30 20L41.85 12.875" stroke="#3DAD91" stroke-width="2.91667" stroke-linecap="round" stroke-linejoin="round"/>
</svg>
