<svg width="88" height="17" viewBox="0 0 88 17" fill="none" xmlns="http://www.w3.org/2000/svg">
<path d="M10.1375 12.887L8.39452 12.845L8.49952 15.68L8.35252 15.869L6.16852 16.016L6.02152 15.848L6.08452 12.824H2.72452L0.897517 12.887L0.708517 12.635V10.871L5.85352 3.374H8.41552L8.35252 10.682H10.0955L10.2635 10.934L10.1375 12.887ZM3.10252 10.682H6.12652V6.545H5.93752L3.10252 10.682ZM26.348 0.707L26.18 2.828L23.639 2.702H22.799L22.694 9.716L22.82 14H19.964L20.111 9.968L20.006 2.702H19.166L16.583 2.828L16.394 2.597L16.583 0.475999H26.18L26.348 0.707ZM37.8546 6.419C38.9326 6.419 39.7796 6.769 40.3956 7.469C41.0256 8.155 41.3406 9.023 41.3406 10.073C41.3406 10.829 41.1656 11.522 40.8156 12.152C40.4796 12.782 39.9756 13.286 39.3036 13.664C38.6316 14.028 37.8266 14.21 36.8886 14.21C35.5026 14.21 34.4386 13.797 33.6966 12.971C32.9546 12.131 32.5836 10.969 32.5836 9.485C32.5836 7.777 33.1156 6.23 34.1796 4.844C35.2436 3.458 36.7486 2.338 38.6946 1.484H38.8416L40.7526 2.723V2.996C39.2826 3.556 38.1346 4.13 37.3086 4.718C36.4966 5.306 35.9156 6.006 35.5656 6.818L35.7336 7.007C36.3636 6.615 37.0706 6.419 37.8546 6.419ZM37.0146 12.383C37.5886 12.383 38.0296 12.215 38.3376 11.879C38.6596 11.529 38.8206 11.039 38.8206 10.409C38.8206 9.751 38.6666 9.247 38.3586 8.897C38.0646 8.547 37.6236 8.372 37.0356 8.372C36.4196 8.372 35.7826 8.582 35.1246 9.002V9.443C35.1246 10.437 35.2646 11.179 35.5446 11.669C35.8386 12.145 36.3286 12.383 37.0146 12.383ZM51.5759 3.227C52.6679 3.227 53.5499 3.493 54.2219 4.025C54.8939 4.557 55.2299 5.25 55.2299 6.104C55.2299 6.678 55.0689 7.238 54.7469 7.784C54.4249 8.316 53.9209 8.771 53.2349 9.149V9.254C54.7609 9.688 55.5239 10.619 55.5239 12.047C55.5239 12.817 55.2999 13.503 54.8519 14.105C54.4179 14.707 53.8019 15.169 53.0039 15.491C52.2059 15.827 51.2889 15.995 50.2529 15.995C49.5109 15.995 48.7549 15.925 47.9849 15.785L47.8379 13.622L48.0269 13.433C48.8529 13.727 49.6299 13.874 50.3579 13.874C51.1419 13.874 51.7509 13.72 52.1849 13.412C52.6329 13.104 52.8569 12.67 52.8569 12.11C52.8569 11.648 52.6959 11.291 52.3739 11.039C52.0519 10.773 51.5759 10.633 50.9459 10.619H49.4759L49.3289 10.43L49.4129 8.519L50.3369 8.477C50.8689 8.463 51.3449 8.295 51.7649 7.973C52.1849 7.637 52.3949 7.217 52.3949 6.713C52.3949 6.335 52.2689 6.041 52.0169 5.831C51.7649 5.621 51.4149 5.516 50.9669 5.516C50.5749 5.516 50.1759 5.6 49.7699 5.768C49.3779 5.922 48.9509 6.167 48.4889 6.503H48.1949L47.7749 4.466C48.9789 3.64 50.2459 3.227 51.5759 3.227ZM71.7289 11.648L71.8969 11.879L71.7079 14H63.2239L63.3709 9.968L63.2239 0.475999H71.7919L71.9599 0.707L71.7499 2.828L68.5159 2.723L66.0799 2.744L66.0169 5.999L68.3479 6.041L70.5529 5.978L70.7209 6.188L70.5319 8.309L68.1379 8.246L65.9749 8.267L65.9539 9.716L66.0169 11.753L68.3899 11.774L71.7289 11.648ZM84.3098 0.308C85.6258 0.308 86.8088 0.581 87.8588 1.127L87.3548 3.5L87.1238 3.605C86.7038 3.311 86.2418 3.08 85.7378 2.912C85.2338 2.744 84.7158 2.66 84.1838 2.66C81.9578 2.66 80.8448 4.123 80.8448 7.049C80.8448 8.631 81.1318 9.821 81.7058 10.619C82.2938 11.403 83.1478 11.795 84.2678 11.795C84.7858 11.795 85.3178 11.718 85.8638 11.564C86.4238 11.396 86.9278 11.172 87.3758 10.892L87.6278 11.039L87.3968 13.454C86.3328 13.944 85.2128 14.189 84.0368 14.189C82.0208 14.189 80.4808 13.601 79.4168 12.425C78.3668 11.249 77.8418 9.562 77.8418 7.364C77.8418 5.124 78.4018 3.388 79.5218 2.156C80.6558 0.924 82.2518 0.308 84.3098 0.308Z" fill="white"/>
</svg>
