<svg width="16" height="16" viewBox="0 0 16 16" fill="none" xmlns="http://www.w3.org/2000/svg">
<path fill-rule="evenodd" clip-rule="evenodd" d="M12.8753 12.4013L15.215 14.7403C15.865 15.3901 14.8902 16.3652 14.2402 15.7153L11.9003 13.3761C9.08951 15.6943 4.94292 15.5172 2.33737 12.9116C-0.444489 10.1298 -0.444489 5.61948 2.33737 2.83762C5.11924 0.0557551 9.62953 0.0557551 12.4114 2.83762C15.0172 5.44341 15.1941 9.5905 12.8753 12.4013ZM11.4365 3.81252C9.19305 1.56908 5.55572 1.56908 3.31228 3.81252C1.06884 6.05596 1.06884 9.69329 3.31228 11.9367C5.55572 14.1802 9.19305 14.1802 11.4365 11.9367C13.6799 9.69329 13.6799 6.05596 11.4365 3.81252Z" fill="white"/>
</svg>
