<svg width="58" height="38" viewBox="0 0 58 38" fill="none" xmlns="http://www.w3.org/2000/svg">
<rect width="58" height="38" rx="4" fill="#FFFFFE"/>
<path d="M27 21L38 10M27 21L30.5 28C30.5439 28.0957 30.6143 28.1769 30.703 28.2338C30.7916 28.2906 30.8947 28.3209 31 28.3209C31.1053 28.3209 31.2084 28.2906 31.2971 28.2338C31.3857 28.1769 31.4561 28.0957 31.5 28L38 10M27 21L20 17.5C19.9043 17.4561 19.8231 17.3857 19.7663 17.2971C19.7094 17.2084 19.6791 17.1053 19.6791 17C19.6791 16.8947 19.7094 16.7916 19.7663 16.7029C19.8231 16.6143 19.9043 16.5439 20 16.5L38 10" stroke="#1D2E04" stroke-width="2" stroke-linecap="round" stroke-linejoin="round"/>
</svg>
