<svg width="20" height="20" viewBox="0 0 20 20" fill="none" xmlns="http://www.w3.org/2000/svg">
<g id="Icon/Glyph/25/Chevron/Down">
<g id="iconspace_Down_25px">
<g id="angle-down">
<path id="Path" fill-rule="evenodd" clip-rule="evenodd" d="M13.6 8.13602C13.2879 7.82584 12.784 7.82584 12.472 8.13602L9.59996 10.968L6.76796 8.13602C6.45593 7.82584 5.95199 7.82584 5.63996 8.13602C5.48851 8.28623 5.40332 8.49071 5.40332 8.70402C5.40332 8.91733 5.48851 9.1218 5.63996 9.27202L9.03196 12.664C9.18217 12.8155 9.38665 12.9007 9.59996 12.9007C9.81327 12.9007 10.0177 12.8155 10.168 12.664L13.6 9.27202C13.7514 9.1218 13.8366 8.91733 13.8366 8.70402C13.8366 8.49071 13.7514 8.28623 13.6 8.13602V8.13602Z" fill="#FFFFFE"/>
</g>
</g>
</g>
</svg>
