<svg width="13" height="15" viewBox="0 0 13 15" fill="none" xmlns="http://www.w3.org/2000/svg">
<path d="M0.833325 7.50004C0.833325 7.6879 0.907952 7.86807 1.04079 8.00091C1.17363 8.13375 1.3538 8.20837 1.54166 8.20837L6.91791 8.20837L5.28874 9.83046C5.2227 9.8965 5.17031 9.97491 5.13457 10.0612C5.09882 10.1475 5.08043 10.24 5.08043 10.3334C5.08043 10.4268 5.09882 10.5193 5.13457 10.6056C5.17031 10.6918 5.2227 10.7702 5.28874 10.8363C5.35478 10.9023 5.43319 10.9547 5.51948 10.9905C5.60577 11.0262 5.69826 11.0446 5.79166 11.0446C5.88506 11.0446 5.97754 11.0262 6.06383 10.9905C6.15013 10.9547 6.22853 10.9023 6.29457 10.8363L9.12791 8.00296C9.19239 7.93559 9.24294 7.85616 9.27666 7.76921C9.3475 7.59676 9.3475 7.40333 9.27666 7.23087C9.24294 7.14393 9.19239 7.06449 9.12791 6.99712L6.29457 4.16379C6.22873 4.0974 6.15038 4.0447 6.06407 4.00874C5.97775 3.97278 5.88517 3.95427 5.79166 3.95427C5.69815 3.95427 5.60557 3.97278 5.51925 4.00874C5.43293 4.0447 5.35459 4.0974 5.28874 4.16379C5.22235 4.22964 5.16965 4.30798 5.13369 4.3943C5.09773 4.48062 5.07922 4.5732 5.07922 4.66671C5.07922 4.76022 5.09773 4.8528 5.13369 4.93912C5.16965 5.02543 5.22235 5.10378 5.28874 5.16963L6.91791 6.79171L1.54166 6.79171C1.3538 6.79171 1.17363 6.86634 1.04079 6.99917C0.907952 7.13201 0.833325 7.31218 0.833325 7.50004ZM2.95833 14.5834L10.0417 14.5834C10.6052 14.5834 11.1457 14.3595 11.5443 13.961C11.9428 13.5625 12.1667 13.022 12.1667 12.4584L12.1667 2.54171C12.1667 1.97812 11.9428 1.43762 11.5443 1.03911C11.1457 0.640592 10.6052 0.416709 10.0417 0.416709L2.95833 0.416709C2.39474 0.416709 1.85424 0.640592 1.45572 1.03911C1.05721 1.43762 0.833325 1.97812 0.833325 2.54171V4.66671C0.833325 4.85457 0.907952 5.03474 1.04079 5.16758C1.17363 5.30041 1.3538 5.37504 1.54166 5.37504C1.72952 5.37504 1.90969 5.30041 2.04253 5.16758C2.17536 5.03474 2.24999 4.85457 2.24999 4.66671V2.54171C2.24999 2.35385 2.32462 2.17368 2.45746 2.04084C2.5903 1.908 2.77046 1.83338 2.95833 1.83338L10.0417 1.83338C10.2295 1.83338 10.4097 1.908 10.5425 2.04084C10.6754 2.17368 10.75 2.35385 10.75 2.54171L10.75 12.4584C10.75 12.6462 10.6754 12.8264 10.5425 12.9592C10.4097 13.0921 10.2295 13.1667 10.0417 13.1667L2.95833 13.1667C2.77046 13.1667 2.5903 13.0921 2.45746 12.9592C2.32462 12.8264 2.24999 12.6462 2.24999 12.4584V10.3334C2.24999 10.1455 2.17536 9.96535 2.04253 9.83251C1.90969 9.69967 1.72952 9.62504 1.54166 9.62504C1.3538 9.62504 1.17363 9.69967 1.04079 9.83251C0.907952 9.96535 0.833325 10.1455 0.833325 10.3334V12.4584C0.833325 13.022 1.05721 13.5625 1.45572 13.961C1.85424 14.3595 2.39474 14.5834 2.95833 14.5834Z" fill="#2F3235"/>
</svg>
