<svg width="50" height="19" viewBox="0 0 50 19" fill="none" xmlns="http://www.w3.org/2000/svg">
<path d="M31.0714 10.7143V9.5C31.0714 9.17795 30.9435 8.86909 30.7158 8.64137C30.488 8.41365 30.1792 8.28571 29.8571 8.28571H17.7143C17.3922 8.28571 17.0834 8.41365 16.8557 8.64137C16.6279 8.86909 16.5 9.17795 16.5 9.5V16.7857C16.5 17.1078 16.6279 17.4166 16.8557 17.6443C17.0834 17.8721 17.3922 18 17.7143 18H29.8571C30.1792 18 30.488 17.8721 30.7158 17.6443C30.9435 17.4166 31.0714 17.1078 31.0714 16.7857V15.5714M31.0714 10.7143H26.2143C25.5702 10.7143 24.9525 10.9702 24.497 11.4256C24.0416 11.881 23.7857 12.4988 23.7857 13.1429C23.7857 13.787 24.0416 14.4047 24.497 14.8601C24.9525 15.3156 25.5702 15.5714 26.2143 15.5714H31.0714M31.0714 10.7143C31.7155 10.7143 32.3332 10.9702 32.7887 11.4256C33.2441 11.881 33.5 12.4988 33.5 13.1429C33.5 13.787 33.2441 14.4047 32.7887 14.8601C32.3332 15.3156 31.7155 15.5714 31.0714 15.5714M20.1429 8.28571V4.64286C20.1429 3.67671 20.5267 2.75014 21.2098 2.06697C21.893 1.3838 22.8196 1 23.7857 1C24.7519 1 25.6784 1.3838 26.3616 2.06697C27.0448 2.75014 27.4286 3.67671 27.4286 4.64286V8.28571M30.4643 13.1429H31.6786M28.0357 13.1429H29.25M25.6071 13.1429H26.8214" stroke="white"/>
</svg>
