<svg width="24" height="24" viewBox="0 0 24 24" fill="none" xmlns="http://www.w3.org/2000/svg">
<path fill-rule="evenodd" clip-rule="evenodd" d="M9.76317 7.68003C9.39096 8.05446 9.39096 8.65919 9.76317 9.03362L13.1616 12.48L9.76317 15.8784C9.39096 16.2529 9.39096 16.8576 9.76317 17.232C9.94343 17.4138 10.1888 17.516 10.4448 17.516C10.7007 17.516 10.9461 17.4138 11.1264 17.232L15.1968 13.1616C15.3785 12.9814 15.4807 12.736 15.4807 12.48C15.4807 12.2241 15.3785 11.9787 15.1968 11.7984L11.1264 7.68003C10.9461 7.49829 10.7007 7.39606 10.4448 7.39606C10.1888 7.39606 9.94343 7.49829 9.76317 7.68003Z" fill="#919EAB"/>
</svg>
