<svg width="35" height="35" viewBox="0 0 35 35" fill="none" xmlns="http://www.w3.org/2000/svg">
<path d="M5.68749 8.36103L7.52618 21.6082C7.66343 22.5971 8.50887 23.3333 9.50719 23.3333L26.8053 23.3333C27.8036 23.3333 28.649 22.5971 28.7863 21.6082L30.3882 10.0673C30.5133 9.16547 29.8128 8.36103 28.9024 8.36103L5.68749 8.36103ZM5.68749 8.36103L5.21713 4.66415C5.09003 3.66523 4.2401 2.91658 3.23312 2.91658H2.91666" stroke="#2F3235" stroke-width="1.5"/>
<path d="M13.125 29.8958C13.125 28.6876 12.1456 27.7083 10.9375 27.7083C9.72938 27.7083 8.75 28.6876 8.75 29.8958C8.75 31.1039 9.72938 32.0833 10.9375 32.0833C12.1456 32.0833 13.125 31.1039 13.125 29.8958Z" stroke="#2F3235" stroke-width="1.5"/>
<path d="M27.7083 29.8958C27.7083 28.6876 26.729 27.7083 25.5208 27.7083C24.3127 27.7083 23.3333 28.6876 23.3333 29.8958C23.3333 31.1039 24.3127 32.0833 25.5208 32.0833C26.729 32.0833 27.7083 31.1039 27.7083 29.8958Z" stroke="#2F3235" stroke-width="1.5"/>
</svg>
