<svg width="14" height="8" viewBox="0 0 14 8" fill="none" xmlns="http://www.w3.org/2000/svg">
<path fill-rule="evenodd" clip-rule="evenodd" d="M7.7071 7.70701C7.51957 7.89448 7.26526 7.99979 7.0001 7.99979C6.73493 7.99979 6.48063 7.89448 6.2931 7.70701L0.636099 2.05001C0.540589 1.95776 0.464406 1.84742 0.411997 1.72541C0.359588 1.60341 0.332002 1.47219 0.330848 1.33941C0.329694 1.20663 0.354996 1.07495 0.405277 0.952054C0.455558 0.829157 0.529811 0.717505 0.623704 0.623612C0.717597 0.529719 0.829248 0.455466 0.952145 0.405185C1.07504 0.354904 1.20672 0.329603 1.3395 0.330757C1.47228 0.331911 1.6035 0.359497 1.7255 0.411906C1.84751 0.464315 1.95785 0.540497 2.0501 0.636007L7.0001 5.58601L11.9501 0.636007C12.1387 0.453849 12.3913 0.353055 12.6535 0.355333C12.9157 0.357611 13.1665 0.46278 13.3519 0.648188C13.5373 0.833596 13.6425 1.08441 13.6448 1.34661C13.6471 1.6088 13.5463 1.86141 13.3641 2.05001L7.7071 7.70701Z" fill="#033A67"/>
</svg>
