<svg width="35" height="35" viewBox="0 0 35 35" fill="none" xmlns="http://www.w3.org/2000/svg">
<path d="M17.5 0.84375C8.31584 0.84375 0.84375 8.31584 0.84375 17.5C0.84375 26.6842 8.31584 34.1562 17.5 34.1562C26.6842 34.1562 34.1562 26.6842 34.1562 17.5C34.1562 8.31584 26.6842 0.84375 17.5 0.84375ZM27.1094 15.43C27.1094 15.6131 27.0366 15.7886 26.9072 15.9181C26.7777 16.0475 26.6022 16.1203 26.4191 16.1203H21.6512C21.5147 16.1205 21.3811 16.0801 21.2675 16.0043C21.1539 15.9285 21.0654 15.8207 21.0131 15.6945C20.9609 15.5683 20.9473 15.4295 20.9741 15.2956C21.0009 15.1616 21.0668 15.0387 21.1636 14.9423L22.9389 13.167L22.4905 12.6457C21.6883 11.8129 20.6924 11.192 19.5916 10.8383C18.4908 10.4845 17.3195 10.4091 16.1825 10.6187C15.0454 10.8283 13.978 11.3164 13.0757 12.0394C12.1734 12.7623 11.4643 13.6976 11.0118 14.7616C10.5593 15.8256 10.3776 16.9852 10.4828 18.1366C10.5879 19.288 10.9768 20.3954 11.6146 21.3598C12.2524 22.3242 13.1192 23.1155 14.1376 23.663C15.156 24.2105 16.2941 24.4971 17.4504 24.4972C18.8973 24.4959 20.3085 24.0468 21.4902 23.2117C22.6718 22.3766 23.5661 21.1962 24.0504 19.8327C24.1065 19.6739 24.1933 19.5277 24.3059 19.4025C24.4185 19.2772 24.5547 19.1754 24.7066 19.1028C24.8586 19.0302 25.0234 18.9882 25.1915 18.9793C25.3597 18.9703 25.528 18.9946 25.6868 19.0507C25.8456 19.1068 25.9918 19.1936 26.117 19.3062C26.2422 19.4188 26.3441 19.555 26.4167 19.707C26.4893 19.8589 26.5313 20.0237 26.5402 20.1919C26.5491 20.36 26.5249 20.5283 26.4688 20.6871C25.8848 22.3398 24.8577 23.8001 23.4998 24.9086C22.142 26.017 20.5055 26.7308 18.7694 26.972C17.0332 27.2132 15.2641 26.9725 13.6555 26.2762C12.0469 25.5799 10.6607 24.4548 9.64834 23.0239C8.63596 21.593 8.03642 19.9113 7.91523 18.1627C7.79404 16.414 8.15587 14.6657 8.96117 13.1088C9.76647 11.552 10.9843 10.2464 12.4814 9.33486C13.9786 8.42332 15.6975 7.94088 17.4504 7.94027C18.744 7.93533 20.0249 8.1953 21.2143 8.70418C22.4036 9.21305 23.4762 9.96005 24.3659 10.8992L24.4107 10.9488L24.7559 11.3492L25.9314 10.1737C25.994 10.1096 26.0688 10.0586 26.1512 10.0237C26.2337 9.9888 26.3223 9.97063 26.4119 9.97025C26.503 9.96951 26.5934 9.98685 26.6778 10.0213C26.7622 10.0557 26.839 10.1065 26.9036 10.1708C26.9683 10.235 27.0195 10.3115 27.0544 10.3957C27.0893 10.4799 27.1072 10.5702 27.107 10.6613L27.1094 15.43Z" fill="#033A67"/>
</svg>
