<svg width="33" height="29" viewBox="0 0 33 29" fill="none" xmlns="http://www.w3.org/2000/svg">
<path d="M17.0219 1.1562C18.0764 0.167776 19.8035 0.915705 19.8035 2.36135V26.636C19.8035 28.0816 18.0778 28.8296 17.0219 27.8411L10.498 21.7282C10.0697 21.3268 9.50466 21.1034 8.91761 21.1032H4.93747C3.79845 21.1032 2.7061 20.6507 1.90069 19.8453C1.09529 19.0399 0.642822 17.9475 0.642822 16.8085V12.1941C0.642822 11.0551 1.09529 9.96273 1.90069 9.15732C2.7061 8.35192 3.79845 7.89945 4.93747 7.89945H8.91629C9.50432 7.89945 10.0699 7.67481 10.498 7.27442L17.0219 1.1562ZM26.601 2.85028C26.7983 2.67691 27.0564 2.58899 27.3186 2.60584C27.5808 2.62269 27.8255 2.74293 27.999 2.94013C30.813 6.13291 32.363 10.2441 32.3571 14.5C32.3571 18.9294 30.7106 22.9756 27.999 26.0585C27.9145 26.1607 27.8103 26.2449 27.6926 26.3061C27.5749 26.3673 27.4461 26.4042 27.3138 26.4147C27.1816 26.4252 27.0486 26.409 26.9227 26.3672C26.7969 26.3253 26.6807 26.2586 26.581 26.171C26.4814 26.0834 26.4004 25.9767 26.3428 25.8573C26.2851 25.7378 26.2521 25.608 26.2456 25.4755C26.239 25.343 26.2592 25.2105 26.3048 25.086C26.3504 24.9614 26.4206 24.8473 26.5111 24.7503C29.0067 21.9195 30.3809 18.2738 30.375 14.5C30.3812 10.7262 29.0069 7.08036 26.5111 4.24967C26.4251 4.15191 26.3591 4.03815 26.3171 3.9149C26.275 3.79165 26.2577 3.66131 26.266 3.53135C26.2744 3.40139 26.3082 3.27434 26.3657 3.15748C26.4232 3.04061 26.5031 2.93622 26.601 2.85028ZM24.895 6.97181C24.7373 6.76153 24.5025 6.62252 24.2423 6.58534C23.9821 6.54817 23.7178 6.61589 23.5075 6.7736C23.2972 6.9313 23.1582 7.16609 23.121 7.42629C23.0839 7.6865 23.1516 7.95082 23.3093 8.1611C24.6827 9.98867 25.4235 12.2139 25.4196 14.5C25.4196 16.8786 24.6347 19.0721 23.3093 20.8389C23.2312 20.943 23.1744 21.0615 23.1421 21.1876C23.1098 21.3136 23.1026 21.4448 23.121 21.5737C23.1394 21.7025 23.183 21.8265 23.2494 21.9385C23.3157 22.0505 23.4034 22.1483 23.5075 22.2264C23.6116 22.3045 23.7301 22.3613 23.8562 22.3936C23.9823 22.4259 24.1135 22.433 24.2423 22.4146C24.3711 22.3962 24.4951 22.3526 24.6071 22.2863C24.7191 22.22 24.8169 22.1323 24.895 22.0282C26.5259 19.8575 27.4058 17.215 27.4018 14.5C27.4059 11.785 26.5259 9.1424 24.895 6.97181Z" fill="#033A67"/>
</svg>
