<svg width="20" height="20" viewBox="0 0 20 20" fill="none" xmlns="http://www.w3.org/2000/svg">
<path d="M18.4863 9.86327L10.9394 2.3203L10.4336 1.81444C10.3183 1.69994 10.1625 1.63568 9.99999 1.63568C9.83752 1.63568 9.68165 1.69994 9.56639 1.81444L1.51366 9.86327C1.39556 9.98091 1.30222 10.121 1.23915 10.2753C1.17609 10.4296 1.14458 10.595 1.14647 10.7617C1.15429 11.4492 1.72655 11.998 2.41405 11.998H3.24413V18.3594H16.7558V11.998H17.6035C17.9375 11.998 18.2519 11.8672 18.4883 11.6308C18.6046 11.5149 18.6968 11.3769 18.7595 11.2251C18.8222 11.0732 18.8542 10.9104 18.8535 10.7461C18.8535 10.4141 18.7226 10.0996 18.4863 9.86327ZM11.0937 16.9531H8.90624V12.9687H11.0937V16.9531ZM15.3496 10.5918V16.9531H12.3437V12.5C12.3437 12.0683 11.9941 11.7187 11.5625 11.7187H8.43749C8.00585 11.7187 7.65624 12.0683 7.65624 12.5V16.9531H4.65038V10.5918H2.77538L10.0019 3.37108L10.4531 3.82225L17.2266 10.5918H15.3496Z" fill="#033A67"/>
</svg>
