<svg width="28" height="23" viewBox="0 0 28 23" fill="none" xmlns="http://www.w3.org/2000/svg">
<path d="M25.25 5V2.5H7.75V5H25.25ZM25.25 15V8.75H7.75V15H25.25ZM25.25 0C25.913 0 26.5489 0.263392 27.0178 0.732233C27.4866 1.20107 27.75 1.83696 27.75 2.5V15C27.75 15.663 27.4866 16.2989 27.0178 16.7678C26.5489 17.2366 25.913 17.5 25.25 17.5H7.75C7.08696 17.5 6.45107 17.2366 5.98223 16.7678C5.51339 16.2989 5.25 15.663 5.25 15V2.5C5.25 1.1125 6.3625 0 7.75 0H25.25ZM2.75 20H21.5V22.5H2.75C2.08696 22.5 1.45107 22.2366 0.982233 21.7678C0.513392 21.2989 0.25 20.663 0.25 20V6.25H2.75V20Z" fill="#0FA958"/>
</svg>
