<svg width="20" height="20" viewBox="0 0 20 20" fill="none" xmlns="http://www.w3.org/2000/svg">
<path fill-rule="evenodd" clip-rule="evenodd" d="M13.6 8.13595C13.288 7.82578 12.784 7.82578 12.472 8.13595L9.59999 10.968L6.76799 8.13595C6.45596 7.82578 5.95202 7.82578 5.63999 8.13595C5.48854 8.28617 5.40335 8.49064 5.40335 8.70395C5.40335 8.91726 5.48854 9.12174 5.63999 9.27195L9.03199 12.664C9.1822 12.8154 9.38668 12.9006 9.59999 12.9006C9.8133 12.9006 10.0178 12.8154 10.168 12.664L13.6 9.27195C13.7514 9.12174 13.8366 8.91726 13.8366 8.70395C13.8366 8.49064 13.7514 8.28617 13.6 8.13595Z" fill="#959EAD"/>
</svg>
