<svg width="6" height="9" viewBox="0 0 6 9" fill="none" xmlns="http://www.w3.org/2000/svg">
<path fill-rule="evenodd" clip-rule="evenodd" d="M1.13602 0.647294C0.825837 0.959324 0.825837 1.46326 1.13602 1.77529L3.96802 4.64729L1.13602 7.47929C0.825837 7.79132 0.825837 8.29526 1.13602 8.60729C1.28623 8.75874 1.49071 8.84393 1.70402 8.84393C1.91733 8.84393 2.1218 8.75874 2.27202 8.60729L5.66402 5.21529C5.81547 5.06508 5.90065 4.8606 5.90065 4.64729C5.90065 4.43398 5.81547 4.22951 5.66402 4.07929L2.27202 0.647294C2.1218 0.495845 1.91733 0.410656 1.70402 0.410656C1.49071 0.410656 1.28623 0.495845 1.13602 0.647294Z" fill="#395319"/>
</svg>
