<svg width="18" height="13" viewBox="0 0 18 13" fill="none" xmlns="http://www.w3.org/2000/svg">
<path d="M16.7143 0.0715332H1.28571C0.944722 0.0715332 0.617695 0.206992 0.376577 0.44811C0.135459 0.689228 0 1.01625 0 1.35725V11.643C0 11.984 0.135459 12.311 0.376577 12.5521C0.617695 12.7932 0.944722 12.9287 1.28571 12.9287H16.7143C17.0553 12.9287 17.3823 12.7932 17.6234 12.5521C17.8645 12.311 18 11.984 18 11.643V1.35725C18 1.01625 17.8645 0.689228 17.6234 0.44811C17.3823 0.206992 17.0553 0.0715332 16.7143 0.0715332ZM15.3 1.35725L9 5.71582L2.7 1.35725H15.3ZM1.28571 11.643V1.94225L8.63357 7.02725C8.74118 7.1019 8.86903 7.1419 9 7.1419C9.13097 7.1419 9.25882 7.1019 9.36643 7.02725L16.7143 1.94225V11.643H1.28571Z" fill="#EBEBEB"/>
</svg>
