<svg width="22" height="14" viewBox="0 0 22 14" fill="none" xmlns="http://www.w3.org/2000/svg">
<path d="M11 0.125C6.20262 0.125 2.04325 2.919 0 7C2.04325 11.081 6.20262 13.875 11 13.875C15.7974 13.875 19.9568 11.081 22 7C19.9568 2.919 15.7974 0.125 11 0.125ZM16.4244 3.7715C17.7169 4.5965 18.8127 5.70062 19.635 7C18.8153 8.29924 17.719 9.40161 16.4244 10.2285C14.8047 11.2634 12.9228 11.8133 11.0007 11.8133C9.07862 11.8133 7.19668 11.2634 5.577 10.2285C4.28293 9.40087 3.18681 8.29865 2.36637 7C3.24004 5.61556 4.42698 4.45594 5.83138 3.61475C5.52913 4.44559 5.43163 5.33705 5.54714 6.21357C5.66265 7.0901 5.98776 7.92587 6.49493 8.65004C7.00209 9.37422 7.67636 9.96546 8.46059 10.3737C9.24482 10.7819 10.1159 10.995 11 10.995C11.8841 10.995 12.7552 10.7819 13.5394 10.3737C14.3236 9.96546 14.9979 9.37422 15.5051 8.65004C16.0122 7.92587 16.3373 7.0901 16.4529 6.21357C16.5684 5.33705 16.4709 4.44559 16.1686 3.61475C16.2539 3.66563 16.3405 3.71788 16.4244 3.7715ZM11 4.9375C10.9998 5.48469 10.7823 6.0094 10.3952 6.39619C10.0082 6.78299 9.48332 7.00018 8.93612 7C8.38893 6.99982 7.86423 6.78227 7.47743 6.39522C7.09064 6.00817 6.87344 5.48332 6.87363 4.93613C6.87381 4.38893 7.09135 3.86423 7.4784 3.47743C7.86546 3.09064 8.39031 2.87344 8.9375 2.87363C9.48469 2.87381 10.0094 3.09135 10.3962 3.4784C10.783 3.86546 11.0002 4.39031 11 4.9375Z" fill="#395319"/>
</svg>
