<svg width="1438" height="107" viewBox="0 0 1438 107" fill="none" xmlns="http://www.w3.org/2000/svg">
<path fill-rule="evenodd" clip-rule="evenodd" d="M0 6.97826L60 16.7478C120 26.9826 240 46.987 360 40.0087C479 33.4957 599 0 719 0C839 0 959 33.4957 1079 43.7304C1198 53.5 1318 40.0087 1378 33.4957L1438 26.9826V107H1378C1318 107 1198 107 1079 107C959 107 839 107 719 107C599 107 479 107 360 107C240 107 120 107 60 107H0V6.97826Z" fill="url(#paint0_linear_348_20163)"/>
<defs>
<linearGradient id="paint0_linear_348_20163" x1="0" y1="53.5" x2="1438" y2="53.5" gradientUnits="userSpaceOnUse">
<stop stop-color="#1E9600"/>
<stop offset="0.5" stop-color="#5EA700"/>
<stop offset="0.817708" stop-color="#259900"/>
<stop offset="1" stop-color="#5DA808"/>
</linearGradient>
</defs>
</svg>
