<svg width="37" height="37" viewBox="0 0 37 37" fill="none" xmlns="http://www.w3.org/2000/svg">
<path d="M26.2207 7.20546C25.3625 5.65917 24.3342 4.87549 23.1641 4.87549C21.8177 4.87549 20.4194 5.93564 19.0067 8.02717C18.8312 8.28754 18.6622 8.55228 18.5 8.82113C18.3379 8.55221 18.1689 8.28747 17.9933 8.02717C16.5811 5.93564 15.1823 4.87549 13.8359 4.87549C12.6663 4.87549 11.6375 5.65917 10.7793 7.20546C10.138 8.36274 10.1909 9.2713 10.4977 9.76412C11.0512 10.6531 12.4659 11.1747 14.4567 11.517C15.9855 11.7806 17.6028 11.8197 18.4311 11.8197H18.5694C19.3973 11.8197 21.015 11.7806 22.5433 11.517C24.5336 11.1747 25.9483 10.6526 26.5023 9.76412C26.8081 9.27078 26.8625 8.36274 26.2207 7.20546Z" fill="#D22F27"/>
<path d="M8.22223 18.5H28.2639V31.3472H8.22223V18.5Z" fill="#FCEA2B"/>
<path d="M27.437 18.2432L8.73608 18.273V21.0994L22.6846 23.1184L28.2639 23.8959V18.273L27.437 18.2432Z" fill="#F1B31C"/>
<path d="M15.2697 30.8331H21.7303V22.7512L15.2697 21.4731V30.8331Z" fill="#EA5A47"/>
<path d="M7.19446 10.7915H29.8056V17.9859H7.19446V10.7915Z" fill="#FCEA2B"/>
<path d="M15.2697 11.3057H21.7298V17.9862H15.2697V11.3057Z" fill="#EA5A47"/>
<path d="M21.7303 18.2432L15.2697 18.2534V22.0326L21.7303 22.9745V18.2432Z" fill="#D22F27"/>
<path d="M8.4057 18.2433H7.19446V10.9754H8.91907H27.7968H29.8056V18.2433H28.5943V31.164H8.4057V18.2433ZM8.4057 18.2433H28.9983M26.1883 9.3787C26.3857 8.87509 26.4412 8.14896 25.9365 7.20546C25.1102 5.65917 24.1194 4.87549 22.993 4.87549C21.6954 4.87549 20.3485 5.93564 18.9877 8.02717C18.8184 8.28776 18.6557 8.55249 18.4995 8.82113C18.3436 8.55243 18.181 8.28769 18.0118 8.02717C16.6516 5.93564 15.3041 4.87549 14.0071 4.87549C12.8801 4.87549 11.8899 5.65917 11.0625 7.20546C10.5995 8.07394 10.6087 8.75792 10.7675 9.25434" stroke="black" stroke-width="2" stroke-miterlimit="10" stroke-linecap="round" stroke-linejoin="round"/>
<path d="M21.7303 30.8334V22.7515M15.2697 21.4735V30.8334M21.7303 17.9862V11.3057M15.2697 11.3057V17.9862M21.7303 22.9745V18.2432L15.2697 18.2534V22.0326" stroke="black" stroke-width="2" stroke-miterlimit="10"/>
</svg>
