<svg width="21" height="20" viewBox="0 0 21 20" fill="none" xmlns="http://www.w3.org/2000/svg">
<path fill-rule="evenodd" clip-rule="evenodd" d="M14.2667 8.13602C13.9547 7.82584 13.4507 7.82584 13.1387 8.13602L10.2667 10.968L7.43471 8.13602C7.12268 7.82584 6.61874 7.82584 6.30671 8.13602C6.15526 8.28623 6.07007 8.49071 6.07007 8.70402C6.07007 8.91733 6.15526 9.1218 6.30671 9.27202L9.69871 12.664C9.84892 12.8155 10.0534 12.9007 10.2667 12.9007C10.48 12.9007 10.6845 12.8155 10.8347 12.664L14.2667 9.27202C14.4182 9.1218 14.5033 8.91733 14.5033 8.70402C14.5033 8.49071 14.4182 8.28623 14.2667 8.13602Z" fill="#2F3235"/>
</svg>
