<svg xmlns="http://www.w3.org/2000/svg" viewBox="0 0 240 60" width="240" height="60">
  <!-- Leaf C emblem -->
  <g transform="translate(5, 5)">
    <!-- Leaves forming C circle -->
    <path d="M 32 10 C 22 10, 12 18, 12 28 C 12 38, 20 46, 32 46 C 37 46, 42 44, 45 40 C 42 41, 38 41, 34 39 C 26 36, 22 28, 25 21 C 27 16, 33 12, 38 12 C 36 10, 34 10, 32 10 Z" fill="#60d342"/>
    <path d="M 28 8 C 16 12, 8 22, 10 34 C 11 40, 16 46, 24 49 C 18 46, 14 41, 14 34 C 14 24, 22 16, 32 14 C 36 13, 40 14, 43 16 C 39 11, 34 8, 28 8 Z" fill="#4caf50"/>
    <!-- Leaf 1 top -->
    <path d="M 25 12 C 30 5, 42 6, 45 13 C 38 15, 30 17, 25 12 Z" fill="#7ce459"/>
    <!-- Leaf 2 middle left -->
    <path d="M 10 22 C 4 30, 9 40, 17 41 C 18 34, 15 25, 10 22 Z" fill="#43a047"/>
    <!-- Leaf 3 bottom -->
    <path d="M 18 42 C 24 50, 36 49, 41 42 C 34 41, 25 40, 18 42 Z" fill="#8bc34a"/>
  </g>
  
  <!-- Text: Company Name -->
  <text x="65" y="27" font-family="'Quicksand', 'Roboto', sans-serif" font-size="22" font-weight="700" fill="#ffffff" letter-spacing="0.5">Company</text>
  <text x="65" y="48" font-family="'Quicksand', 'Roboto', sans-serif" font-size="20" font-weight="500" fill="#ffffff" letter-spacing="0.5">Name</text>
</svg>
