<svg width="21" height="21" viewBox="0 0 21 21" fill="none" xmlns="http://www.w3.org/2000/svg">
<path d="M0 6.3798V16.8C0 17.9139 0.368749 18.9822 1.02513 19.7698C1.6815 20.5575 2.57174 21 3.5 21H17.5C18.4283 21 19.3185 20.5575 19.9749 19.7698C20.6313 18.9822 21 17.9139 21 16.8V4.2C21 3.08609 20.6313 2.0178 19.9749 1.23015C19.3185 0.442499 18.4283 0 17.5 0H3.5C2.57174 0 1.6815 0.442499 1.02513 1.23015C0.368749 2.0178 0 3.08609 0 4.2V6.3798ZM3.5 2.1H17.5C17.9641 2.1 18.4092 2.32125 18.7374 2.71508C19.0656 3.1089 19.25 3.64305 19.25 4.2V5.754L10.5 11.4072L1.75 5.754V4.2C1.75 3.64305 1.93437 3.1089 2.26256 2.71508C2.59075 2.32125 3.03587 2.1 3.5 2.1ZM1.75 8.1396L10.0852 13.524C10.2127 13.6063 10.3552 13.6494 10.5 13.6494C10.6448 13.6494 10.7873 13.6063 10.9148 13.524L19.25 8.1396V16.8C19.25 17.357 19.0656 17.8911 18.7374 18.2849C18.4092 18.6787 17.9641 18.9 17.5 18.9H3.5C3.03587 18.9 2.59075 18.6787 2.26256 18.2849C1.93437 17.8911 1.75 17.357 1.75 16.8V8.1396Z" fill="#4B6328"/>
</svg>
