<svg width="24" height="24" viewBox="0 0 24 24" fill="none" xmlns="http://www.w3.org/2000/svg">
<path d="M18 14C17.7167 14 17.479 13.904 17.287 13.712C17.095 13.52 16.9993 13.2827 17 13V5H9C8.71667 5 8.479 4.904 8.287 4.712C8.095 4.52 7.99934 4.28267 8 4C8 3.71667 8.096 3.479 8.288 3.287C8.48 3.095 8.71734 2.99934 9 3H18C18.2833 3 18.521 3.096 18.713 3.288C18.905 3.48 19.0007 3.71734 19 4V13C19 13.2833 18.904 13.521 18.712 13.713C18.52 13.905 18.2827 14.0007 18 14ZM13 19C12.7167 19 12.479 18.904 12.287 18.712C12.095 18.52 11.9993 18.2827 12 18V10H4C3.71667 10 3.479 9.904 3.287 9.712C3.095 9.52 2.99934 9.28267 3 9C3 8.71667 3.096 8.479 3.288 8.287C3.48 8.095 3.71734 7.99934 4 8H13C13.2833 8 13.521 8.096 13.713 8.288C13.905 8.48 14.0007 8.71734 14 9V18C14 18.2833 13.904 18.521 13.712 18.713C13.52 18.905 13.2827 19.0007 13 19Z" fill="#4B6328"/>
</svg>
