<svg width="24" height="24" viewBox="0 0 24 24" fill="none" xmlns="http://www.w3.org/2000/svg">
<path d="M6 21C5.71667 21 5.479 20.904 5.287 20.712C5.095 20.52 4.99934 20.2827 5 20V11C5 10.7167 5.096 10.479 5.288 10.287C5.48 10.095 5.71734 9.99934 6 10C6.28334 10 6.521 10.096 6.713 10.288C6.905 10.48 7.00067 10.7173 7 11V19H15C15.2833 19 15.521 19.096 15.713 19.288C15.905 19.48 16.0007 19.7173 16 20C16 20.2833 15.904 20.521 15.712 20.713C15.52 20.905 15.2827 21.0007 15 21H6ZM11 16C10.7167 16 10.479 15.904 10.287 15.712C10.095 15.52 9.99934 15.2827 10 15V6C10 5.71667 10.096 5.479 10.288 5.287C10.48 5.095 10.7173 4.99934 11 5C11.2833 5 11.521 5.096 11.713 5.288C11.905 5.48 12.0007 5.71734 12 6V14H20C20.2833 14 20.521 14.096 20.713 14.288C20.905 14.48 21.0007 14.7173 21 15C21 15.2833 20.904 15.521 20.712 15.713C20.52 15.905 20.2827 16.0007 20 16H11Z" fill="#4B6328"/>
</svg>
