<svg width="23" height="23" viewBox="0 0 23 23" fill="none" xmlns="http://www.w3.org/2000/svg">
<path d="M13.5739 1.0001C15.7207 1.22642 17.7261 2.17907 19.2582 3.7005C20.7904 5.22194 21.7576 7.22101 22 9.36713M13.5739 5.21523C14.6098 5.4196 15.5604 5.93078 16.3023 6.68242C17.0442 7.43407 17.5431 8.39147 17.7343 9.43036M21.9473 16.7225V19.8839C21.9485 20.1774 21.8884 20.4679 21.7709 20.7368C21.6534 21.0057 21.4811 21.247 21.2649 21.4454C21.0488 21.6438 20.7936 21.7949 20.5157 21.8889C20.2378 21.9829 19.9434 22.0179 19.6512 21.9914C16.4102 21.6391 13.2969 20.5311 10.5616 18.7563C8.01675 17.1384 5.85916 14.9798 4.24205 12.4336C2.46202 9.68454 1.35427 6.55458 1.00855 3.29735C0.982229 3.00594 1.01684 2.71225 1.11019 2.43496C1.20353 2.15767 1.35357 1.90287 1.55073 1.68677C1.7479 1.47067 1.98787 1.29802 2.25539 1.1798C2.5229 1.06157 2.81209 1.00038 3.10453 1.0001H6.26431C6.77546 0.995069 7.27101 1.17617 7.65858 1.50964C8.04614 1.84311 8.29929 2.30621 8.37083 2.81261C8.5042 3.82431 8.75153 4.81767 9.10811 5.77374C9.24982 6.15091 9.28049 6.56082 9.19649 6.9549C9.11248 7.34898 8.91733 7.71071 8.63414 7.99722L7.29651 9.33552C8.79588 11.9737 10.9792 14.1581 13.6161 15.6582L14.9537 14.3199C15.2401 14.0366 15.6016 13.8413 15.9955 13.7573C16.3894 13.6732 16.7991 13.7039 17.1761 13.8457C18.1317 14.2025 19.1245 14.4499 20.1357 14.5834C20.6474 14.6556 21.1146 14.9134 21.4487 15.3078C21.7827 15.7022 21.9602 16.2057 21.9473 16.7225Z" stroke="#4B6328" stroke-width="2" stroke-linecap="round" stroke-linejoin="round"/>
</svg>
