<svg width="28" height="28" viewBox="0 0 28 28" fill="none" xmlns="http://www.w3.org/2000/svg">
<g id="Group 1079">
<path id="Vector" d="M16.5677 1.0066C19.2257 1.28666 21.7084 2.46555 23.6054 4.34829C25.5024 6.23103 26.6999 8.70485 27 11.3606M16.5677 6.22273C17.8503 6.47563 19.0272 7.10821 19.9457 8.03835C20.8642 8.9685 21.4819 10.1533 21.7187 11.4389M26.9348 20.4628V24.3749C26.9363 24.7381 26.8619 25.0975 26.7164 25.4303C26.5709 25.7631 26.3575 26.0618 26.0899 26.3073C25.8223 26.5528 25.5063 26.7397 25.1623 26.8561C24.8183 26.9724 24.4537 27.0156 24.092 26.983C20.0793 26.5469 16.2248 25.1758 12.8382 22.9796C9.68741 20.9774 7.0161 18.3061 5.01397 15.1554C2.81012 11.7534 1.43862 7.88015 1.01058 3.84939C0.977997 3.48878 1.02085 3.12534 1.13642 2.7822C1.252 2.43906 1.43775 2.12375 1.68186 1.85633C1.92597 1.58892 2.22308 1.37526 2.55429 1.22896C2.8855 1.08267 3.24354 1.00694 3.60561 1.0066H7.51772C8.15058 1.00037 8.7641 1.22447 9.24395 1.63714C9.7238 2.04981 10.0372 2.62288 10.1258 3.24953C10.2909 4.50149 10.5971 5.73076 11.0386 6.91387C11.2141 7.38062 11.252 7.88787 11.148 8.37554C11.044 8.8632 10.8024 9.31083 10.4518 9.66538L8.79567 11.3215C10.652 14.5862 13.3552 17.2893 16.6199 19.1457L18.276 17.4896C18.6306 17.139 19.0782 16.8974 19.5659 16.7934C20.0535 16.6894 20.5608 16.7273 21.0275 16.9028C22.2106 17.3443 23.4399 17.6505 24.6919 17.8156C25.3253 17.905 25.9038 18.224 26.3174 18.7121C26.7309 19.2002 26.9507 19.8233 26.9348 20.4628Z" stroke="#2E9F3C" stroke-width="2" stroke-linecap="round" stroke-linejoin="round"/>
</g>
</svg>
