<svg width="24" height="24" viewBox="0 0 24 24" fill="none" xmlns="http://www.w3.org/2000/svg">
<g id="Icon/Glyph/25/Search">
<g id="iconspace_Search_Zoom_25px">
<path id="Path" fill-rule="evenodd" clip-rule="evenodd" d="M16.875 15.4013L19.2147 17.7403C19.8647 18.3901 18.89 19.3652 18.2399 18.7153L15.9 16.3761C13.0893 18.6943 8.94267 18.5172 6.33713 15.9116C3.55527 13.1298 3.55527 8.61948 6.33713 5.83762C9.11899 3.05576 13.6293 3.05576 16.4111 5.83762C19.0169 8.44341 19.1939 12.5905 16.875 15.4013ZM15.4362 6.81252C13.1928 4.56908 9.55547 4.56908 7.31203 6.81252C5.0686 9.05596 5.0686 12.6933 7.31203 14.9367C9.55547 17.1802 13.1928 17.1802 15.4362 14.9367C17.6797 12.6933 17.6797 9.05596 15.4362 6.81252Z" fill="white"/>
</g>
</g>
</svg>
