<svg width="37" height="37" viewBox="0 0 37 37" fill="none" xmlns="http://www.w3.org/2000/svg">
<path d="M27.75 14.8002C28.8769 14.8002 29.9772 14.4572 30.9044 13.8167C31.8317 13.1763 32.542 12.2687 32.9409 11.2147C33.3398 10.1608 33.4084 9.01032 33.1375 7.91641C32.8667 6.82251 32.2693 5.83696 31.4247 5.09084C30.5802 4.34472 29.5285 3.87338 28.4095 3.7395C27.2906 3.60562 26.1574 3.81555 25.1606 4.34136C24.1639 4.86717 23.3508 5.68395 22.8296 6.68309C22.3083 7.68223 22.1036 8.81637 22.2426 9.9347L13.1036 14.5042C12.3196 13.7482 11.3305 13.2396 10.2595 13.0417C9.18858 12.8438 8.08305 12.9653 7.08068 13.3912C6.0783 13.8171 5.22339 14.5286 4.62244 15.4368C4.02149 16.3451 3.70105 17.4102 3.70105 18.4993C3.70105 19.5884 4.02149 20.6534 4.62244 21.5617C5.22339 22.47 6.0783 23.1814 7.08068 23.6073C8.08305 24.0332 9.18858 24.1548 10.2595 23.9569C11.3305 23.759 12.3196 23.2503 13.1036 22.4944L22.2426 27.0639C22.0807 28.363 22.3833 29.6775 23.0969 30.7752C23.8104 31.8728 24.8891 32.6828 26.1421 33.0621C27.3952 33.4414 28.7419 33.3655 29.9444 32.8478C31.1469 32.3302 32.1277 31.4041 32.7135 30.2332C33.2992 29.0624 33.4522 27.7222 33.1454 26.4495C32.8386 25.1767 32.0918 24.0534 31.0369 23.2781C29.9819 22.5027 28.6869 22.1253 27.3806 22.2124C26.0743 22.2995 24.8409 22.8456 23.8983 23.7542L14.7593 19.1847C14.8153 18.7301 14.8153 18.2703 14.7593 17.8157L23.8983 13.2462C24.8936 14.2082 26.2515 14.8002 27.75 14.8002Z" fill="#7AA341"/>
</svg>
