<svg width="30" height="31" viewBox="0 0 30 31" fill="none" xmlns="http://www.w3.org/2000/svg">
<path d="M3.68734 6.36115L5.52603 19.6083C5.66328 20.5972 6.50871 21.3334 7.50704 21.3334L24.8051 21.3334C25.8035 21.3334 26.6489 20.5972 26.7861 19.6083L28.388 8.06737C28.5132 7.1656 27.8127 6.36115 26.9023 6.36115L3.68734 6.36115ZM3.68734 6.36115L3.21698 2.66428C3.08988 1.66536 2.23994 0.916707 1.23297 0.916707H0.916504" stroke="#FFFFFE" stroke-width="1.5"/>
<path d="M11.125 27.8959C11.125 26.6878 10.1456 25.7084 8.9375 25.7084C7.72938 25.7084 6.75 26.6878 6.75 27.8959C6.75 29.104 7.72938 30.0834 8.9375 30.0834C10.1456 30.0834 11.125 29.104 11.125 27.8959Z" stroke="#FFFFFE" stroke-width="1.5"/>
<path d="M25.708 27.8959C25.708 26.6878 24.7286 25.7084 23.5205 25.7084C22.3124 25.7084 21.333 26.6878 21.333 27.8959C21.333 29.104 22.3124 30.0834 23.5205 30.0834C24.7286 30.0834 25.708 29.104 25.708 27.8959Z" stroke="#FFFFFE" stroke-width="1.5"/>
</svg>
