<svg width="37" height="37" viewBox="0 0 37 37" fill="none" xmlns="http://www.w3.org/2000/svg">
<path d="M10.0208 23.125H26.9791V32.375H10.0208V23.125Z" fill="#BF360C"/>
<path d="M7.70833 23.1252C9.41121 23.1252 10.7917 21.7447 10.7917 20.0418C10.7917 18.339 9.41121 16.9585 7.70833 16.9585C6.00546 16.9585 4.625 18.339 4.625 20.0418C4.625 21.7447 6.00546 23.1252 7.70833 23.1252Z" fill="#FFA726"/>
<path d="M29.2916 23.1252C30.9945 23.1252 32.375 21.7447 32.375 20.0418C32.375 18.339 30.9945 16.9585 29.2916 16.9585C27.5888 16.9585 26.2083 18.339 26.2083 20.0418C26.2083 21.7447 27.5888 23.1252 29.2916 23.1252Z" fill="#FFA726"/>
<path d="M30.0625 14.6458C30.0625 4.85621 6.9375 8.24788 6.9375 14.6458V22.3541C6.9375 28.752 12.1021 33.9166 18.5 33.9166C24.8979 33.9166 30.0625 28.752 30.0625 22.3541V14.6458Z" fill="#FFB74D"/>
<path d="M23.125 21.5833C23.9764 21.5833 24.6666 20.8931 24.6666 20.0417C24.6666 19.1902 23.9764 18.5 23.125 18.5C22.2735 18.5 21.5833 19.1902 21.5833 20.0417C21.5833 20.8931 22.2735 21.5833 23.125 21.5833Z" fill="#784719"/>
<path d="M13.875 21.5833C14.7264 21.5833 15.4166 20.8931 15.4166 20.0417C15.4166 19.1902 14.7264 18.5 13.875 18.5C13.0235 18.5 12.3333 19.1902 12.3333 20.0417C12.3333 20.8931 13.0235 21.5833 13.875 21.5833Z" fill="#784719"/>
<path d="M18.5 1.5415C11.9479 1.5415 2.3125 6.01234 2.3125 27.4415L10.0208 32.3748V18.4998L22.9708 10.9457L26.9792 16.1873V32.3748L34.6875 26.054C34.6875 21.7373 33.9937 3.69984 22.8167 3.69984L21.7375 1.5415H18.5Z" fill="#FF5722"/>
<path d="M34.6875 18.4998C34.225 18.4998 33.9167 18.8082 33.9167 19.2707V13.8748C33.9167 7.0915 28.3667 1.5415 21.5833 1.5415H14.6458C14.1833 1.5415 13.875 1.84984 13.875 2.31234C13.875 2.77484 14.1833 3.08317 14.6458 3.08317H21.5833C27.5188 3.08317 32.375 7.93942 32.375 13.8748V21.5832C32.375 22.0457 32.6833 22.354 33.1458 22.354C33.6083 22.354 33.9167 22.0457 33.9167 21.5832V23.1248C33.9167 26.1311 31.5271 28.5207 28.5208 28.5207H18.5C18.0375 28.5207 17.7292 28.829 17.7292 29.2915C17.7292 29.754 18.0375 30.0623 18.5 30.0623H28.5208C32.375 30.0623 35.4583 26.979 35.4583 23.1248V19.2707C35.4583 18.8082 35.15 18.4998 34.6875 18.4998Z" fill="#757575"/>
<path d="M34.6875 16.9585H33.9167C33.0688 16.9585 32.375 17.6522 32.375 18.5002V21.5835C32.375 22.4314 33.0688 23.1252 33.9167 23.1252H34.6875C35.5354 23.1252 36.2292 22.4314 36.2292 21.5835V18.5002C36.2292 17.6522 35.5354 16.9585 34.6875 16.9585Z" fill="#37474F"/>
<path d="M18.5 30.8333C19.3514 30.8333 20.0416 30.1431 20.0416 29.2917C20.0416 28.4402 19.3514 27.75 18.5 27.75C17.6485 27.75 16.9583 28.4402 16.9583 29.2917C16.9583 30.1431 17.6485 30.8333 18.5 30.8333Z" fill="#37474F"/>
</svg>
