<svg width="25" height="24" viewBox="0 0 25 24" fill="none" xmlns="http://www.w3.org/2000/svg">
<path d="M10.5001 14L21.5001 3M10.5001 14L14.0001 21C14.0439 21.0957 14.1144 21.1769 14.203 21.2338C14.2917 21.2906 14.3948 21.3209 14.5001 21.3209C14.6054 21.3209 14.7085 21.2906 14.7971 21.2338C14.8858 21.1769 14.9562 21.0957 15.0001 21L21.5001 3M10.5001 14L3.50007 10.5C3.40433 10.4561 3.3232 10.3857 3.26632 10.2971C3.20944 10.2084 3.1792 10.1053 3.1792 10C3.1792 9.89468 3.20944 9.79158 3.26632 9.70295C3.3232 9.61431 3.40433 9.54387 3.50007 9.5L21.5001 3" stroke="#1D2E04" stroke-width="2" stroke-linecap="round" stroke-linejoin="round"/>
</svg>
