<svg width="25" height="24" viewBox="0 0 25 24" fill="none" xmlns="http://www.w3.org/2000/svg">
<g id="tabler:send">
<path id="Vector" d="M10.4999 14L21.4999 3M10.4999 14L13.9999 21C14.0438 21.0957 14.1143 21.1769 14.2029 21.2338C14.2915 21.2906 14.3946 21.3209 14.4999 21.3209C14.6053 21.3209 14.7084 21.2906 14.797 21.2338C14.8856 21.1769 14.9561 21.0957 14.9999 21L21.4999 3M10.4999 14L3.49995 10.5C3.40421 10.4561 3.32307 10.3857 3.26619 10.2971C3.20931 10.2084 3.17908 10.1053 3.17908 10C3.17908 9.89468 3.20931 9.79158 3.26619 9.70295C3.32307 9.61431 3.40421 9.54387 3.49995 9.5L21.4999 3" stroke="#FFFFFE" stroke-width="2" stroke-linecap="round" stroke-linejoin="round"/>
</g>
</svg>
