<svg width="194" height="12" viewBox="0 0 194 12" fill="none" xmlns="http://www.w3.org/2000/svg">
<rect y="4.5" width="80" height="3" rx="1.5" fill="url(#paint0_linear_703_5911)"/>
<path d="M85.082 3.40181C85.1205 3.32369 85.1801 3.25791 85.2541 3.21191C85.328 3.16592 85.4134 3.14154 85.5005 3.14154C85.5876 3.14154 85.673 3.16592 85.7469 3.21191C85.8209 3.25791 85.8805 3.32369 85.919 3.40181L86.5677 4.71547L88.0179 4.92606C88.1041 4.93858 88.1851 4.97497 88.2517 5.03113C88.3182 5.08729 88.3678 5.16097 88.3947 5.24382C88.4216 5.32668 88.4247 5.41541 88.4038 5.49997C88.3829 5.58453 88.3387 5.66155 88.2763 5.72231L87.2269 6.74489L87.4748 8.18922C87.4895 8.27502 87.48 8.36323 87.4472 8.44388C87.4145 8.52453 87.3598 8.59442 87.2894 8.64563C87.219 8.69685 87.1357 8.72736 87.0489 8.7337C86.9621 8.74005 86.8752 8.72199 86.7981 8.68156L85.5002 7.99906L84.2029 8.68156C84.1258 8.72199 84.0389 8.74005 83.9521 8.7337C83.8653 8.72736 83.782 8.69685 83.7116 8.64563C83.6412 8.59442 83.5865 8.52453 83.5538 8.44388C83.521 8.36323 83.5115 8.27502 83.5262 8.18922L83.7735 6.74489L82.7241 5.72231C82.6617 5.66151 82.6175 5.58445 82.5966 5.49985C82.5757 5.41524 82.5789 5.32648 82.6059 5.2436C82.6329 5.16073 82.6825 5.08706 82.7491 5.03094C82.8158 4.97482 82.8969 4.93849 82.9831 4.92606L84.4333 4.71606L85.082 3.40181ZM85.5008 3.87197L84.9291 5.02872C84.8957 5.09651 84.8464 5.15518 84.7853 5.19969C84.7243 5.24419 84.6533 5.2732 84.5785 5.28422L83.301 5.46972L84.2256 6.37039C84.2798 6.4232 84.3203 6.48839 84.3437 6.56033C84.367 6.63228 84.3726 6.70883 84.3598 6.78339L84.1416 8.05506L85.2838 7.45422C85.3507 7.41907 85.4252 7.4007 85.5008 7.4007C85.5764 7.4007 85.6509 7.41907 85.7178 7.45422L86.86 8.05506L86.6418 6.78339C86.629 6.70883 86.6345 6.63228 86.6579 6.56033C86.6813 6.48839 86.7218 6.4232 86.776 6.37039L87.7 5.46914L86.423 5.28364C86.3482 5.27271 86.2771 5.24374 86.2159 5.19923C86.1547 5.15472 86.1053 5.096 86.0719 5.02814L85.5008 3.87197Z" fill="#D69C52"/>
<path d="M96.2829 1.54603C96.349 1.41211 96.4512 1.29934 96.578 1.22049C96.7048 1.14164 96.8511 1.09985 97.0004 1.09985C97.1497 1.09985 97.2961 1.14164 97.4229 1.22049C97.5497 1.29934 97.6519 1.41211 97.7179 1.54603L98.8299 3.79803L101.316 4.15903C101.464 4.18049 101.603 4.24288 101.717 4.33915C101.831 4.43543 101.916 4.56173 101.962 4.70377C102.008 4.84581 102.013 4.99792 101.978 5.14288C101.942 5.28784 101.866 5.41987 101.759 5.52403L99.9599 7.27703L100.385 9.75303C100.41 9.9001 100.394 10.0513 100.338 10.1896C100.282 10.3278 100.188 10.4476 100.067 10.5354C99.9465 10.6232 99.8037 10.6755 99.6548 10.6864C99.506 10.6973 99.3571 10.6663 99.2249 10.597L96.9999 9.42703L94.7759 10.597C94.6438 10.6663 94.4949 10.6973 94.346 10.6864C94.1972 10.6755 94.0544 10.6232 93.9337 10.5354C93.813 10.4476 93.7193 10.3278 93.6632 10.1896C93.607 10.0513 93.5907 9.9001 93.6159 9.75303L94.0399 7.27703L92.2409 5.52403C92.1339 5.41981 92.0582 5.2877 92.0224 5.14266C91.9865 4.99763 91.992 4.84546 92.0383 4.70339C92.0845 4.56132 92.1695 4.43503 92.2838 4.33883C92.3981 4.24262 92.5371 4.18033 92.6849 4.15903L95.1709 3.79903L96.2829 1.54603Z" fill="#D69C52"/>
<path d="M108.082 3.40181C108.12 3.32369 108.18 3.25791 108.254 3.21191C108.328 3.16592 108.413 3.14154 108.5 3.14154C108.588 3.14154 108.673 3.16592 108.747 3.21191C108.821 3.25791 108.881 3.32369 108.919 3.40181L109.568 4.71547L111.018 4.92606C111.104 4.93858 111.185 4.97497 111.252 5.03113C111.318 5.08729 111.368 5.16097 111.395 5.24382C111.422 5.32668 111.425 5.41541 111.404 5.49997C111.383 5.58453 111.339 5.66155 111.276 5.72231L110.227 6.74489L110.475 8.18922C110.49 8.27502 110.48 8.36323 110.447 8.44388C110.414 8.52453 110.36 8.59442 110.289 8.64563C110.219 8.69685 110.136 8.72736 110.049 8.7337C109.962 8.74005 109.875 8.72199 109.798 8.68156L108.5 7.99906L107.203 8.68156C107.126 8.72199 107.039 8.74005 106.952 8.7337C106.865 8.72736 106.782 8.69685 106.712 8.64563C106.641 8.59442 106.587 8.52453 106.554 8.44388C106.521 8.36323 106.511 8.27502 106.526 8.18922L106.774 6.74489L105.724 5.72231C105.662 5.66151 105.618 5.58445 105.597 5.49985C105.576 5.41524 105.579 5.32648 105.606 5.2436C105.633 5.16073 105.682 5.08706 105.749 5.03094C105.816 4.97482 105.897 4.93849 105.983 4.92606L107.433 4.71606L108.082 3.40181ZM108.501 3.87197L107.929 5.02872C107.896 5.09651 107.846 5.15518 107.785 5.19969C107.724 5.24419 107.653 5.2732 107.579 5.28422L106.301 5.46972L107.226 6.37039C107.28 6.4232 107.32 6.48839 107.344 6.56033C107.367 6.63228 107.373 6.70883 107.36 6.78339L107.142 8.05506L108.284 7.45422C108.351 7.41907 108.425 7.4007 108.501 7.4007C108.576 7.4007 108.651 7.41907 108.718 7.45422L109.86 8.05506L109.642 6.78339C109.629 6.70883 109.635 6.63228 109.658 6.56033C109.681 6.48839 109.722 6.4232 109.776 6.37039L110.7 5.46914L109.423 5.28364C109.348 5.27271 109.277 5.24374 109.216 5.19923C109.155 5.15472 109.105 5.096 109.072 5.02814L108.501 3.87197Z" fill="#D69C52"/>
<rect x="194" y="7.5" width="80" height="3" rx="1.5" transform="rotate(-180 194 7.5)" fill="url(#paint1_linear_703_5911)"/>
<defs>
<linearGradient id="paint0_linear_703_5911" x1="0" y1="6" x2="80" y2="6" gradientUnits="userSpaceOnUse">
<stop stop-color="#00F5A0" stop-opacity="0"/>
<stop offset="1" stop-color="#00D9F5"/>
</linearGradient>
<linearGradient id="paint1_linear_703_5911" x1="194" y1="9" x2="274" y2="9" gradientUnits="userSpaceOnUse">
<stop stop-color="#00F5A0" stop-opacity="0"/>
<stop offset="1" stop-color="#00D9F5"/>
</linearGradient>
</defs>
</svg>
