<svg width="194" height="12" viewBox="0 0 194 12" fill="none" xmlns="http://www.w3.org/2000/svg">
<rect y="4.5" width="80" height="3" rx="1.5" fill="url(#paint0_linear_1069_927)"/>
<path d="M85.0817 3.40184C85.1202 3.32372 85.1799 3.25794 85.2538 3.21194C85.3278 3.16595 85.4131 3.14157 85.5003 3.14157C85.5874 3.14157 85.6727 3.16595 85.7467 3.21194C85.8207 3.25794 85.8803 3.32372 85.9188 3.40184L86.5675 4.71551L88.0176 4.92609C88.1038 4.93861 88.1848 4.975 88.2514 5.03116C88.318 5.08732 88.3676 5.161 88.3944 5.24386C88.4213 5.32671 88.4245 5.41544 88.4036 5.5C88.3826 5.58457 88.3385 5.66158 88.276 5.72234L87.2266 6.74492L87.4745 8.18926C87.4893 8.27505 87.4797 8.36326 87.447 8.44391C87.4142 8.52456 87.3596 8.59445 87.2892 8.64566C87.2188 8.69688 87.1355 8.72739 87.0487 8.73373C86.9618 8.74008 86.875 8.72202 86.7979 8.68159L85.5 7.99909L84.2026 8.68159C84.1255 8.72202 84.0387 8.74008 83.9518 8.73373C83.865 8.72739 83.7817 8.69688 83.7113 8.64566C83.6409 8.59445 83.5863 8.52456 83.5535 8.44391C83.5208 8.36326 83.5112 8.27505 83.526 8.18926L83.7733 6.74492L82.7239 5.72234C82.6614 5.66154 82.6173 5.58448 82.5964 5.49988C82.5755 5.41527 82.5787 5.32651 82.6057 5.24363C82.6326 5.16076 82.6822 5.08709 82.7489 5.03097C82.8156 4.97485 82.8966 4.93852 82.9829 4.92609L84.433 4.71609L85.0817 3.40184ZM85.5005 3.87201L84.9289 5.02876C84.8955 5.09654 84.8461 5.15521 84.7851 5.19972C84.724 5.24422 84.653 5.27323 84.5783 5.28426L83.3008 5.46976L84.2254 6.37042C84.2795 6.42323 84.3201 6.48842 84.3434 6.56037C84.3668 6.63231 84.3723 6.70886 84.3595 6.78342L84.1414 8.05509L85.2835 7.45426C85.3505 7.4191 85.4249 7.40073 85.5005 7.40073C85.5761 7.40073 85.6506 7.4191 85.7175 7.45426L86.8597 8.05509L86.6415 6.78342C86.6288 6.70886 86.6343 6.63231 86.6577 6.56037C86.681 6.48842 86.7215 6.42323 86.7757 6.37042L87.6997 5.46917L86.4228 5.28367C86.3479 5.27274 86.2769 5.24377 86.2157 5.19926C86.1545 5.15475 86.1051 5.09603 86.0716 5.02817L85.5005 3.87201Z" fill="#DE3618"/>
<path d="M96.2831 1.546C96.3491 1.41208 96.4513 1.29931 96.5781 1.22046C96.7049 1.14161 96.8512 1.09982 97.0006 1.09982C97.1499 1.09982 97.2962 1.14161 97.423 1.22046C97.5498 1.29931 97.652 1.41208 97.7181 1.546L98.8301 3.798L101.316 4.159C101.464 4.18046 101.603 4.24285 101.717 4.33912C101.831 4.43539 101.916 4.5617 101.962 4.70374C102.008 4.84578 102.014 4.99789 101.978 5.14285C101.942 5.28781 101.866 5.41984 101.759 5.524L99.9601 7.277L100.385 9.753C100.41 9.90007 100.394 10.0513 100.338 10.1895C100.282 10.3278 100.188 10.4476 100.067 10.5354C99.9466 10.6232 99.8038 10.6755 99.655 10.6864C99.5061 10.6973 99.3572 10.6663 99.2251 10.597L97.0001 9.427L94.7761 10.597C94.6439 10.6663 94.495 10.6973 94.3461 10.6864C94.1973 10.6755 94.0545 10.6232 93.9338 10.5354C93.8131 10.4476 93.7194 10.3278 93.6633 10.1895C93.6071 10.0513 93.5908 9.90007 93.6161 9.753L94.0401 7.277L92.2411 5.524C92.134 5.41978 92.0583 5.28767 92.0225 5.14263C91.9867 4.9976 91.9922 4.84543 92.0384 4.70336C92.0846 4.56129 92.1697 4.435 92.2839 4.3388C92.3982 4.24259 92.5372 4.1803 92.6851 4.159L95.1711 3.799L96.2831 1.546Z" fill="#DE3618"/>
<path d="M108.082 3.40184C108.12 3.32372 108.18 3.25794 108.254 3.21194C108.328 3.16595 108.413 3.14157 108.5 3.14157C108.587 3.14157 108.673 3.16595 108.747 3.21194C108.821 3.25794 108.88 3.32372 108.919 3.40184L109.567 4.71551L111.018 4.92609C111.104 4.93861 111.185 4.975 111.251 5.03116C111.318 5.08732 111.368 5.161 111.394 5.24386C111.421 5.32671 111.424 5.41544 111.404 5.5C111.383 5.58457 111.338 5.66158 111.276 5.72234L110.227 6.74492L110.475 8.18926C110.489 8.27505 110.48 8.36326 110.447 8.44391C110.414 8.52456 110.36 8.59445 110.289 8.64566C110.219 8.69688 110.135 8.72739 110.049 8.73373C109.962 8.74008 109.875 8.72202 109.798 8.68159L108.5 7.99909L107.203 8.68159C107.126 8.72202 107.039 8.74008 106.952 8.73373C106.865 8.72739 106.782 8.69688 106.711 8.64566C106.641 8.59445 106.586 8.52456 106.554 8.44391C106.521 8.36326 106.511 8.27505 106.526 8.18926L106.773 6.74492L105.724 5.72234C105.661 5.66154 105.617 5.58448 105.596 5.49988C105.575 5.41527 105.579 5.32651 105.606 5.24363C105.633 5.16076 105.682 5.08709 105.749 5.03097C105.816 4.97485 105.897 4.93852 105.983 4.92609L107.433 4.71609L108.082 3.40184ZM108.501 3.87201L107.929 5.02876C107.895 5.09654 107.846 5.15521 107.785 5.19972C107.724 5.24422 107.653 5.27323 107.578 5.28426L106.301 5.46976L107.225 6.37042C107.28 6.42323 107.32 6.48842 107.343 6.56037C107.367 6.63231 107.372 6.70886 107.36 6.78342L107.141 8.05509L108.284 7.45426C108.35 7.4191 108.425 7.40073 108.501 7.40073C108.576 7.40073 108.651 7.4191 108.718 7.45426L109.86 8.05509L109.642 6.78342C109.629 6.70886 109.634 6.63231 109.658 6.56037C109.681 6.48842 109.722 6.42323 109.776 6.37042L110.7 5.46917L109.423 5.28367C109.348 5.27274 109.277 5.24377 109.216 5.19926C109.155 5.15475 109.105 5.09603 109.072 5.02817L108.501 3.87201Z" fill="#DE3618"/>
<rect x="194" y="7.5" width="80" height="3" rx="1.5" transform="rotate(-180 194 7.5)" fill="url(#paint1_linear_1069_927)"/>
<defs>
<linearGradient id="paint0_linear_1069_927" x1="0" y1="6" x2="80" y2="6" gradientUnits="userSpaceOnUse">
<stop stop-color="#00F5A0" stop-opacity="0"/>
<stop offset="1" stop-color="#00D9F5"/>
</linearGradient>
<linearGradient id="paint1_linear_1069_927" x1="194" y1="9" x2="274" y2="9" gradientUnits="userSpaceOnUse">
<stop stop-color="#00F5A0" stop-opacity="0"/>
<stop offset="1" stop-color="#00D9F5"/>
</linearGradient>
</defs>
</svg>
