<svg width="19" height="14" viewBox="0 0 19 14" fill="none" xmlns="http://www.w3.org/2000/svg">
<path d="M12.0114 0.5C11.1675 0.5 10.3582 0.835226 9.76148 1.43193C9.16477 2.02864 8.82954 2.83795 8.82954 3.68182C8.82954 4.52569 9.16477 5.335 9.76148 5.9317C10.3582 6.52841 11.1675 6.86364 12.0114 6.86364C12.8552 6.86364 13.6645 6.52841 14.2612 5.9317C14.858 5.335 15.1932 4.52569 15.1932 3.68182C15.1932 2.83795 14.858 2.02864 14.2612 1.43193C13.6645 0.835226 12.8552 0.5 12.0114 0.5ZM12.0114 2.01136C12.2307 2.01136 12.4479 2.05457 12.6506 2.13852C12.8533 2.22247 13.0374 2.34551 13.1926 2.50063C13.3477 2.65574 13.4707 2.83989 13.5547 3.04256C13.6386 3.24523 13.6818 3.46245 13.6818 3.68182C13.6818 3.90118 13.6386 4.1184 13.5547 4.32107C13.4707 4.52374 13.3477 4.70789 13.1926 4.86301C13.0374 5.01812 12.8533 5.14117 12.6506 5.22512C12.4479 5.30906 12.2307 5.35227 12.0114 5.35227C11.792 5.35227 11.5748 5.30906 11.3721 5.22512C11.1694 5.14117 10.9853 5.01812 10.8302 4.86301C10.6751 4.70789 10.552 4.52374 10.4681 4.32107C10.3841 4.1184 10.3409 3.90118 10.3409 3.68182C10.3409 3.23879 10.5169 2.8139 10.8302 2.50063C11.1434 2.18736 11.5683 2.01136 12.0114 2.01136ZM3.26136 2.88636V5.27273H0.875V6.86364H3.26136V9.25H4.85227V6.86364H7.23864V5.27273H4.85227V2.88636H3.26136ZM12.0114 7.65909C9.8875 7.65909 5.64773 8.71704 5.64773 10.8409V13.2273H18.375V10.8409C18.375 8.71704 14.1352 7.65909 12.0114 7.65909ZM12.0114 9.17045C14.3739 9.17045 16.8636 10.3318 16.8636 10.8409V11.7159H7.15909V10.8409C7.15909 10.3318 9.625 9.17045 12.0114 9.17045Z" fill="#2F3235"/>
</svg>
