<svg width="20" height="21" viewBox="0 0 20 21" fill="none" xmlns="http://www.w3.org/2000/svg">
<path fill-rule="evenodd" clip-rule="evenodd" d="M5.04183 5.75002C5.04183 5.09888 5.17008 4.45412 5.41926 3.85255C5.66844 3.25098 6.03367 2.70437 6.49409 2.24395C6.95452 1.78353 7.50112 1.4183 8.10269 1.16912C8.70426 0.919938 9.34903 0.791687 10.0002 0.791687C10.6513 0.791687 11.2961 0.919938 11.8976 1.16912C12.4992 1.4183 13.0458 1.78353 13.5062 2.24395C13.9667 2.70437 14.3319 3.25098 14.5811 3.85255C14.8302 4.45412 14.9585 5.09888 14.9585 5.75002C14.9585 7.06505 14.4361 8.32622 13.5062 9.25609C12.5764 10.186 11.3152 10.7084 10.0002 10.7084C8.68513 10.7084 7.42396 10.186 6.49409 9.25609C5.56422 8.32622 5.04183 7.06505 5.04183 5.75002ZM10.0002 2.54169C9.14926 2.54169 8.33321 2.87971 7.73153 3.48139C7.12985 4.08307 6.79183 4.89912 6.79183 5.75002C6.79183 6.60092 7.12985 7.41698 7.73153 8.01865C8.33321 8.62033 9.14926 8.95835 10.0002 8.95835C10.8511 8.95835 11.6671 8.62033 12.2688 8.01865C12.8705 7.41698 13.2085 6.60092 13.2085 5.75002C13.2085 4.89912 12.8705 4.08307 12.2688 3.48139C11.6671 2.87971 10.8511 2.54169 10.0002 2.54169ZM5.3335 14.2084C4.6373 14.2084 3.96962 14.4849 3.47734 14.9772C2.98506 15.4695 2.7085 16.1372 2.7085 16.8334V18.2194C2.7085 18.2404 2.72366 18.259 2.74466 18.2625C7.55016 19.0465 12.4513 19.0465 17.2557 18.2625C17.2659 18.2608 17.2751 18.2556 17.2818 18.2476C17.2884 18.2397 17.292 18.2297 17.2918 18.2194V16.8334C17.2918 16.1372 17.0153 15.4695 16.523 14.9772C16.0307 14.4849 15.363 14.2084 14.6668 14.2084H14.2702C14.2389 14.2081 14.2078 14.2128 14.178 14.2224L13.1688 14.5525C11.1099 15.2247 8.89046 15.2247 6.8315 14.5525L5.82116 14.2224C5.79213 14.2131 5.76182 14.2083 5.73133 14.2084H5.3335ZM0.958496 16.8334C0.958496 15.673 1.41943 14.5602 2.2399 13.7398C3.06038 12.9193 4.17317 12.4584 5.3335 12.4584H5.73016C5.946 12.4584 6.16066 12.4934 6.36483 12.5587L7.37516 12.8889C9.08088 13.4456 10.9194 13.4456 12.6252 12.8889L13.6355 12.5587C13.8397 12.4922 14.0543 12.4584 14.269 12.4584H14.6668C15.8272 12.4584 16.94 12.9193 17.7604 13.7398C18.5809 14.5602 19.0418 15.673 19.0418 16.8334V18.2194C19.0418 19.099 18.4048 19.848 17.5368 19.9892C12.5454 20.804 7.4549 20.804 2.4635 19.9892C2.04341 19.9208 1.66134 19.7052 1.38562 19.381C1.1099 19.0567 0.958503 18.645 0.958496 18.2194V16.8334Z" fill="#EBEBEB"/>
</svg>
