<svg width="18" height="21" viewBox="0 0 18 21" fill="none" xmlns="http://www.w3.org/2000/svg">
<path fill-rule="evenodd" clip-rule="evenodd" d="M6.46291 7.7306C6.46291 7.05736 6.73036 6.41169 7.20641 5.93564C7.68247 5.45958 8.32813 5.19214 9.00138 5.19214C9.67462 5.19214 10.3203 5.45958 10.7963 5.93564C11.2724 6.41169 11.5398 7.05736 11.5398 7.7306C11.5398 8.40384 11.2724 9.04951 10.7963 9.52556C10.3203 10.0016 9.67462 10.2691 9.00138 10.2691C8.32813 10.2691 7.68247 10.0016 7.20641 9.52556C6.73036 9.04951 6.46291 8.40384 6.46291 7.7306ZM9.00138 6.57675C8.69536 6.57675 8.40187 6.69832 8.18548 6.91471C7.9691 7.1311 7.84753 7.42458 7.84753 7.7306C7.84753 8.03662 7.9691 8.3301 8.18548 8.54649C8.40187 8.76288 8.69536 8.88445 9.00138 8.88445C9.30739 8.88445 9.60088 8.76288 9.81727 8.54649C10.0337 8.3301 10.1552 8.03662 10.1552 7.7306C10.1552 7.42458 10.0337 7.1311 9.81727 6.91471C9.60088 6.69832 9.30739 6.57675 9.00138 6.57675ZM9.00138 10.7306C7.89738 10.7306 6.86445 10.9521 6.08076 11.3444C5.33953 11.7155 4.61676 12.3561 4.61676 13.2691V13.3272C4.61491 13.798 4.61307 14.5918 5.36445 15.1355C5.71338 15.3875 6.17399 15.5491 6.74445 15.6515C7.31953 15.7549 8.05707 15.8075 9.00138 15.8075C9.94568 15.8075 10.6832 15.7549 11.2583 15.6515C11.8288 15.5491 12.2894 15.3875 12.6383 15.1346C13.3897 14.5909 13.3878 13.798 13.386 13.3263V13.2691C13.386 12.3552 12.6632 11.7155 11.922 11.3444C11.1383 10.9531 10.1054 10.7306 9.00138 10.7306ZM6.00138 13.2691C6.00138 13.1629 6.10568 12.8804 6.70015 12.5832C7.25399 12.3063 8.0663 12.1152 9.00138 12.1152C9.93645 12.1152 10.7497 12.3063 11.3026 12.5832C11.8971 12.8804 12.0014 13.1629 12.0014 13.2691C12.0014 13.8266 11.9654 13.9124 11.826 14.014C11.7134 14.0952 11.4817 14.2041 11.0137 14.2891C10.5503 14.3721 9.90322 14.4229 9.00138 14.4229C8.09953 14.4229 7.45245 14.3721 6.98907 14.2891C6.52107 14.2041 6.28938 14.0952 6.17676 14.014C6.03645 13.9124 6.00138 13.8266 6.00138 13.2691Z" fill="#FFFFFE"/>
<path fill-rule="evenodd" clip-rule="evenodd" d="M5.97508 1.31629C7.308 0.860289 8.13508 0.576904 9 0.576904C9.86585 0.576904 10.692 0.860289 12.0249 1.31629L12.696 1.54706C14.0631 2.01414 15.1191 2.37598 15.8742 2.68244C16.2545 2.8366 16.5822 2.98706 16.8452 3.13937C17.0991 3.28706 17.3529 3.47075 17.5255 3.71721C17.6963 3.95998 17.7849 4.25906 17.8403 4.54798C17.8985 4.84706 17.9326 5.20614 17.9557 5.61875C18 6.4366 18 7.55906 18 9.01383V10.4917C18 16.1234 13.7465 18.8234 11.2172 19.9292L11.1923 19.9394C10.8785 20.0769 10.5831 20.2052 10.2443 20.292C9.88708 20.3843 9.50677 20.4231 9 20.4231C8.49231 20.4231 8.11385 20.3843 7.75569 20.292C7.41692 20.2052 7.12154 20.0769 6.80769 19.9394L6.78277 19.9292C4.25354 18.8234 0 16.1234 0 10.4908V9.01383C0 7.55906 8.9407e-08 6.4366 0.0443078 5.61783C0.0673847 5.20614 0.101539 4.84706 0.159692 4.54706C0.215077 4.25906 0.303692 3.95998 0.473538 3.71629C0.647077 3.47075 0.900923 3.28706 1.15477 3.13937C1.41785 2.98706 1.74554 2.8366 2.12585 2.68244C2.88092 2.37598 3.93692 2.01414 5.304 1.54706L5.97508 1.31629ZM9 1.96152C8.39262 1.96152 7.79538 2.15721 6.30462 2.66675L5.77662 2.84767C4.38 3.32583 3.36185 3.67475 2.64738 3.9646C2.37352 4.07098 2.10708 4.19557 1.84985 4.33752C1.78269 4.37536 1.7185 4.41826 1.65785 4.46583C1.63948 4.47954 1.62248 4.495 1.60708 4.51198C1.59501 4.53372 1.58511 4.5566 1.57754 4.58029C1.55908 4.63198 1.53877 4.70583 1.51938 4.80921C1.46954 5.10168 1.43871 5.39707 1.42708 5.69352C1.38462 6.46983 1.38462 7.55352 1.38462 9.03875V10.4917C1.38462 15.2686 4.95692 17.6206 7.33754 18.66C7.68 18.8095 7.87846 18.8944 8.09908 18.9508C8.30954 19.0052 8.56615 19.0384 9 19.0384C9.43385 19.0384 9.69046 19.0052 9.90092 18.9508C10.1225 18.8954 10.32 18.8095 10.6625 18.66C13.044 17.6197 16.6154 15.2686 16.6154 10.4917V9.03875C16.6154 7.55352 16.6154 6.46983 16.5729 5.69352C16.5613 5.39706 16.5305 5.10167 16.4806 4.80921C16.4669 4.73158 16.4474 4.65506 16.4225 4.58029C16.4149 4.5566 16.405 4.53372 16.3929 4.51198C16.3775 4.495 16.3605 4.47954 16.3422 4.46583C16.2815 4.41791 16.2174 4.37471 16.1502 4.3366C15.8929 4.19527 15.6264 4.0713 15.3526 3.96552C14.6382 3.67475 13.62 3.32583 12.2234 2.8486L11.6945 2.66675C10.2046 2.15721 9.60738 1.96152 9 1.96152Z" fill="#FFFFFE"/>
</svg>
