<svg width="60" height="60" viewBox="0 0 60 60" fill="none" xmlns="http://www.w3.org/2000/svg">
<path d="M27.5725 6.34952C28.3151 5.93711 29.1506 5.7207 30 5.7207C30.8494 5.7207 31.6849 5.93711 32.4275 6.34952L51.215 16.7845C51.6045 17.0011 51.929 17.3179 52.155 17.7021C52.3809 18.0863 52.5 18.5238 52.5 18.9695V39.557C52.4998 40.4486 52.2612 41.324 51.8088 42.0923C51.3565 42.8607 50.707 43.4941 49.9275 43.927L32.4275 53.652C31.6849 54.0644 30.8494 54.2808 30 54.2808C29.1506 54.2808 28.3151 54.0644 27.5725 53.652L10.0725 43.927C9.29339 43.4943 8.64408 42.8613 8.19179 42.0934C7.73949 41.3255 7.50066 40.4507 7.5 39.5595V18.9695C7.49998 18.5238 7.61911 18.0863 7.84504 17.7021C8.07097 17.3179 8.39549 17.0011 8.785 16.7845L27.5725 6.34952Z" stroke="#3DAD91" stroke-width="2.91667" stroke-linecap="round" stroke-linejoin="round"/>
<path d="M18.75 11.25L41.25 23.75V32.5M15 30.82L22.5 35" stroke="#3DAD91" stroke-width="2.91667" stroke-linecap="round" stroke-linejoin="round"/>
<path d="M7.5 17.5L30 30M30 30L52.5 17.5M30 30V53.75" stroke="#3DAD91" stroke-width="2.91667" stroke-linejoin="round"/>
</svg>
