<svg width="60" height="60" viewBox="0 0 60 60" fill="none" xmlns="http://www.w3.org/2000/svg">
<path d="M27.5725 6.35001C28.3151 5.9376 29.1506 5.72119 30 5.72119C30.8494 5.72119 31.6849 5.9376 32.4275 6.35001L51.215 16.785C51.6045 17.0016 51.929 17.3184 52.155 17.7026C52.3809 18.0867 52.5 18.5243 52.5 18.97V39.5575C52.4998 40.4491 52.2612 41.3245 51.8088 42.0928C51.3565 42.8612 50.707 43.4946 49.9275 43.9275L32.4275 53.6525C31.6849 54.0649 30.8494 54.2813 30 54.2813C29.1506 54.2813 28.3151 54.0649 27.5725 53.6525L10.0725 43.9275C9.29339 43.4948 8.64408 42.8618 8.19179 42.0939C7.73949 41.326 7.50066 40.4512 7.5 39.56V18.97C7.49998 18.5243 7.61911 18.0867 7.84504 17.7026C8.07097 17.3184 8.39549 17.0016 8.785 16.785L27.5725 6.35001Z" stroke="#0FA958" stroke-width="2.91667" stroke-linecap="round" stroke-linejoin="round"/>
<path d="M18.75 11.25L41.25 23.75V32.5M15 30.82L22.5 35" stroke="#0FA958" stroke-width="2.91667" stroke-linecap="round" stroke-linejoin="round"/>
<path d="M7.5 17.5L30 30M30 30L52.5 17.5M30 30V53.75" stroke="#0FA958" stroke-width="2.91667" stroke-linejoin="round"/>
</svg>
