<svg width="60" height="60" viewBox="0 0 60 60" fill="none" xmlns="http://www.w3.org/2000/svg">
<path d="M47.87 7.4275C47.4245 6.68881 46.7962 6.07738 46.0456 5.65218C45.2951 5.22698 44.4476 5.00237 43.585 5H16.415C14.67 5 13.0275 5.93 12.13 7.4275L5.3575 18.7125C5.12314 19.101 4.99951 19.5463 5 20C5.00999 22.413 5.89874 24.7398 7.5 26.545V47.5C7.5 50.2575 9.7425 52.5 12.5 52.5H47.5C50.2575 52.5 52.5 50.2575 52.5 47.5V26.545C54.1012 24.7398 54.99 22.413 55 20C55.0005 19.5463 54.8768 19.101 54.6425 18.7125L47.87 7.4275ZM49.96 20.6275C49.8057 21.8346 49.2171 22.9441 48.3043 23.7488C47.3915 24.5535 46.2169 24.9983 45 25C42.2425 25 40 22.7575 40 20C40 19.83 39.9375 19.68 39.9025 19.52L39.9525 19.51L38.05 10H43.585L49.96 20.6275ZM27.0475 10H32.95L34.9825 20.1625C34.895 22.8425 32.7 25 30 25C27.3 25 25.105 22.8425 25.0175 20.1625L27.0475 10ZM16.415 10H21.95L20.05 19.51L20.1 19.52C20.0625 19.68 20 19.83 20 20C20 22.7575 17.7575 25 15 25C13.7831 24.9983 12.6085 24.5535 11.6957 23.7488C10.7829 22.9441 10.1943 21.8346 10.04 20.6275L16.415 10ZM25 47.5V40H35V47.5H25ZM40 47.5V40C40 37.2425 37.7575 35 35 35H25C22.2425 35 20 37.2425 20 40V47.5H12.5V29.645C13.3025 29.8525 14.13 30 15 30C16.4195 30.0008 17.8229 29.6985 19.1163 29.1135C20.4096 28.5284 21.5632 27.6741 22.5 26.6075C24.3325 28.6875 27.0175 30 30 30C32.9825 30 35.6675 28.6875 37.5 26.6075C38.4367 27.6741 39.5903 28.5284 40.8837 29.1135C42.1771 29.6985 43.5804 30.0008 45 30C45.87 30 46.6975 29.8525 47.5 29.645V47.5H40Z" fill="#EDC13B"/>
</svg>
