<svg width="26" height="26" viewBox="0 0 26 26" fill="none" xmlns="http://www.w3.org/2000/svg">
<path d="M20.1094 11.375C20.1094 11.5366 20.0452 11.6916 19.9309 11.8059C19.8166 11.9202 19.6616 11.9844 19.5 11.9844H15.4375C15.2759 11.9844 15.1209 11.9202 15.0066 11.8059C14.8923 11.6916 14.8281 11.5366 14.8281 11.375C14.8281 11.2134 14.8923 11.0584 15.0066 10.9441C15.1209 10.8298 15.2759 10.7656 15.4375 10.7656H19.5C19.6616 10.7656 19.8166 10.8298 19.9309 10.9441C20.0452 11.0584 20.1094 11.2134 20.1094 11.375ZM19.5 14.0156H15.4375C15.2759 14.0156 15.1209 14.0798 15.0066 14.1941C14.8923 14.3084 14.8281 14.4634 14.8281 14.625C14.8281 14.7866 14.8923 14.9416 15.0066 15.0559C15.1209 15.1702 15.2759 15.2344 15.4375 15.2344H19.5C19.6616 15.2344 19.8166 15.1702 19.9309 15.0559C20.0452 14.9416 20.1094 14.7866 20.1094 14.625C20.1094 14.4634 20.0452 14.3084 19.9309 14.1941C19.8166 14.0798 19.6616 14.0156 19.5 14.0156ZM23.3594 5.6875V20.3125C23.3594 20.6896 23.2096 21.0513 22.9429 21.3179C22.6763 21.5846 22.3146 21.7344 21.9375 21.7344H4.0625C3.6854 21.7344 3.32374 21.5846 3.05708 21.3179C2.79043 21.0513 2.64062 20.6896 2.64062 20.3125V5.6875C2.64062 5.3104 2.79043 4.94874 3.05708 4.68208C3.32374 4.41543 3.6854 4.26562 4.0625 4.26562H21.9375C22.3146 4.26563 22.6763 4.41543 22.9429 4.68208C23.2096 4.94874 23.3594 5.3104 23.3594 5.6875ZM22.1406 5.6875C22.1406 5.63363 22.1192 5.58196 22.0811 5.54387C22.043 5.50578 21.9914 5.48438 21.9375 5.48438H4.0625C4.00863 5.48438 3.95696 5.50578 3.91887 5.54387C3.88078 5.58196 3.85938 5.63363 3.85938 5.6875V20.3125C3.85938 20.3664 3.88078 20.418 3.91887 20.4561C3.95696 20.4942 4.00863 20.5156 4.0625 20.5156H21.9375C21.9914 20.5156 22.043 20.4942 22.0811 20.4561C22.1192 20.418 22.1406 20.3664 22.1406 20.3125V5.6875ZM13.5901 16.9112C13.6305 17.0677 13.6071 17.2338 13.525 17.373C13.4429 17.5123 13.3088 17.6132 13.1523 17.6536C12.9958 17.694 12.8297 17.6706 12.6905 17.5885C12.5512 17.5064 12.4503 17.3724 12.4099 17.2159C12.1205 16.0855 10.9769 15.2344 9.75 15.2344C8.52313 15.2344 7.38055 16.0855 7.09008 17.2148C7.04967 17.3713 6.94876 17.5054 6.80953 17.5875C6.67029 17.6696 6.50415 17.693 6.34766 17.6526C6.19116 17.6122 6.05712 17.5113 5.97503 17.372C5.89294 17.2328 5.86952 17.0667 5.90992 16.9102C6.04644 16.4051 6.2842 15.9331 6.60877 15.5228C6.93333 15.1126 7.33793 14.7725 7.79797 14.5234C7.31745 14.1223 6.97213 13.5829 6.80897 12.9786C6.6458 12.3743 6.67272 11.7344 6.88606 11.146C7.09939 10.5575 7.48879 10.049 8.0013 9.68967C8.51381 9.33032 9.12457 9.13754 9.75051 9.13754C10.3764 9.13754 10.9872 9.33032 11.4997 9.68967C12.0122 10.049 12.4016 10.5575 12.615 11.146C12.8283 11.7344 12.8552 12.3743 12.692 12.9786C12.5289 13.5829 12.1836 14.1223 11.703 14.5234C12.163 14.7727 12.5675 15.113 12.8919 15.5234C13.2163 15.9339 13.4538 16.4061 13.5901 16.9112ZM9.75 14.0156C10.1116 14.0156 10.465 13.9084 10.7657 13.7075C11.0663 13.5067 11.3006 13.2211 11.439 12.8871C11.5773 12.553 11.6135 12.1855 11.543 11.8309C11.4725 11.4762 11.2983 11.1505 11.0427 10.8948C10.787 10.6392 10.4613 10.465 10.1066 10.3945C9.75203 10.324 9.38445 10.3602 9.05041 10.4985C8.71636 10.6369 8.43085 10.8712 8.22997 11.1718C8.02909 11.4725 7.92188 11.8259 7.92188 12.1875C7.92188 12.6723 8.11448 13.1373 8.45732 13.4802C8.80016 13.823 9.26515 14.0156 9.75 14.0156Z" fill="#EDC13B"/>
</svg>
