<svg width="20" height="21" viewBox="0 0 20 21" fill="none" xmlns="http://www.w3.org/2000/svg">
<path fill-rule="evenodd" clip-rule="evenodd" d="M5.04183 5.24996C5.04183 4.59882 5.17008 3.95406 5.41926 3.35249C5.66844 2.75091 6.03367 2.20431 6.49409 1.74389C6.95452 1.28346 7.50112 0.918236 8.10269 0.669056C8.70426 0.419877 9.34903 0.291626 10.0002 0.291626C10.6513 0.291626 11.2961 0.419877 11.8976 0.669056C12.4992 0.918236 13.0458 1.28346 13.5062 1.74389C13.9667 2.20431 14.3319 2.75091 14.5811 3.35249C14.8302 3.95406 14.9585 4.59882 14.9585 5.24996C14.9585 6.56499 14.4361 7.82616 13.5062 8.75603C12.5764 9.6859 11.3152 10.2083 10.0002 10.2083C8.68513 10.2083 7.42396 9.6859 6.49409 8.75603C5.56422 7.82616 5.04183 6.56499 5.04183 5.24996ZM10.0002 2.04163C9.14926 2.04163 8.33321 2.37965 7.73153 2.98132C7.12985 3.583 6.79183 4.39906 6.79183 5.24996C6.79183 6.10086 7.12985 6.91691 7.73153 7.51859C8.33321 8.12027 9.14926 8.45829 10.0002 8.45829C10.8511 8.45829 11.6671 8.12027 12.2688 7.51859C12.8705 6.91691 13.2085 6.10086 13.2085 5.24996C13.2085 4.39906 12.8705 3.583 12.2688 2.98132C11.6671 2.37965 10.8511 2.04163 10.0002 2.04163ZM5.3335 13.7083C4.6373 13.7083 3.96962 13.9849 3.47734 14.4771C2.98506 14.9694 2.7085 15.6371 2.7085 16.3333V17.7193C2.7085 17.7403 2.72366 17.759 2.74466 17.7625C7.55016 18.5465 12.4513 18.5465 17.2557 17.7625C17.2659 17.7608 17.2751 17.7555 17.2818 17.7476C17.2884 17.7397 17.292 17.7296 17.2918 17.7193V16.3333C17.2918 15.6371 17.0153 14.9694 16.523 14.4771C16.0307 13.9849 15.363 13.7083 14.6668 13.7083H14.2702C14.2389 13.708 14.2078 13.7128 14.178 13.7223L13.1688 14.0525C11.1099 14.7247 8.89046 14.7247 6.8315 14.0525L5.82116 13.7223C5.79213 13.713 5.76182 13.7083 5.73133 13.7083H5.3335ZM0.958496 16.3333C0.958496 15.173 1.41943 14.0602 2.2399 13.2397C3.06038 12.4192 4.17317 11.9583 5.3335 11.9583H5.73016C5.946 11.9583 6.16066 11.9933 6.36483 12.0586L7.37516 12.3888C9.08088 12.9456 10.9194 12.9456 12.6252 12.3888L13.6355 12.0586C13.8397 11.9921 14.0543 11.9583 14.269 11.9583H14.6668C15.8272 11.9583 16.94 12.4192 17.7604 13.2397C18.5809 14.0602 19.0418 15.173 19.0418 16.3333V17.7193C19.0418 18.599 18.4048 19.348 17.5368 19.4891C12.5454 20.304 7.4549 20.304 2.4635 19.4891C2.04341 19.4207 1.66134 19.2051 1.38562 18.8809C1.1099 18.5567 0.958503 18.1449 0.958496 17.7193V16.3333Z" fill="#EBEBEB"/>
</svg>
