<svg width="26" height="26" viewBox="0 0 26 26" fill="none" xmlns="http://www.w3.org/2000/svg">
<path fill-rule="evenodd" clip-rule="evenodd" d="M19.6769 1.59931C19.0545 1.35608 18.3575 1.31554 17.4643 1.309C17.2788 0.917309 16.9859 0.586343 16.6197 0.35461C16.2535 0.122877 15.8289 -9.56128e-05 15.3956 2.77129e-07H10.1648C9.73153 -0.0002129 9.30712 0.122565 8.9409 0.354058C8.57468 0.58555 8.2817 0.916246 8.09602 1.30769C7.20156 1.31554 6.50586 1.35608 5.8834 1.59931C5.14033 1.88997 4.4941 2.38394 4.01863 3.02469C3.53871 3.66939 3.31248 4.49846 3.00386 5.63746L2.18263 8.64908C1.66771 8.90786 1.21661 9.27767 0.861864 9.73185C0.0484792 10.7741 -0.0953667 12.0151 0.0497871 13.4378C0.18971 14.8188 0.625172 16.558 1.16917 18.734L1.20317 18.8739C1.5484 20.2496 1.82694 21.3677 2.15909 22.2399C2.50563 23.1501 2.94633 23.8955 3.67079 24.4617C4.39656 25.0279 5.22694 25.2725 6.19332 25.3902C7.11917 25.5 8.27255 25.5 9.6914 25.5H15.8689C17.2878 25.5 18.4399 25.5 19.367 25.3888C20.3347 25.2738 21.1638 25.0279 21.8882 24.4604C22.614 23.8955 23.0534 23.1501 23.3999 22.2399C23.7334 21.3677 24.0119 20.2496 24.3559 18.8726L24.3912 18.7353C24.9352 16.558 25.3693 14.8188 25.5106 13.4392C25.6544 12.0138 25.5106 10.7741 24.6972 9.73185C24.3428 9.27782 23.8922 8.90802 23.3777 8.64908L22.5565 5.63746C22.2466 4.49846 22.0203 3.66938 21.5417 3.02338C21.0661 2.38311 20.4198 1.88961 19.6769 1.59931ZM6.5974 3.42615C6.88509 3.31369 7.23294 3.281 8.09732 3.27185C8.46609 4.04338 9.25332 4.57692 10.1635 4.57692H15.3942C16.307 4.57692 17.0942 4.04338 17.463 3.27185C18.3274 3.281 18.6752 3.31369 18.9629 3.42615C19.3631 3.58308 19.7109 3.84854 19.9672 4.19377C20.1974 4.50369 20.3321 4.93654 20.7126 6.33185L21.1756 8.02792C19.8182 7.84615 18.0659 7.84615 15.8886 7.84615H9.67048C7.49448 7.84615 5.74217 7.84615 4.38479 8.02792L4.84771 6.33185C5.22694 4.93654 5.36294 4.50369 5.59309 4.19377C5.84915 3.84868 6.1972 3.58266 6.5974 3.42615ZM10.1648 1.96154C10.0781 1.96154 9.99493 1.99598 9.93362 2.05729C9.87231 2.1186 9.83786 2.20176 9.83786 2.28846C9.83786 2.37517 9.87231 2.45832 9.93362 2.51963C9.99493 2.58094 10.0781 2.61538 10.1648 2.61538H15.3956C15.4823 2.61538 15.5654 2.58094 15.6267 2.51963C15.688 2.45832 15.7225 2.37517 15.7225 2.28846C15.7225 2.20176 15.688 2.1186 15.6267 2.05729C15.5654 1.99598 15.4823 1.96154 15.3956 1.96154H10.1648ZM2.40886 10.9388C2.77371 10.472 3.3504 10.1582 4.5404 9.98554C5.75786 9.81031 7.40817 9.80769 9.75286 9.80769H15.8075C18.1522 9.80769 19.8012 9.81031 21.0186 9.98554C22.2099 10.1582 22.7866 10.472 23.1515 10.9402C23.5163 11.407 23.6811 12.0412 23.5582 13.2391C23.4339 14.4631 23.0364 16.0637 22.4676 18.3391C22.1053 19.788 21.8529 20.7923 21.5679 21.5429C21.2906 22.2674 21.0199 22.6505 20.6812 22.916C20.3426 23.1802 19.9045 23.3488 19.1342 23.4417C18.3366 23.5372 17.3035 23.5385 15.8075 23.5385H9.75286C8.25686 23.5385 7.22248 23.5372 6.42609 23.4417C5.65456 23.3502 5.21779 23.1802 4.87909 22.916C4.53909 22.6505 4.2684 22.2674 3.99248 21.5429C3.7074 20.7923 3.45502 19.788 3.09148 18.3391C2.52394 16.0637 2.12509 14.4631 2.00086 13.2391C1.87925 12.0412 2.04402 11.4057 2.40886 10.9388Z" fill="#0077B6"/>
</svg>
